BriemScript-Light.ufo
<glyph name="exclam" format="2">
  <advance width="279.11607142857144"/>
  <unicode hex="0021"/>
  <outline>
    <contour>
      <point x="125.49464285714286" y="204.96428571428572" type="curve" smooth="yes"/>
      <point x="145.95714285714286" y="204.96428571428572"/>
      <point x="166.4375" y="209.95714285714286"/>
      <point x="167.43392857142857" y="219.6107142857143" type="curve" smooth="yes"/>
      <point x="167.93214285714285" y="247.11964285714285"/>
      <point x="211.0875" y="553.8732142857143"/>
      <point x="211.0875" y="621.7107142857143" type="curve" smooth="yes"/>
      <point x="211.0875" y="641.0035714285714"/>
      <point x="169.80535714285713" y="652.0"/>
      <point x="143.67142857142858" y="652.0" type="curve" smooth="yes"/>
      <point x="131.68571428571428" y="652.0"/>
      <point x="121.68928571428572" y="649.0035714285714"/>
      <point x="121.68928571428572" y="639.1767857142858" type="curve" smooth="yes"/>
      <point x="121.68928571428572" y="614.6964285714286"/>
      <point x="108.34285714285714" y="257.29285714285714"/>
      <point x="108.34285714285714" y="211.29285714285714" type="curve" smooth="yes"/>
      <point x="108.34285714285714" y="206.4625"/>
      <point x="117.0" y="204.96428571428572"/>
    </contour>
    <contour>
      <point x="118.80535714285715" y="-0.16607142857142856" type="curve" smooth="yes"/>
      <point x="149.11964285714285" y="-0.16607142857142856"/>
      <point x="174.43035714285713" y="17.99642857142857"/>
      <point x="174.43035714285713" y="49.635714285714286" type="curve" smooth="yes"/>
      <point x="174.43035714285713" y="85.13035714285715"/>
      <point x="155.94285714285715" y="107.44107142857143"/>
      <point x="135.13392857142858" y="107.44107142857143" type="curve" smooth="yes"/>
      <point x="111.65357142857142" y="107.44107142857143"/>
      <point x="78.34285714285714" y="81.95357142857142"/>
      <point x="78.34285714285714" y="43.96785714285714" type="curve" smooth="yes"/>
      <point x="78.34285714285714" y="13.660714285714285"/>
      <point x="92.65357142857142" y="-0.16607142857142856"/>
    </contour>
  </outline>
</glyph>
<glyph name="quotedbl" format="2">
  <advance width="337.25357142857143"/>
  <unicode hex="0022"/>
  <outline>
    <contour>
      <point x="256.95714285714286" y="445.35714285714283" type="curve" smooth="yes"/>
      <point x="269.7767857142857" y="445.35714285714283"/>
      <point x="276.2714285714286" y="453.5232142857143"/>
      <point x="291.7660714285714" y="491.51964285714286" type="curve" smooth="yes"/>
      <point x="307.0875" y="529.1696428571429"/>
      <point x="340.25" y="622.5160714285714"/>
      <point x="340.25" y="635.0107142857142" type="curve" smooth="yes"/>
      <point x="340.25" y="648.8375"/>
      <point x="326.26428571428573" y="651.8339285714286"/>
      <point x="298.625" y="651.8339285714286" type="curve" smooth="yes"/>
      <point x="268.98571428571427" y="651.8339285714286"/>
      <point x="254.1625" y="645.1696428571429"/>
      <point x="252.49464285714285" y="622.5089285714286" type="curve" smooth="yes"/>
      <point x="249.99285714285713" y="589.0035714285714"/>
      <point x="240.8125" y="486.4946428571429"/>
      <point x="241.31071428571428" y="469.66785714285714" type="curve" smooth="yes"/>
      <point x="242.14107142857142" y="449.6857142857143"/>
      <point x="246.6392857142857" y="445.35714285714283"/>
    </contour>
    <contour>
      <point x="72.64642857142857" y="445.5232142857143" type="curve" smooth="yes"/>
      <point x="85.46607142857142" y="445.5232142857143"/>
      <point x="91.96071428571429" y="453.6892857142857"/>
      <point x="107.45535714285714" y="491.6857142857143" type="curve" smooth="yes"/>
      <point x="122.77678571428571" y="529.3357142857143"/>
      <point x="155.93928571428572" y="622.6821428571428"/>
      <point x="155.93928571428572" y="635.1767857142858" type="curve" smooth="yes"/>
      <point x="155.93928571428572" y="649.0035714285714"/>
      <point x="141.95357142857142" y="652.0"/>
      <point x="114.31428571428572" y="652.0" type="curve" smooth="yes"/>
      <point x="84.675" y="652.0"/>
      <point x="69.85178571428571" y="645.3357142857143"/>
      <point x="68.18392857142857" y="622.675" type="curve" smooth="yes"/>
      <point x="65.68214285714285" y="589.1696428571429"/>
      <point x="56.50178571428572" y="486.6607142857143"/>
      <point x="57.0" y="469.83392857142854" type="curve" smooth="yes"/>
      <point x="57.830357142857146" y="449.8517857142857"/>
      <point x="62.32857142857143" y="445.5232142857143"/>
    </contour>
  </outline>
</glyph>
<glyph name="numbersign" format="2">
  <advance width="585.825"/>
  <unicode hex="0023"/>
  <outline>
    <contour>
      <point x="187.4232142857143" y="-13.0" type="curve" smooth="yes"/>
      <point x="201.0732142857143" y="-13.0"/>
      <point x="202.7375" y="-9.169642857142858"/>
      <point x="202.7375" y="-1.5125000000000002" type="curve" smooth="yes"/>
      <point x="202.7375" y="51.82678571428571"/>
      <point x="205.57142857142856" y="121.50178571428572"/>
      <point x="209.2392857142857" y="193.17678571428573" type="curve"/>
      <point x="366.91785714285714" y="193.17678571428573" type="line"/>
      <point x="361.08392857142854" y="96.83035714285714"/>
      <point x="355.58214285714286" y="24.8125"/>
      <point x="355.58214285714286" y="19.646428571428572" type="curve" smooth="yes"/>
      <point x="355.58214285714286" y="-2.3392857142857144"/>
      <point x="389.0410714285714" y="-13.0"/>
      <point x="417.35535714285714" y="-13.0" type="curve" smooth="yes"/>
      <point x="430.1714285714286" y="-13.0"/>
      <point x="432.66964285714283" y="-9.169642857142858"/>
      <point x="432.66964285714283" y="-1.5125000000000002" type="curve" smooth="yes"/>
      <point x="432.66964285714283" y="51.82678571428571"/>
      <point x="434.66964285714283" y="121.50178571428572"/>
      <point x="438.3375" y="193.17678571428573" type="curve"/>
      <point x="523.8428571428572" y="193.17678571428573" type="line" smooth="yes"/>
      <point x="539.6767857142858" y="193.17678571428573"/>
      <point x="547.3410714285715" y="212.675"/>
      <point x="547.3410714285715" y="233.6642857142857" type="curve" smooth="yes"/>
      <point x="547.3410714285715" y="242.4875"/>
      <point x="544.3410714285715" y="244.65357142857144"/>
      <point x="538.5107142857142" y="244.65357142857144" type="curve" smooth="yes"/>
      <point x="439.0017857142857" y="244.65357142857144" type="line"/>
      <point x="441.0017857142857" y="301.6607142857143"/>
      <point x="444.8357142857143" y="357.5017857142857"/>
      <point x="448.50357142857143" y="407.84464285714284" type="curve"/>
      <point x="538.8428571428572" y="407.84464285714284" type="line" smooth="yes"/>
      <point x="554.6767857142858" y="407.84464285714284"/>
      <point x="562.3410714285715" y="426.50892857142856"/>
      <point x="562.3410714285715" y="447.4982142857143" type="curve" smooth="yes"/>
      <point x="562.3410714285715" y="456.32142857142856"/>
      <point x="559.3410714285715" y="458.4875"/>
      <point x="553.5107142857142" y="458.4875" type="curve" smooth="yes"/>
      <point x="450.0017857142857" y="458.4875" type="line"/>
      <point x="456.3375" y="548.1732142857143"/>
      <point x="461.8392857142857" y="615.0214285714286"/>
      <point x="461.8392857142857" y="620.1875" type="curve" smooth="yes"/>
      <point x="461.8392857142857" y="642.3392857142857"/>
      <point x="428.3803571428571" y="652.0"/>
      <point x="401.06607142857143" y="652.0" type="curve" smooth="yes"/>
      <point x="387.25" y="652.0"/>
      <point x="385.7517857142857" y="649.1696428571429"/>
      <point x="385.7517857142857" y="641.3464285714285" type="curve" smooth="yes"/>
      <point x="384.08392857142854" y="606.1839285714286"/>
      <point x="381.4160714285714" y="537.6714285714286"/>
      <point x="377.58214285714286" y="458.4875" type="curve"/>
      <point x="220.90357142857144" y="458.4875" type="line"/>
      <point x="226.40535714285716" y="548.1732142857143"/>
      <point x="232.74107142857142" y="615.0214285714286"/>
      <point x="232.74107142857142" y="620.1875" type="curve" smooth="yes"/>
      <point x="232.74107142857142" y="642.3392857142857"/>
      <point x="199.28214285714284" y="652.0"/>
      <point x="171.13392857142858" y="652.0" type="curve" smooth="yes"/>
      <point x="158.15178571428572" y="652.0"/>
      <point x="155.81964285714287" y="649.1696428571429"/>
      <point x="155.81964285714287" y="641.3464285714285" type="curve" smooth="yes"/>
      <point x="154.9857142857143" y="606.1839285714286"/>
      <point x="151.48392857142858" y="537.6714285714286"/>
      <point x="148.48392857142858" y="458.4875" type="curve"/>
      <point x="63.64285714285714" y="458.4875" type="line" smooth="yes"/>
      <point x="46.975" y="458.4875"/>
      <point x="40.144642857142856" y="438.9892857142857"/>
      <point x="40.144642857142856" y="418.0" type="curve" smooth="yes"/>
      <point x="40.144642857142856" y="409.1767857142857"/>
      <point x="43.144642857142856" y="407.84464285714284"/>
      <point x="48.975" y="407.84464285714284" type="curve" smooth="yes"/>
      <point x="147.81964285714287" y="407.84464285714284" type="line"/>
      <point x="138.48392857142858" y="244.65357142857144" type="line"/>
      <point x="48.64285714285714" y="244.65357142857144" type="line" smooth="yes"/>
      <point x="31.975" y="244.65357142857144"/>
      <point x="25.144642857142856" y="225.15535714285716"/>
      <point x="25.144642857142856" y="204.16607142857143" type="curve" smooth="yes"/>
      <point x="25.144642857142856" y="195.34285714285716"/>
      <point x="27.310714285714283" y="193.17678571428573"/>
      <point x="33.14107142857143" y="193.17678571428573" type="curve" smooth="yes"/>
      <point x="137.65357142857144" y="193.17678571428573" type="line"/>
      <point x="131.15178571428572" y="97.82678571428572"/>
      <point x="126.48392857142858" y="24.978571428571428"/>
      <point x="126.48392857142858" y="19.646428571428572" type="curve" smooth="yes"/>
      <point x="126.48392857142858" y="-2.3392857142857144"/>
      <point x="159.94285714285715" y="-13.0"/>
    </contour>
    <contour>
      <point x="208.2357142857143" y="242.15178571428572" type="line"/>
      <point x="217.57142857142856" y="409.5125" type="line"/>
      <point x="377.7517857142857" y="409.5125" type="line"/>
      <point x="368.4160714285714" y="242.15178571428572" type="line"/>
    </contour>
  </outline>
</glyph>
<glyph name="dollar" format="2">
  <advance width="522.3107142857143"/>
  <unicode hex="0024"/>
  <outline>
    <contour>
      <point x="277.8017857142857" y="-178.95357142857142" type="curve" smooth="yes"/>
      <point x="290.2857142857143" y="-178.95357142857142"/>
      <point x="291.61785714285713" y="-174.95714285714286"/>
      <point x="291.61785714285713" y="-166.6357142857143" type="curve" smooth="yes"/>
      <point x="291.61785714285713" y="-122.14464285714286"/>
      <point x="292.9535714285714" y="-65.325"/>
      <point x="294.9535714285714" y="-6.505357142857143" type="curve"/>
      <point x="372.78035714285716" y="13.155357142857142"/>
      <point x="445.9607142857143" y="80.98571428571428"/>
      <point x="445.9607142857143" y="179.15178571428572" type="curve" smooth="yes"/>
      <point x="445.9607142857143" y="223.8125"/>
      <point x="427.1303571428571" y="258.1410714285714"/>
      <point x="395.1303571428571" y="289.80535714285713" type="curve" smooth="yes"/>
      <point x="361.46964285714284" y="323.2964285714286"/>
      <point x="267.61071428571427" y="380.48035714285714"/>
      <point x="233.77678571428572" y="414.1482142857143" type="curve" smooth="yes"/>
      <point x="205.1017857142857" y="442.65714285714284"/>
      <point x="190.76607142857142" y="472.0"/>
      <point x="190.76607142857142" y="506.5125" type="curve" smooth="yes"/>
      <point x="190.76607142857142" y="575.375"/>
      <point x="240.7875" y="598.2196428571428"/>
      <point x="274.4625" y="598.2196428571428" type="curve" smooth="yes"/>
      <point x="343.3142857142857" y="598.2196428571428"/>
      <point x="384.3107142857143" y="563.3714285714286"/>
      <point x="408.4767857142857" y="541.5303571428572" type="curve" smooth="yes"/>
      <point x="421.3071428571429" y="530.1946428571429"/>
      <point x="429.30357142857144" y="521.3607142857143"/>
      <point x="436.13392857142856" y="521.3607142857143" type="curve" smooth="yes"/>
      <point x="446.9642857142857" y="521.3607142857143"/>
      <point x="452.62857142857143" y="538.5196428571429"/>
      <point x="452.62857142857143" y="568.5125" type="curve" smooth="yes"/>
      <point x="452.62857142857143" y="578.1660714285714"/>
      <point x="450.1303571428571" y="588.6607142857143"/>
      <point x="439.3142857142857" y="596.6535714285715" type="curve" smooth="yes"/>
      <point x="410.64285714285717" y="626.0"/>
      <point x="367.63214285714287" y="644.1696428571429"/>
      <point x="323.9607142857143" y="649.3357142857143" type="curve"/>
      <point x="328.4625" y="718.35"/>
      <point x="332.9642857142857" y="768.1946428571429"/>
      <point x="332.9642857142857" y="772.3607142857143" type="curve" smooth="yes"/>
      <point x="332.9642857142857" y="795.675"/>
      <point x="301.66785714285714" y="806.0"/>
      <point x="274.35" y="806.0" type="curve" smooth="yes"/>
      <point x="262.7" y="806.0"/>
      <point x="260.5339285714286" y="802.8375"/>
      <point x="260.5339285714286" y="794.5160714285714" type="curve" smooth="yes"/>
      <point x="259.7" y="765.0214285714286"/>
      <point x="258.1982142857143" y="711.5160714285714"/>
      <point x="255.69642857142858" y="649.3392857142857" type="curve"/>
      <point x="151.01785714285714" y="636.5160714285714"/>
      <point x="106.025" y="559.3464285714285"/>
      <point x="106.025" y="478.69642857142856" type="curve" smooth="yes"/>
      <point x="106.025" y="423.7035714285714"/>
      <point x="130.8517857142857" y="385.2089285714286"/>
      <point x="164.34642857142856" y="354.0464285714286" type="curve" smooth="yes"/>
      <point x="209.68571428571428" y="311.70714285714286"/>
      <point x="291.8803571428571" y="264.6928571428571"/>
      <point x="324.71785714285716" y="229.1875" type="curve" smooth="yes"/>
      <point x="347.38928571428573" y="204.84821428571428"/>
      <point x="362.39285714285717" y="177.84107142857144"/>
      <point x="362.39285714285717" y="142.32857142857142" type="curve" smooth="yes"/>
      <point x="362.39285714285717" y="71.96071428571429"/>
      <point x="297.6892857142857" y="43.11607142857143"/>
      <point x="258.51964285714286" y="43.11607142857143" type="curve" smooth="yes"/>
      <point x="190.0142857142857" y="43.11607142857143"/>
      <point x="141.3357142857143" y="73.79464285714286"/>
      <point x="112.16607142857143" y="97.46964285714286" type="curve" smooth="yes"/>
      <point x="94.83035714285714" y="111.975"/>
      <point x="86.33214285714286" y="123.31071428571428"/>
      <point x="80.67142857142858" y="123.31071428571428" type="curve" smooth="yes"/>
      <point x="68.84107142857142" y="123.31071428571428"/>
      <point x="63.84464285714286" y="85.30357142857143"/>
      <point x="63.84464285714286" y="71.15535714285714" type="curve" smooth="yes"/>
      <point x="63.84464285714286" y="62.169642857142854"/>
      <point x="65.675" y="50.67142857142857"/>
      <point x="77.49107142857143" y="41.346428571428575" type="curve" smooth="yes"/>
      <point x="106.49464285714286" y="14.8375"/>
      <point x="155.16964285714286" y="-9.8375"/>
      <point x="227.85535714285714" y="-12.335714285714285" type="curve"/>
      <point x="223.1875" y="-86.325"/>
      <point x="220.02142857142857" y="-139.81607142857143"/>
      <point x="220.02142857142857" y="-144.48035714285714" type="curve" smooth="yes"/>
      <point x="220.02142857142857" y="-167.79464285714286"/>
      <point x="252.15178571428572" y="-178.95357142857142"/>
    </contour>
  </outline>
</glyph>
<glyph name="ampersand" format="2">
  <advance width="716.9428571428572"/>
  <unicode hex="0026"/>
  <outline>
    <contour>
      <point x="323.45892857142854" y="-13.0" type="curve" smooth="yes"/>
      <point x="570.9107142857143" y="-13.0"/>
      <point x="633.5678571428572" y="147.99285714285713"/>
      <point x="633.5678571428572" y="231.33928571428572" type="curve" smooth="yes"/>
      <point x="633.5678571428572" y="282.6642857142857"/>
      <point x="617.0732142857142" y="323.5053571428571"/>
      <point x="586.9107142857143" y="338.50892857142856" type="curve"/>
      <point x="526.7446428571428" y="338.50892857142856" type="line"/>
      <point x="629.1303571428572" y="451.40714285714284"/>
      <point x="674.6214285714286" y="492.56607142857143"/>
      <point x="688.7946428571429" y="507.90535714285716" type="curve" smooth="yes"/>
      <point x="694.1267857142857" y="513.7357142857143"/>
      <point x="702.2964285714286" y="524.9017857142857"/>
      <point x="702.2964285714286" y="530.5625" type="curve" smooth="yes"/>
      <point x="702.2964285714286" y="547.0464285714286"/>
      <point x="690.8053571428571" y="566.025"/>
      <point x="678.1482142857143" y="579.8446428571428" type="curve" smooth="yes"/>
      <point x="673.4875" y="585.0035714285714"/>
      <point x="667.9892857142858" y="588.6678571428571"/>
      <point x="665.1589285714285" y="588.6678571428571" type="curve" smooth="yes"/>
      <point x="663.3285714285714" y="588.6678571428571"/>
      <point x="658.3285714285714" y="583.6678571428571"/>
      <point x="652.9964285714286" y="577.1696428571429" type="curve" smooth="yes"/>
      <point x="613.8375" y="532.35"/>
      <point x="342.7660714285714" y="239.09107142857144"/>
      <point x="334.1017857142857" y="229.59285714285716" type="curve" smooth="yes"/>
      <point x="323.43392857142857" y="218.09107142857144"/>
      <point x="321.43392857142857" y="213.7625"/>
      <point x="321.43392857142857" y="206.93571428571428" type="curve" smooth="yes"/>
      <point x="321.43392857142857" y="189.61785714285713"/>
      <point x="334.75892857142856" y="167.97142857142856"/>
      <point x="349.25" y="153.31785714285715" type="curve" smooth="yes"/>
      <point x="353.9107142857143" y="148.99285714285713"/>
      <point x="356.90714285714284" y="146.1625"/>
      <point x="358.9035714285714" y="146.1625" type="curve" smooth="yes"/>
      <point x="361.5678571428571" y="146.1625"/>
      <point x="365.06607142857143" y="150.32857142857142"/>
      <point x="370.23214285714283" y="156.66071428571428" type="curve" smooth="yes"/>
      <point x="419.7482142857143" y="216.67857142857142"/>
      <point x="465.9214285714286" y="270.1875"/>
      <point x="510.10535714285714" y="319.8732142857143" type="curve"/>
      <point x="539.4517857142857" y="318.20535714285717"/>
      <point x="566.9607142857143" y="262.01428571428573"/>
      <point x="566.9607142857143" y="214.16607142857143" type="curve" smooth="yes"/>
      <point x="566.9607142857143" y="127.98928571428571"/>
      <point x="494.3071428571429" y="32.473214285714285"/>
      <point x="340.7660714285714" y="32.473214285714285" type="curve" smooth="yes"/>
      <point x="201.89285714285714" y="32.473214285714285"/>
      <point x="128.23214285714286" y="116.00357142857143"/>
      <point x="128.23214285714286" y="205.65714285714284" type="curve" smooth="yes"/>
      <point x="128.23214285714286" y="283.6714285714286"/>
      <point x="175.57857142857142" y="349.0107142857143"/>
      <point x="291.11607142857144" y="352.0" type="curve" smooth="yes"/>
      <point x="298.78035714285716" y="352.4982142857143"/>
      <point x="304.28214285714284" y="360.83035714285717"/>
      <point x="304.28214285714284" y="369.83035714285717" type="curve" smooth="yes"/>
      <point x="304.28214285714284" y="387.83392857142854"/>
      <point x="299.1125" y="393.3357142857143"/>
      <point x="289.61071428571427" y="394.4982142857143" type="curve" smooth="yes"/>
      <point x="265.2714285714286" y="397.32142857142856"/>
      <point x="198.56785714285715" y="433.1625"/>
      <point x="198.56785714285715" y="508.35714285714283" type="curve" smooth="yes"/>
      <point x="198.56785714285715" y="561.3607142857143"/>
      <point x="238.75178571428572" y="605.7071428571429"/>
      <point x="302.10535714285714" y="605.7071428571429" type="curve" smooth="yes"/>
      <point x="357.29285714285714" y="605.7071428571429"/>
      <point x="391.4660714285714" y="584.3642857142858"/>
      <point x="422.64285714285717" y="555.8482142857143" type="curve" smooth="yes"/>
      <point x="429.1410714285714" y="551.1803571428571"/>
      <point x="434.4732142857143" y="546.6785714285714"/>
      <point x="437.63928571428573" y="546.6785714285714" type="curve" smooth="yes"/>
      <point x="445.80535714285713" y="546.6785714285714"/>
      <point x="452.3" y="560.3392857142857"/>
      <point x="452.3" y="583.4946428571428" type="curve" smooth="yes"/>
      <point x="452.3" y="593.8232142857142"/>
      <point x="451.46964285714284" y="602.8232142857142"/>
      <point x="442.6357142857143" y="609.9928571428571" type="curve" smooth="yes"/>
      <point x="414.64642857142854" y="632.1625"/>
      <point x="358.81964285714287" y="652.0"/>
      <point x="293.4839285714286" y="652.0" type="curve" smooth="yes"/>
      <point x="203.4875" y="652.0"/>
      <point x="115.15535714285714" y="613.1625"/>
      <point x="115.15535714285714" y="518.6678571428571" type="curve" smooth="yes"/>
      <point x="115.15535714285714" y="440.0"/>
      <point x="164.14464285714286" y="397.6642857142857"/>
      <point x="218.80892857142857" y="377.0" type="curve"/>
      <point x="115.1625" y="377.0"/>
      <point x="44.48392857142857" y="308.8410714285714"/>
      <point x="44.48392857142857" y="218.34642857142856" type="curve" smooth="yes"/>
      <point x="44.48392857142857" y="97.02857142857142"/>
      <point x="137.44464285714287" y="-13.0"/>
    </contour>
  </outline>
</glyph>
<glyph name="quotesingle" format="2">
  <advance width="152.94285714285715"/>
  <unicode hex="0027"/>
  <outline>
    <contour>
      <point x="72.64642857142857" y="446.35714285714283" type="curve" smooth="yes"/>
      <point x="85.46607142857142" y="446.35714285714283"/>
      <point x="91.96071428571429" y="453.6892857142857"/>
      <point x="107.45535714285714" y="491.6857142857143" type="curve" smooth="yes"/>
      <point x="122.77678571428571" y="529.3357142857143"/>
      <point x="155.93928571428572" y="622.6821428571428"/>
      <point x="155.93928571428572" y="635.0107142857142" type="curve" smooth="yes"/>
      <point x="155.93928571428572" y="649.0035714285714"/>
      <point x="141.95357142857142" y="652.0"/>
      <point x="114.31428571428572" y="652.0" type="curve" smooth="yes"/>
      <point x="84.675" y="652.0"/>
      <point x="69.85178571428571" y="646.1696428571429"/>
      <point x="68.18392857142857" y="623.5089285714286" type="curve" smooth="yes"/>
      <point x="64.84821428571429" y="590.0035714285714"/>
      <point x="56.50178571428572" y="487.4946428571429"/>
      <point x="57.0" y="470.66785714285714" type="curve" smooth="yes"/>
      <point x="57.830357142857146" y="450.6857142857143"/>
      <point x="62.32857142857143" y="446.35714285714283"/>
    </contour>
  </outline>
</glyph>
<glyph name="parenleft" format="2">
  <advance width="324.1196428571429"/>
  <unicode hex="0028"/>
  <outline>
    <contour>
      <point x="246.27857142857144" y="-244.0" type="curve" smooth="yes"/>
      <point x="256.0982142857143" y="-244.0"/>
      <point x="260.26428571428573" y="-242.00357142857143"/>
      <point x="260.26428571428573" y="-233.00714285714287" type="curve" smooth="yes"/>
      <point x="260.26428571428573" y="-225.5125"/>
      <point x="152.74821428571428" y="-66.0"/>
      <point x="152.74821428571428" y="237.0" type="curve" smooth="yes"/>
      <point x="152.74821428571428" y="430.0"/>
      <point x="219.25714285714287" y="612.8517857142857"/>
      <point x="298.9535714285714" y="724.7071428571429" type="curve" smooth="yes"/>
      <point x="304.7767857142857" y="735.0178571428571"/>
      <point x="305.9428571428571" y="737.6785714285714"/>
      <point x="305.9428571428571" y="740.3392857142857" type="curve" smooth="yes"/>
      <point x="305.9428571428571" y="748.1660714285714"/>
      <point x="292.9392857142857" y="756.0"/>
      <point x="277.4482142857143" y="756.0" type="curve" smooth="yes"/>
      <point x="267.30357142857144" y="756.0"/>
      <point x="256.83035714285717" y="751.8375"/>
      <point x="246.675" y="740.5160714285714" type="curve" smooth="yes"/>
      <point x="141.15178571428572" y="626.4910714285714"/>
      <point x="71.1625" y="452.9892857142857"/>
      <point x="71.1625" y="239.1625" type="curve" smooth="yes"/>
      <point x="71.1625" y="75.81964285714285"/>
      <point x="99.98928571428571" y="-50.65714285714286"/>
      <point x="193.81964285714287" y="-223.5125" type="curve" smooth="yes"/>
      <point x="201.64285714285714" y="-237.16607142857143"/>
      <point x="224.275" y="-244.0"/>
    </contour>
  </outline>
</glyph>
<glyph name="parenright" format="2">
  <advance width="325.78035714285716"/>
  <unicode hex="0029"/>
  <outline>
    <contour>
      <point x="49.332142857142856" y="-244.0" type="curve" smooth="yes"/>
      <point x="59.47678571428571" y="-244.0"/>
      <point x="69.95" y="-241.50535714285715"/>
      <point x="80.10535714285714" y="-230.18392857142857" type="curve" smooth="yes"/>
      <point x="185.62857142857143" y="-116.15892857142858"/>
      <point x="255.61785714285713" y="59.010714285714286"/>
      <point x="255.61785714285713" y="272.16964285714283" type="curve" smooth="yes"/>
      <point x="255.61785714285713" y="436.18035714285713"/>
      <point x="226.79107142857143" y="561.8232142857142"/>
      <point x="132.9607142857143" y="733.8446428571428" type="curve" smooth="yes"/>
      <point x="125.1375" y="747.4982142857143"/>
      <point x="101.67142857142858" y="756.0"/>
      <point x="80.50178571428572" y="756.0" type="curve" smooth="yes"/>
      <point x="69.84821428571429" y="756.0"/>
      <point x="66.51607142857142" y="752.3357142857143"/>
      <point x="66.51607142857142" y="744.1732142857143" type="curve" smooth="yes"/>
      <point x="66.51607142857142" y="737.5125"/>
      <point x="174.03214285714284" y="576.3321428571429"/>
      <point x="174.03214285714284" y="274.16607142857146" type="curve" smooth="yes"/>
      <point x="174.03214285714284" y="80.33214285714286"/>
      <point x="106.68928571428572" y="-101.68571428571428"/>
      <point x="26.992857142857144" y="-212.70714285714286" type="curve" smooth="yes"/>
      <point x="21.169642857142858" y="-223.01785714285714"/>
      <point x="20.00357142857143" y="-227.34642857142856"/>
      <point x="20.00357142857143" y="-230.00714285714287" type="curve" smooth="yes"/>
      <point x="20.00357142857143" y="-237.83392857142857"/>
      <point x="33.00714285714286" y="-244.0"/>
    </contour>
  </outline>
</glyph>
<glyph name="asterisk" format="2">
  <advance width="481.0"/>
  <unicode hex="002A"/>
  <outline>
    <contour>
      <point x="273.325" y="319.69642857142856" type="curve" smooth="yes"/>
      <point x="283.1517857142857" y="319.69642857142856"/>
      <point x="288.1482142857143" y="323.025"/>
      <point x="288.1482142857143" y="330.5160714285714" type="curve" smooth="yes"/>
      <point x="288.1482142857143" y="389.5339285714286"/>
      <point x="277.81964285714287" y="437.025"/>
      <point x="276.65714285714284" y="508.8589285714286" type="curve"/>
      <point x="334.4982142857143" y="472.20535714285717"/>
      <point x="360.325" y="436.2160714285714"/>
      <point x="414.3464285714286" y="399.70714285714286" type="curve" smooth="yes"/>
      <point x="417.1767857142857" y="397.7107142857143"/>
      <point x="419.17321428571427" y="396.37857142857143"/>
      <point x="422.00357142857143" y="396.37857142857143" type="curve" smooth="yes"/>
      <point x="434.325" y="396.37857142857143"/>
      <point x="453.98214285714283" y="434.6928571428571"/>
      <point x="453.98214285714283" y="453.02142857142854" type="curve" smooth="yes"/>
      <point x="453.98214285714283" y="462.35"/>
      <point x="450.65" y="469.3464285714286"/>
      <point x="442.65" y="473.84464285714284" type="curve" smooth="yes"/>
      <point x="418.98214285714283" y="487.17321428571427"/>
      <point x="374.16607142857146" y="492.66785714285714"/>
      <point x="296.81607142857143" y="536.1839285714286" type="curve"/>
      <point x="367.99285714285713" y="573.3714285714286"/>
      <point x="414.3107142857143" y="572.2053571428571"/>
      <point x="447.1482142857143" y="594.7107142857143" type="curve" smooth="yes"/>
      <point x="453.97857142857146" y="599.0428571428571"/>
      <point x="457.3071428571429" y="607.2053571428571"/>
      <point x="457.3071428571429" y="616.6964285714286" type="curve" smooth="yes"/>
      <point x="457.3071428571429" y="638.5267857142857"/>
      <point x="439.4767857142857" y="674.1732142857143"/>
      <point x="429.4875" y="674.1732142857143" type="curve" smooth="yes"/>
      <point x="426.9892857142857" y="674.1732142857143"/>
      <point x="424.325" y="673.1732142857143"/>
      <point x="420.82678571428573" y="670.8410714285715" type="curve" smooth="yes"/>
      <point x="370.97857142857146" y="637.9964285714286"/>
      <point x="338.4875" y="599.6678571428571"/>
      <point x="282.32142857142856" y="562.6714285714286" type="curve"/>
      <point x="292.64642857142854" y="636.5196428571429"/>
      <point x="319.63928571428573" y="682.3428571428572"/>
      <point x="319.63928571428573" y="723.35" type="curve" smooth="yes"/>
      <point x="319.63928571428573" y="741.3464285714285"/>
      <point x="287.63214285714287" y="756.0"/>
      <point x="252.6642857142857" y="756.0" type="curve" smooth="yes"/>
      <point x="242.00357142857143" y="756.0"/>
      <point x="237.84107142857144" y="752.6714285714286"/>
      <point x="237.84107142857144" y="742.6785714285714" type="curve" smooth="yes"/>
      <point x="239.50892857142858" y="691.6607142857143"/>
      <point x="244.50535714285715" y="652.6642857142857"/>
      <point x="245.83392857142857" y="602.3321428571429" type="curve" smooth="yes"/>
      <point x="246.16607142857143" y="590.1660714285714"/>
      <point x="246.49821428571428" y="578.0"/>
      <point x="245.83035714285714" y="564.0" type="curve"/>
      <point x="187.4875" y="605.9928571428571"/>
      <point x="158.82321428571427" y="639.6464285714286"/>
      <point x="106.97142857142858" y="675.9892857142858" type="curve" smooth="yes"/>
      <point x="103.30714285714285" y="678.8196428571429"/>
      <point x="100.47678571428571" y="680.1517857142857"/>
      <point x="97.64642857142857" y="680.1517857142857" type="curve" smooth="yes"/>
      <point x="87.65357142857142" y="680.1517857142857"/>
      <point x="68.16964285714286" y="642.8339285714286"/>
      <point x="68.16964285714286" y="624.0107142857142" type="curve" smooth="yes"/>
      <point x="68.16964285714286" y="614.8482142857143"/>
      <point x="71.66785714285714" y="607.1839285714286"/>
      <point x="77.83392857142857" y="602.6857142857143" type="curve" smooth="yes"/>
      <point x="110.675" y="579.0178571428571"/>
      <point x="158.66071428571428" y="573.6892857142857"/>
      <point x="228.50535714285715" y="537.1767857142858" type="curve"/>
      <point x="150.82321428571427" y="495.81964285714287"/>
      <point x="101.67142857142858" y="496.1517857142857"/>
      <point x="78.17321428571428" y="481.1517857142857" type="curve" smooth="yes"/>
      <point x="71.34285714285714" y="476.6535714285714"/>
      <point x="67.01428571428572" y="468.49107142857144"/>
      <point x="67.01428571428572" y="457.83392857142854" type="curve" smooth="yes"/>
      <point x="67.01428571428572" y="436.83392857142854"/>
      <point x="85.01428571428572" y="402.5232142857143"/>
      <point x="94.0" y="402.5232142857143" type="curve" smooth="yes"/>
      <point x="95.66428571428571" y="402.5232142857143"/>
      <point x="98.32857142857142" y="403.5232142857143"/>
      <point x="101.15892857142858" y="405.02142857142854" type="curve" smooth="yes"/>
      <point x="156.84464285714284" y="440.36785714285713"/>
      <point x="187.50178571428572" y="476.0285714285714"/>
      <point x="242.0" y="508.85535714285714" type="curve"/>
      <point x="232.50892857142858" y="417.4946428571429"/>
      <point x="204.68214285714285" y="376.675"/>
      <point x="204.68214285714285" y="351.5125" type="curve" smooth="yes"/>
      <point x="204.68214285714285" y="331.8482142857143"/>
      <point x="237.5232142857143" y="319.69642857142856"/>
    </contour>
  </outline>
</glyph>
<glyph name="plus" format="2">
  <advance width="554.9821428571429"/>
  <unicode hex="002B"/>
  <outline>
    <contour>
      <point x="276.95714285714286" y="85.16964285714286" type="curve" smooth="yes"/>
      <point x="291.6142857142857" y="85.16964285714286"/>
      <point x="297.95" y="88.50178571428572"/>
      <point x="297.95" y="99.83035714285714" type="curve" smooth="yes"/>
      <point x="297.95" y="115.80892857142857"/>
      <point x="305.62142857142857" y="222.85892857142858"/>
      <point x="310.2892857142857" y="288.02142857142854" type="curve"/>
      <point x="489.81607142857143" y="288.02142857142854" type="line" smooth="yes"/>
      <point x="508.4839285714286" y="288.02142857142854"/>
      <point x="518.9821428571429" y="309.35"/>
      <point x="518.9821428571429" y="332.66785714285714" type="curve" smooth="yes"/>
      <point x="518.9821428571429" y="343.9892857142857"/>
      <point x="516.65" y="348.8232142857143"/>
      <point x="508.98571428571427" y="348.8232142857143" type="curve" smooth="yes"/>
      <point x="312.625" y="348.8232142857143" type="line"/>
      <point x="317.29285714285714" y="409.975"/>
      <point x="326.79821428571427" y="496.34285714285716"/>
      <point x="326.79821428571427" y="505.67857142857144" type="curve" smooth="yes"/>
      <point x="326.79821428571427" y="536.3428571428572"/>
      <point x="291.6535714285714" y="543.1696428571429"/>
      <point x="272.5017857142857" y="543.1696428571429" type="curve" smooth="yes"/>
      <point x="257.84464285714284" y="543.1696428571429"/>
      <point x="251.34285714285716" y="539.5053571428572"/>
      <point x="251.34285714285716" y="528.3428571428572" type="curve" smooth="yes"/>
      <point x="251.34285714285716" y="512.3642857142858"/>
      <point x="244.50535714285715" y="414.15535714285716"/>
      <point x="240.00357142857143" y="348.8232142857143" type="curve"/>
      <point x="69.14821428571429" y="348.8232142857143" type="line" smooth="yes"/>
      <point x="51.31428571428572" y="348.8232142857143"/>
      <point x="39.982142857142854" y="329.99642857142857"/>
      <point x="39.982142857142854" y="304.1767857142857" type="curve" smooth="yes"/>
      <point x="39.982142857142854" y="292.85535714285714"/>
      <point x="42.982142857142854" y="288.02142857142854"/>
      <point x="49.97857142857143" y="288.02142857142854" type="curve" smooth="yes"/>
      <point x="237.66785714285714" y="288.02142857142854" type="line"/>
      <point x="233.0" y="227.20535714285714"/>
      <point x="222.49464285714285" y="132.83035714285714"/>
      <point x="222.49464285714285" y="122.66071428571429" type="curve" smooth="yes"/>
      <point x="222.49464285714285" y="91.83035714285714"/>
      <point x="257.80535714285713" y="85.16964285714286"/>
    </contour>
  </outline>
</glyph>
<glyph name="comma" format="2">
  <advance width="275.0"/>
  <unicode hex="002C"/>
  <outline>
    <contour>
      <point x="46.31428571428572" y="-78.0" type="curve" smooth="yes"/>
      <point x="60.801785714285714" y="-78.0"/>
      <point x="70.96785714285714" y="-74.16607142857143"/>
      <point x="79.45535714285714" y="-67.00714285714285" type="curve" smooth="yes"/>
      <point x="115.7875" y="-29.332142857142856"/>
      <point x="183.1125" y="53.8375"/>
      <point x="183.1125" y="84.8375" type="curve" smooth="yes"/>
      <point x="183.1125" y="94.33214285714286"/>
      <point x="178.44821428571427" y="105.32857142857142"/>
      <point x="168.95714285714286" y="115.98571428571428" type="curve" smooth="yes"/>
      <point x="161.46607142857144" y="123.64285714285714"/>
      <point x="147.82321428571427" y="132.95714285714286"/>
      <point x="136.83035714285714" y="132.95714285714286" type="curve" smooth="yes"/>
      <point x="131.50178571428572" y="132.95714285714286"/>
      <point x="129.8375" y="131.45892857142857"/>
      <point x="126.84107142857142" y="122.80178571428571" type="curve" smooth="yes"/>
      <point x="103.16607142857143" y="66.45178571428572"/>
      <point x="51.003571428571426" y="-28.03214285714286"/>
      <point x="37.67857142857143" y="-51.18035714285714" type="curve" smooth="yes"/>
      <point x="30.010714285714286" y="-63.18035714285714"/>
      <point x="26.84464285714286" y="-67.5125"/>
      <point x="26.84464285714286" y="-69.67857142857143" type="curve" smooth="yes"/>
      <point x="26.84464285714286" y="-72.67857142857143"/>
      <point x="36.660714285714285" y="-78.0"/>
    </contour>
  </outline>
</glyph>
<glyph name="hyphen" format="2">
  <advance width="275.0"/>
  <unicode hex="002D"/>
  <outline>
    <contour>
      <point x="16.992857142857144" y="267.35357142857146" type="curve" smooth="yes"/>
      <point x="236.50178571428572" y="267.35357142857146" type="line" smooth="yes"/>
      <point x="252.3357142857143" y="267.35357142857146"/>
      <point x="259.16607142857146" y="291.01428571428573"/>
      <point x="259.16607142857146" y="316.6607142857143" type="curve" smooth="yes"/>
      <point x="259.16607142857146" y="328.3107142857143"/>
      <point x="257.0" y="330.64285714285717"/>
      <point x="251.16964285714286" y="330.64285714285717" type="curve" smooth="yes"/>
      <point x="31.660714285714285" y="330.64285714285717" type="line" smooth="yes"/>
      <point x="15.826785714285714" y="330.64285714285717"/>
      <point x="8.996428571428572" y="305.98214285714283"/>
      <point x="8.996428571428572" y="281.3357142857143" type="curve" smooth="yes"/>
      <point x="8.996428571428572" y="269.6857142857143"/>
      <point x="11.1625" y="267.35357142857146"/>
    </contour>
  </outline>
</glyph>
<glyph name="period" format="2">
  <advance width="275.0"/>
  <unicode hex="002E"/>
  <outline>
    <contour>
      <point x="127.1625" y="0.0" type="curve" smooth="yes"/>
      <point x="158.31071428571428" y="0.0"/>
      <point x="181.95357142857142" y="19.99642857142857"/>
      <point x="181.95357142857142" y="50.13035714285714" type="curve" smooth="yes"/>
      <point x="181.95357142857142" y="85.79107142857143"/>
      <point x="164.3" y="109.43392857142857"/>
      <point x="143.49107142857142" y="109.43392857142857" type="curve" smooth="yes"/>
      <point x="121.67857142857143" y="109.43392857142857"/>
      <point x="86.7" y="82.78035714285714"/>
      <point x="86.7" y="44.964285714285715" type="curve" smooth="yes"/>
      <point x="86.7" y="13.158928571428572"/>
      <point x="101.84464285714286" y="0.0"/>
    </contour>
  </outline>
</glyph>
<glyph name="slash" format="2">
  <advance width="528.6964285714286"/>
  <unicode hex="002F"/>
  <outline>
    <contour>
      <point x="75.76607142857142" y="-34.16607142857143" type="curve" smooth="yes"/>
      <point x="85.75535714285715" y="-34.16607142857143"/>
      <point x="94.91785714285714" y="-29.332142857142856"/>
      <point x="102.91071428571428" y="-13.685714285714287" type="curve" smooth="yes"/>
      <point x="149.59285714285716" y="68.99642857142857"/>
      <point x="464.69642857142856" y="571.5517857142858"/>
      <point x="492.70714285714286" y="613.0607142857143" type="curve" smooth="yes"/>
      <point x="502.8732142857143" y="628.7214285714285"/>
      <point x="507.19464285714287" y="639.7"/>
      <point x="507.19464285714287" y="643.0285714285715" type="curve" smooth="yes"/>
      <point x="507.19464285714287" y="656.8482142857143"/>
      <point x="472.58035714285717" y="675.0"/>
      <point x="450.25892857142856" y="675.0" type="curve" smooth="yes"/>
      <point x="440.26964285714286" y="675.0"/>
      <point x="431.2732142857143" y="670.1660714285714"/>
      <point x="423.1142857142857" y="654.5196428571429" type="curve" smooth="yes"/>
      <point x="303.36785714285713" y="470.4017857142857"/>
      <point x="153.2267857142857" y="211.88392857142858"/>
      <point x="30.816071428571426" y="25.271428571428572" type="curve" smooth="yes"/>
      <point x="22.65357142857143" y="11.116071428571429"/>
      <point x="18.830357142857142" y="3.635714285714286"/>
      <point x="18.830357142857142" y="-2.0285714285714285" type="curve" smooth="yes"/>
      <point x="18.830357142857142" y="-15.848214285714285"/>
      <point x="55.105357142857144" y="-34.16607142857143"/>
    </contour>
  </outline>
</glyph>
<glyph name="zero" format="2">
  <advance width="589.1660714285714"/>
  <unicode hex="0030"/>
  <outline>
    <contour>
      <point x="275.82678571428573" y="-13.0" type="curve" smooth="yes"/>
      <point x="448.65" y="-13.0"/>
      <point x="533.3107142857143" y="134.0"/>
      <point x="533.3107142857143" y="374.0" type="curve" smooth="yes"/>
      <point x="533.3107142857143" y="562.0"/>
      <point x="446.65" y="652.0"/>
      <point x="324.65714285714284" y="652.0" type="curve" smooth="yes"/>
      <point x="150.66785714285714" y="652.0"/>
      <point x="65.84107142857142" y="506.0"/>
      <point x="65.84107142857142" y="266.0" type="curve" smooth="yes"/>
      <point x="65.84107142857142" y="78.0"/>
      <point x="152.83392857142857" y="-13.0"/>
    </contour>
    <contour>
      <point x="281.4839285714286" y="27.307142857142857" type="curve" smooth="yes"/>
      <point x="200.94642857142858" y="27.307142857142857"/>
      <point x="149.4232142857143" y="126.81607142857143"/>
      <point x="149.4232142857143" y="267.99642857142857" type="curve" smooth="yes"/>
      <point x="149.4232142857143" y="472.8482142857143"/>
      <point x="206.28214285714284" y="611.3607142857143"/>
      <point x="317.66785714285714" y="611.3607142857143" type="curve" smooth="yes"/>
      <point x="397.7035714285714" y="611.3607142857143"/>
      <point x="449.89464285714286" y="512.6857142857143"/>
      <point x="449.89464285714286" y="371.8375" type="curve" smooth="yes"/>
      <point x="449.89464285714286" y="168.65357142857144"/>
      <point x="392.8696428571429" y="27.307142857142857"/>
    </contour>
  </outline>
</glyph>
<glyph name="one" format="2">
  <advance width="419.1482142857143"/>
  <unicode hex="0031"/>
  <outline>
    <contour>
      <point x="270.625" y="-13.0" type="curve" smooth="yes"/>
      <point x="285.4375" y="-13.0"/>
      <point x="287.1017857142857" y="-9.003571428571428"/>
      <point x="287.1017857142857" y="-0.6821428571428569" type="curve" smooth="yes"/>
      <point x="287.1017857142857" y="297.4035714285714"/>
      <point x="321.1089285714286" y="603.6964285714286"/>
      <point x="321.1089285714286" y="618.3607142857143" type="curve" smooth="yes"/>
      <point x="321.1089285714286" y="641.675"/>
      <point x="275.4875" y="652.0"/>
      <point x="254.15535714285716" y="652.0" type="curve" smooth="yes"/>
      <point x="249.32857142857142" y="652.0"/>
      <point x="76.00357142857143" y="522.5089285714286"/>
      <point x="66.16964285714286" y="512.5089285714286" type="curve" smooth="yes"/>
      <point x="59.50535714285714" y="505.67857142857144"/>
      <point x="58.339285714285715" y="493.19107142857143"/>
      <point x="58.339285714285715" y="482.5339285714286" type="curve" smooth="yes"/>
      <point x="58.339285714285715" y="461.05357142857144"/>
      <point x="65.67142857142858" y="438.37857142857143"/>
      <point x="73.16964285714286" y="438.37857142857143" type="curve" smooth="yes"/>
      <point x="79.16607142857143" y="438.37857142857143"/>
      <point x="157.01071428571427" y="521.7285714285714"/>
      <point x="229.03571428571428" y="567.2410714285714" type="curve"/>
      <point x="226.5375" y="455.4214285714286"/>
      <point x="198.02857142857144" y="33.971428571428575"/>
      <point x="198.02857142857144" y="21.473214285714285" type="curve" smooth="yes"/>
      <point x="198.02857142857144" y="-1.8410714285714285"/>
      <point x="241.65" y="-13.0"/>
    </contour>
  </outline>
</glyph>
<glyph name="two" format="2">
  <advance width="549.1589285714285"/>
  <unicode hex="0032"/>
  <outline>
    <contour>
      <point x="75.4875" y="0.0" type="curve" smooth="yes"/>
      <point x="436.63928571428573" y="0.0" type="line" smooth="yes"/>
      <point x="451.4732142857143" y="0.0"/>
      <point x="461.4660714285714" y="24.169642857142858"/>
      <point x="461.4660714285714" y="50.48392857142857" type="curve" smooth="yes"/>
      <point x="461.4660714285714" y="63.29642857142857"/>
      <point x="459.4660714285714" y="71.28928571428571"/>
      <point x="454.96785714285716" y="71.28928571428571" type="curve" smooth="yes"/>
      <point x="451.9714285714286" y="71.28928571428571"/>
      <point x="326.2785714285714" y="55.7875"/>
      <point x="226.08035714285714" y="55.7875" type="curve" smooth="yes"/>
      <point x="198.24285714285713" y="55.7875"/>
      <point x="176.0767857142857" y="55.7875"/>
      <point x="154.74464285714285" y="55.7875" type="curve"/>
      <point x="208.90714285714284" y="118.79107142857143"/>
      <point x="293.2607142857143" y="205.48035714285714"/>
      <point x="362.6142857142857" y="291.0" type="curve" smooth="yes"/>
      <point x="417.45892857142854" y="359.50892857142856"/>
      <point x="454.13392857142856" y="427.8482142857143"/>
      <point x="454.13392857142856" y="500.5160714285714" type="curve" smooth="yes"/>
      <point x="454.13392857142856" y="615.6642857142857"/>
      <point x="364.98571428571427" y="652.0"/>
      <point x="277.0" y="652.0" type="curve" smooth="yes"/>
      <point x="207.34285714285716" y="652.0"/>
      <point x="144.50535714285715" y="629.9928571428571"/>
      <point x="113.67857142857143" y="606.8303571428571" type="curve" smooth="yes"/>
      <point x="98.34642857142858" y="595.4982142857143"/>
      <point x="94.34642857142858" y="587.0035714285714"/>
      <point x="94.34642857142858" y="571.5053571428572" type="curve" smooth="yes"/>
      <point x="94.34642857142858" y="539.3642857142858"/>
      <point x="100.8375" y="531.3678571428571"/>
      <point x="110.33214285714286" y="531.3678571428571" type="curve" smooth="yes"/>
      <point x="124.0" y="531.3678571428571"/>
      <point x="167.8375" y="599.3821428571429"/>
      <point x="253.8517857142857" y="599.3821428571429" type="curve" smooth="yes"/>
      <point x="308.7035714285714" y="599.3821428571429"/>
      <point x="362.38928571428573" y="568.0464285714286"/>
      <point x="362.38928571428573" y="491.69642857142856" type="curve" smooth="yes"/>
      <point x="362.38928571428573" y="440.18035714285713"/>
      <point x="343.54821428571427" y="391.5053571428571"/>
      <point x="305.20178571428573" y="337.16607142857146" type="curve" smooth="yes"/>
      <point x="254.8517857142857" y="265.99285714285713"/>
      <point x="155.15178571428572" y="151.45535714285714"/>
      <point x="68.98928571428571" y="66.625" type="curve" smooth="yes"/>
      <point x="58.49464285714286" y="57.13035714285714"/>
      <point x="56.1625" y="50.46964285714286"/>
      <point x="56.1625" y="42.30714285714286" type="curve" smooth="yes"/>
      <point x="56.1625" y="30.144642857142856"/>
      <point x="66.66071428571429" y="0.0"/>
    </contour>
  </outline>
</glyph>
<glyph name="three" format="2">
  <advance width="537.3071428571428"/>
  <unicode hex="0033"/>
  <outline>
    <contour>
      <point x="218.32142857142858" y="-13.0" type="curve" smooth="yes"/>
      <point x="355.11607142857144" y="-13.0"/>
      <point x="453.9535714285714" y="68.31428571428572"/>
      <point x="453.9535714285714" y="187.8267857142857" type="curve" smooth="yes"/>
      <point x="453.9535714285714" y="275.325"/>
      <point x="394.61785714285713" y="337.6607142857143"/>
      <point x="313.4625" y="352.3285714285714" type="curve"/>
      <point x="348.29285714285714" y="364.16607142857146"/>
      <point x="438.4482142857143" y="422.00357142857143"/>
      <point x="438.4482142857143" y="510.0" type="curve" smooth="yes"/>
      <point x="438.4482142857143" y="613.3428571428572"/>
      <point x="353.10535714285714" y="652.0"/>
      <point x="256.975" y="652.0" type="curve" smooth="yes"/>
      <point x="192.32142857142858" y="652.0"/>
      <point x="141.65714285714284" y="639.0"/>
      <point x="109.49821428571428" y="619.3357142857143" type="curve" smooth="yes"/>
      <point x="93.0" y="609.3357142857143"/>
      <point x="83.33214285714286" y="596.8375"/>
      <point x="83.33214285714286" y="579.8446428571428" type="curve" smooth="yes"/>
      <point x="83.33214285714286" y="548.5303571428572"/>
      <point x="87.83035714285714" y="544.1982142857142"/>
      <point x="96.15892857142858" y="544.1982142857142" type="curve" smooth="yes"/>
      <point x="102.82321428571429" y="544.1982142857142"/>
      <point x="118.65714285714286" y="557.0357142857143"/>
      <point x="145.99642857142857" y="574.0428571428571" type="curve" smooth="yes"/>
      <point x="174.0" y="591.3821428571429"/>
      <point x="207.16964285714286" y="602.2160714285715"/>
      <point x="241.50178571428572" y="602.2160714285715" type="curve" smooth="yes"/>
      <point x="304.8375" y="602.2160714285715"/>
      <point x="351.69642857142856" y="565.05"/>
      <point x="351.69642857142856" y="491.8517857142857" type="curve" smooth="yes"/>
      <point x="351.69642857142856" y="397.65714285714284"/>
      <point x="252.32857142857142" y="360.1625"/>
      <point x="211.5125" y="358.83392857142854" type="curve" smooth="yes"/>
      <point x="203.84821428571428" y="358.66785714285714"/>
      <point x="198.68214285714285" y="344.4982142857143"/>
      <point x="198.68214285714285" y="329.6714285714286" type="curve" smooth="yes"/>
      <point x="198.68214285714285" y="320.34285714285716"/>
      <point x="199.18035714285713" y="316.5125"/>
      <point x="202.84107142857144" y="316.5125" type="curve" smooth="yes"/>
      <point x="286.5160714285714" y="316.5125"/>
      <point x="368.8767857142857" y="281.18035714285713"/>
      <point x="368.8767857142857" y="170.48035714285714" type="curve" smooth="yes"/>
      <point x="368.8767857142857" y="84.80535714285715"/>
      <point x="302.36071428571427" y="37.285714285714285"/>
      <point x="214.0" y="37.285714285714285" type="curve" smooth="yes"/>
      <point x="123.48392857142858" y="37.285714285714285"/>
      <point x="75.65714285714286" y="93.30357142857143"/>
      <point x="59.48392857142857" y="93.30357142857143" type="curve" smooth="yes"/>
      <point x="48.4875" y="93.30357142857143"/>
      <point x="46.989285714285714" y="85.30357142857143"/>
      <point x="46.989285714285714" y="66.99642857142857" type="curve" smooth="yes"/>
      <point x="46.989285714285714" y="40.16607142857143"/>
      <point x="53.48392857142857" y="28.667857142857144"/>
      <point x="69.98214285714286" y="18.501785714285713" type="curve" smooth="yes"/>
      <point x="100.98214285714286" y="-0.16607142857142856"/>
      <point x="140.1482142857143" y="-13.0"/>
    </contour>
  </outline>
</glyph>
<glyph name="four" format="2">
  <advance width="568.3392857142857"/>
  <unicode hex="0034"/>
  <outline>
    <contour>
      <point x="353.13392857142856" y="-13.0" type="curve" smooth="yes"/>
      <point x="366.2785714285714" y="-13.0"/>
      <point x="367.61071428571427" y="-9.003571428571428"/>
      <point x="367.61071428571427" y="-0.6821428571428569" type="curve" smooth="yes"/>
      <point x="367.61071428571427" y="60.65714285714286"/>
      <point x="368.7767857142857" y="117.4875"/>
      <point x="374.78035714285716" y="201.02857142857144" type="curve"/>
      <point x="526.6785714285714" y="201.02857142857144" type="line" smooth="yes"/>
      <point x="543.8410714285715" y="201.02857142857144"/>
      <point x="549.6785714285714" y="229.0142857142857"/>
      <point x="549.6785714285714" y="248.0142857142857" type="curve" smooth="yes"/>
      <point x="549.6785714285714" y="258.3357142857143"/>
      <point x="546.6785714285714" y="261.0"/>
      <point x="541.6785714285714" y="261.0" type="curve" smooth="yes"/>
      <point x="525.675" y="261.0"/>
      <point x="469.14464285714286" y="256.33214285714286"/>
      <point x="377.94642857142856" y="253.6642857142857" type="curve"/>
      <point x="383.94642857142856" y="367.80535714285713"/>
      <point x="402.45178571428573" y="604.5303571428572"/>
      <point x="402.45178571428573" y="619.1946428571429" type="curve" smooth="yes"/>
      <point x="402.45178571428573" y="642.5089285714286"/>
      <point x="366.1589285714286" y="652.0"/>
      <point x="340.18035714285713" y="652.0" type="curve" smooth="yes"/>
      <point x="330.51964285714286" y="652.0"/>
      <point x="325.35357142857146" y="649.0"/>
      <point x="320.025" y="642.3392857142857" type="curve" smooth="yes"/>
      <point x="276.0107142857143" y="583.3178571428572"/>
      <point x="57.34285714285714" y="294.84464285714284"/>
      <point x="43.675" y="262.6714285714286" type="curve" smooth="yes"/>
      <point x="41.34285714285714" y="257.3392857142857"/>
      <point x="41.176785714285714" y="253.01071428571427"/>
      <point x="41.176785714285714" y="249.18035714285713" type="curve" smooth="yes"/>
      <point x="41.176785714285714" y="232.8625"/>
      <point x="55.84464285714286" y="201.02857142857144"/>
      <point x="75.5125" y="201.02857142857144" type="curve" smooth="yes"/>
      <point x="296.70714285714286" y="201.02857142857144" type="line"/>
      <point x="290.5375" y="113.31071428571428"/>
      <point x="283.7035714285714" y="44.8125"/>
      <point x="283.7035714285714" y="21.473214285714285" type="curve" smooth="yes"/>
      <point x="283.7035714285714" y="-1.8410714285714285"/>
      <point x="324.1589285714286" y="-13.0"/>
    </contour>
    <contour>
      <point x="98.31071428571428" y="252.0" type="line"/>
      <point x="131.99285714285713" y="309.19107142857143"/>
      <point x="284.2160714285714" y="518.7571428571429"/>
      <point x="317.8803571428571" y="557.7571428571429" type="curve"/>
      <point x="317.7142857142857" y="519.4285714285714"/>
      <point x="304.54107142857146" y="349.18392857142857"/>
      <point x="299.54107142857146" y="252.0" type="curve"/>
    </contour>
  </outline>
</glyph>
<glyph name="five" format="2">
  <advance width="547.5053571428572"/>
  <unicode hex="0035"/>
  <outline>
    <contour>
      <point x="238.3357142857143" y="-13.0" type="curve" smooth="yes"/>
      <point x="355.4982142857143" y="-13.0"/>
      <point x="464.4732142857143" y="61.18035714285714"/>
      <point x="464.4732142857143" y="197.99285714285713" type="curve" smooth="yes"/>
      <point x="464.4732142857143" y="323.1589285714286"/>
      <point x="387.1375" y="386.1589285714286"/>
      <point x="232.31071428571428" y="386.1589285714286" type="curve" smooth="yes"/>
      <point x="217.97857142857143" y="386.1589285714286"/>
      <point x="195.14107142857142" y="385.99285714285713"/>
      <point x="179.97142857142856" y="385.6607142857143" type="curve"/>
      <point x="200.64642857142857" y="571.2232142857143" type="line"/>
      <point x="433.99642857142857" y="571.2232142857143" type="line" smooth="yes"/>
      <point x="453.15535714285716" y="571.2232142857143"/>
      <point x="460.64642857142854" y="594.5553571428571"/>
      <point x="460.64642857142854" y="624.3535714285714" type="curve" smooth="yes"/>
      <point x="460.64642857142854" y="636.0071428571429"/>
      <point x="457.1482142857143" y="639.0"/>
      <point x="450.49107142857144" y="639.0" type="curve" smooth="yes"/>
      <point x="145.68571428571428" y="639.0" type="line"/>
      <point x="110.1875" y="322.5339285714286" type="line"/>
      <point x="135.35714285714286" y="326.20178571428573"/>
      <point x="180.69285714285715" y="329.20178571428573"/>
      <point x="205.3642857142857" y="329.20178571428573" type="curve" smooth="yes"/>
      <point x="329.55535714285713" y="329.20178571428573"/>
      <point x="381.8982142857143" y="263.0107142857143"/>
      <point x="381.8982142857143" y="190.49821428571428" type="curve" smooth="yes"/>
      <point x="381.8982142857143" y="97.98214285714286"/>
      <point x="322.5517857142857" y="38.11964285714286"/>
      <point x="233.35" y="38.11964285714286" type="curve" smooth="yes"/>
      <point x="141.84464285714284" y="38.11964285714286"/>
      <point x="104.50178571428572" y="89.13392857142857"/>
      <point x="89.16607142857143" y="89.13392857142857" type="curve" smooth="yes"/>
      <point x="79.8375" y="89.13392857142857"/>
      <point x="77.34285714285714" y="83.63571428571429"/>
      <point x="77.34285714285714" y="59.325" type="curve" smooth="yes"/>
      <point x="77.34285714285714" y="39.332142857142856"/>
      <point x="83.16964285714286" y="26.833928571428572"/>
      <point x="96.0" y="16.0" type="curve" smooth="yes"/>
      <point x="110.31785714285715" y="5.173214285714286"/>
      <point x="150.48392857142858" y="-13.0"/>
    </contour>
  </outline>
</glyph>
<glyph name="six" format="2">
  <advance width="564.1517857142857"/>
  <unicode hex="0036"/>
  <outline>
    <contour>
      <point x="279.81607142857143" y="-13.0" type="curve" smooth="yes"/>
      <point x="424.8017857142857" y="-13.0"/>
      <point x="508.29285714285714" y="100.18035714285715"/>
      <point x="508.29285714285714" y="221.0" type="curve" smooth="yes"/>
      <point x="508.29285714285714" y="336.63214285714287"/>
      <point x="438.98214285714283" y="418.16607142857146"/>
      <point x="302.1303571428571" y="418.16607142857146" type="curve" smooth="yes"/>
      <point x="223.4375" y="418.16607142857146"/>
      <point x="171.0875" y="382.3107142857143"/>
      <point x="153.74821428571428" y="365.46964285714284" type="curve"/>
      <point x="192.94285714285715" y="543.0678571428572"/>
      <point x="306.4767857142857" y="605.5339285714285"/>
      <point x="418.80892857142857" y="605.5339285714285" type="curve" smooth="yes"/>
      <point x="426.4732142857143" y="605.5339285714285"/>
      <point x="428.80535714285713" y="610.8625"/>
      <point x="428.80535714285713" y="617.6892857142857" type="curve" smooth="yes"/>
      <point x="428.80535714285713" y="634.0035714285714"/>
      <point x="416.9714285714286" y="652.0"/>
      <point x="384.98571428571427" y="652.0" type="curve" smooth="yes"/>
      <point x="250.6357142857143" y="652.0"/>
      <point x="62.50535714285714" y="532.1517857142857"/>
      <point x="62.50535714285714" y="243.98928571428573" type="curve" smooth="yes"/>
      <point x="62.50535714285714" y="90.0"/>
      <point x="127.33214285714286" y="-13.0"/>
    </contour>
    <contour>
      <point x="285.1482142857143" y="29.14107142857143" type="curve" smooth="yes"/>
      <point x="171.93214285714285" y="29.14107142857143"/>
      <point x="146.0875" y="145.49107142857142"/>
      <point x="146.0875" y="231.8375" type="curve" smooth="yes"/>
      <point x="146.0875" y="244.50535714285715"/>
      <point x="146.92142857142858" y="263.5053571428571"/>
      <point x="148.75535714285715" y="269.6714285714286" type="curve" smooth="yes"/>
      <point x="166.59642857142856" y="335.01428571428573"/>
      <point x="235.13035714285715" y="375.8589285714286"/>
      <point x="300.32142857142856" y="375.8589285714286" type="curve" smooth="yes"/>
      <point x="363.5160714285714" y="375.8589285714286"/>
      <point x="424.8767857142857" y="332.51964285714286"/>
      <point x="424.8767857142857" y="217.50178571428572" type="curve" smooth="yes"/>
      <point x="424.8767857142857" y="94.65"/>
      <point x="357.8482142857143" y="29.14107142857143"/>
    </contour>
  </outline>
</glyph>
<glyph name="seven" format="2">
  <advance width="518.3392857142857"/>
  <unicode hex="0037"/>
  <outline>
    <contour>
      <point x="137.80892857142857" y="-13.0" type="curve" smooth="yes"/>
      <point x="154.79464285714286" y="-13.0"/>
      <point x="167.7875" y="-11.0"/>
      <point x="174.11607142857142" y="-0.8410714285714285" type="curve" smooth="yes"/>
      <point x="280.3" y="152.00357142857143"/>
      <point x="421.1303571428571" y="459.0285714285714"/>
      <point x="458.4839285714286" y="538.8767857142857" type="curve" smooth="yes"/>
      <point x="466.32142857142856" y="555.0464285714286"/>
      <point x="476.49107142857144" y="576.5339285714285"/>
      <point x="476.49107142857144" y="584.1910714285714" type="curve" smooth="yes"/>
      <point x="476.49107142857144" y="615.0035714285714"/>
      <point x="465.32142857142856" y="639.0"/>
      <point x="457.83035714285717" y="639.0" type="curve" smooth="yes"/>
      <point x="104.8125" y="639.0" type="line" smooth="yes"/>
      <point x="89.99285714285715" y="639.0"/>
      <point x="80.67142857142858" y="610.3392857142857"/>
      <point x="80.67142857142858" y="569.8982142857143" type="curve" smooth="yes"/>
      <point x="80.67142857142858" y="556.2517857142857"/>
      <point x="82.50178571428572" y="552.2517857142857"/>
      <point x="89.32857142857142" y="552.2517857142857" type="curve" smooth="yes"/>
      <point x="99.32857142857142" y="552.2517857142857"/>
      <point x="190.64285714285714" y="565.2553571428572"/>
      <point x="397.55535714285713" y="565.2553571428572" type="curve"/>
      <point x="360.7142857142857" y="454.4142857142857"/>
      <point x="195.0142857142857" y="129.49107142857142"/>
      <point x="100.00357142857143" y="18.148214285714285" type="curve" smooth="yes"/>
      <point x="96.17321428571428" y="13.317857142857143"/>
      <point x="90.8375" y="7.985714285714286"/>
      <point x="90.8375" y="3.8232142857142857" type="curve" smooth="yes"/>
      <point x="90.8375" y="-6.173214285714286"/>
      <point x="116.15892857142858" y="-13.0"/>
    </contour>
  </outline>
</glyph>
<glyph name="eight" format="2">
  <advance width="578.6714285714286"/>
  <unicode hex="0038"/>
  <outline>
    <contour>
      <point x="261.5053571428571" y="-13.0" type="curve" smooth="yes"/>
      <point x="418.48035714285714" y="-13.0"/>
      <point x="497.8125" y="81.325"/>
      <point x="497.8125" y="181.15535714285716" type="curve" smooth="yes"/>
      <point x="497.8125" y="242.98214285714286"/>
      <point x="473.65714285714284" y="289.6357142857143"/>
      <point x="369.9607142857143" y="345.65" type="curve"/>
      <point x="438.4625" y="374.15535714285716"/>
      <point x="493.97857142857146" y="432.1589285714286"/>
      <point x="493.97857142857146" y="509.34285714285716" type="curve" smooth="yes"/>
      <point x="493.97857142857146" y="594.0178571428571"/>
      <point x="420.4625" y="652.0"/>
      <point x="307.83392857142854" y="652.0" type="curve" smooth="yes"/>
      <point x="210.20535714285714" y="652.0"/>
      <point x="109.69285714285715" y="605.2017857142857"/>
      <point x="109.69285714285715" y="492.8589285714286" type="curve" smooth="yes"/>
      <point x="109.69285714285715" y="424.85535714285714"/>
      <point x="151.5375" y="368.35714285714283"/>
      <point x="220.5482142857143" y="330.1875" type="curve"/>
      <point x="122.19107142857143" y="293.8517857142857"/>
      <point x="67.50892857142857" y="236.18392857142857"/>
      <point x="67.50892857142857" y="151.6642857142857" type="curve" smooth="yes"/>
      <point x="67.50892857142857" y="65.66071428571429"/>
      <point x="134.35" y="-13.0"/>
    </contour>
    <contour>
      <point x="275.3392857142857" y="29.975" type="curve" smooth="yes"/>
      <point x="174.7982142857143" y="29.975"/>
      <point x="141.12678571428572" y="102.33928571428571"/>
      <point x="141.12678571428572" y="155.50535714285715" type="curve" smooth="yes"/>
      <point x="141.12678571428572" y="237.87321428571428"/>
      <point x="205.66071428571428" y="281.2089285714286"/>
      <point x="268.35714285714283" y="306.54107142857146" type="curve"/>
      <point x="296.1589285714286" y="290.0642857142857"/>
      <point x="416.3964285714286" y="257.40714285714284"/>
      <point x="416.3964285714286" y="148.1875" type="curve" smooth="yes"/>
      <point x="416.3964285714286" y="58.982142857142854"/>
      <point x="343.1982142857143" y="29.975"/>
    </contour>
    <contour>
      <point x="322.8125" y="366.9642857142857" type="curve"/>
      <point x="243.96785714285716" y="405.13392857142856"/>
      <point x="191.78392857142856" y="442.46964285714284"/>
      <point x="191.78392857142856" y="510.8232142857143" type="curve" smooth="yes"/>
      <point x="191.78392857142856" y="582.8517857142857"/>
      <point x="249.4767857142857" y="611.3607142857143"/>
      <point x="306.4946428571429" y="611.3607142857143" type="curve" smooth="yes"/>
      <point x="370.1767857142857" y="611.3607142857143"/>
      <point x="423.36071428571427" y="570.6821428571428"/>
      <point x="423.36071428571427" y="509.34285714285716" type="curve" smooth="yes"/>
      <point x="423.36071428571427" y="454.82678571428573"/>
      <point x="386.5125" y="405.14464285714286"/>
    </contour>
  </outline>
</glyph>
<glyph name="nine" format="2">
  <advance width="543.3214285714286"/>
  <unicode hex="0039"/>
  <outline>
    <contour>
      <point x="170.8125" y="-13.0" type="curve" smooth="yes"/>
      <point x="305.1625" y="-13.0"/>
      <point x="493.29285714285714" y="106.84821428571429"/>
      <point x="493.29285714285714" y="395.0107142857143" type="curve" smooth="yes"/>
      <point x="493.29285714285714" y="549.0"/>
      <point x="428.4660714285714" y="652.0"/>
      <point x="275.98214285714283" y="652.0" type="curve" smooth="yes"/>
      <point x="130.99642857142857" y="652.0"/>
      <point x="47.50535714285714" y="538.8196428571429"/>
      <point x="47.50535714285714" y="418.0" type="curve" smooth="yes"/>
      <point x="47.50535714285714" y="302.36785714285713"/>
      <point x="116.81607142857143" y="220.83392857142857"/>
      <point x="253.66785714285714" y="220.83392857142857" type="curve" smooth="yes"/>
      <point x="332.36071428571427" y="220.83392857142857"/>
      <point x="384.7107142857143" y="256.6892857142857"/>
      <point x="402.05" y="273.53035714285716" type="curve"/>
      <point x="362.85535714285714" y="95.93214285714285"/>
      <point x="249.32142857142858" y="33.466071428571425"/>
      <point x="136.98928571428573" y="33.466071428571425" type="curve" smooth="yes"/>
      <point x="129.325" y="33.466071428571425"/>
      <point x="126.99285714285715" y="28.1375"/>
      <point x="126.99285714285715" y="21.310714285714283" type="curve" smooth="yes"/>
      <point x="126.99285714285715" y="4.996428571428572"/>
      <point x="138.8267857142857" y="-13.0"/>
    </contour>
    <contour>
      <point x="255.4767857142857" y="262.80892857142857" type="curve" smooth="yes"/>
      <point x="192.28214285714284" y="262.80892857142857"/>
      <point x="130.92142857142858" y="306.1482142857143"/>
      <point x="130.92142857142858" y="421.16607142857146" type="curve" smooth="yes"/>
      <point x="130.92142857142858" y="544.0178571428571"/>
      <point x="197.95" y="609.5267857142857"/>
      <point x="270.65" y="609.5267857142857" type="curve" smooth="yes"/>
      <point x="383.86607142857144" y="609.5267857142857"/>
      <point x="409.7107142857143" y="493.1767857142857"/>
      <point x="409.7107142857143" y="406.83035714285717" type="curve" smooth="yes"/>
      <point x="409.7107142857143" y="394.3285714285714"/>
      <point x="408.8767857142857" y="374.83035714285717"/>
      <point x="407.04285714285714" y="368.99642857142857" type="curve" smooth="yes"/>
      <point x="389.0357142857143" y="303.6535714285714"/>
      <point x="320.66785714285714" y="262.80892857142857"/>
    </contour>
  </outline>
</glyph>
<glyph name="colon" format="2">
  <advance width="275.0"/>
  <unicode hex="003A"/>
  <outline>
    <contour>
      <point x="116.97857142857143" y="49.65535714285714" type="curve" smooth="yes"/>
      <point x="147.13035714285715" y="49.65535714285714"/>
      <point x="171.26785714285714" y="72.64107142857142"/>
      <point x="172.1017857142857" y="99.61964285714285" type="curve" smooth="yes"/>
      <point x="173.76964285714286" y="139.26607142857142"/>
      <point x="152.7875" y="157.2625"/>
      <point x="133.30714285714285" y="157.2625" type="curve" smooth="yes"/>
      <point x="110.49821428571428" y="157.2625"/>
      <point x="76.84821428571429" y="134.0964285714286"/>
      <point x="76.84821428571429" y="94.78571428571428" type="curve" smooth="yes"/>
      <point x="76.84821428571429" y="67.79642857142858"/>
      <point x="89.49821428571428" y="49.65535714285714"/>
    </contour>
    <contour>
      <point x="153.0142857142857" y="332.57142857142856" type="curve" smooth="yes"/>
      <point x="176.65714285714284" y="332.57142857142856"/>
      <point x="210.30714285714285" y="355.7375"/>
      <point x="210.30714285714285" y="395.04821428571427" type="curve" smooth="yes"/>
      <point x="210.30714285714285" y="422.0375"/>
      <point x="196.82321428571427" y="440.17857142857144"/>
      <point x="170.17678571428573" y="440.17857142857144" type="curve" smooth="yes"/>
      <point x="139.19107142857143" y="440.17857142857144"/>
      <point x="115.05357142857143" y="417.1928571428571"/>
      <point x="115.05357142857143" y="390.04821428571427" type="curve" smooth="yes"/>
      <point x="115.05357142857143" y="350.5678571428572"/>
      <point x="134.36785714285713" y="332.57142857142856"/>
    </contour>
  </outline>
</glyph>
<glyph name="semicolon" format="2">
  <advance width="279.81964285714287"/>
  <unicode hex="003B"/>
  <outline>
    <contour>
      <point x="160.99285714285713" y="382.39285714285717" type="curve" smooth="yes"/>
      <point x="182.80535714285713" y="382.39285714285717"/>
      <point x="217.78392857142856" y="408.7142857142857"/>
      <point x="217.78392857142856" y="445.7" type="curve" smooth="yes"/>
      <point x="217.78392857142856" y="477.00714285714287"/>
      <point x="202.6392857142857" y="490.0"/>
      <point x="177.32142857142858" y="490.0" type="curve" smooth="yes"/>
      <point x="145.33928571428572" y="490.0"/>
      <point x="122.53035714285714" y="470.16964285714283"/>
      <point x="122.53035714285714" y="440.86607142857144" type="curve" smooth="yes"/>
      <point x="122.53035714285714" y="405.5375"/>
      <point x="140.18392857142857" y="382.39285714285717"/>
    </contour>
    <contour>
      <point x="46.31428571428572" y="-78.16607142857143" type="curve" smooth="yes"/>
      <point x="60.801785714285714" y="-78.16607142857143"/>
      <point x="70.96785714285714" y="-74.33214285714286"/>
      <point x="79.45535714285714" y="-67.17321428571428" type="curve" smooth="yes"/>
      <point x="115.7875" y="-29.498214285714287"/>
      <point x="183.1125" y="53.67142857142857"/>
      <point x="183.1125" y="84.67142857142858" type="curve" smooth="yes"/>
      <point x="183.1125" y="94.16607142857143"/>
      <point x="178.44821428571427" y="105.1625"/>
      <point x="168.95714285714286" y="115.81964285714285" type="curve" smooth="yes"/>
      <point x="161.46607142857144" y="123.47678571428571"/>
      <point x="147.82321428571427" y="132.79107142857143"/>
      <point x="136.83035714285714" y="132.79107142857143" type="curve" smooth="yes"/>
      <point x="131.50178571428572" y="132.79107142857143"/>
      <point x="129.8375" y="131.29285714285714"/>
      <point x="126.84107142857142" y="122.63571428571429" type="curve" smooth="yes"/>
      <point x="103.16607142857143" y="66.28571428571428"/>
      <point x="51.003571428571426" y="-28.198214285714286"/>
      <point x="37.67857142857143" y="-51.346428571428575" type="curve" smooth="yes"/>
      <point x="30.010714285714286" y="-63.346428571428575"/>
      <point x="26.84464285714286" y="-67.67857142857143"/>
      <point x="26.84464285714286" y="-69.84464285714286" type="curve" smooth="yes"/>
      <point x="26.84464285714286" y="-72.84464285714286"/>
      <point x="36.660714285714285" y="-78.16607142857143"/>
    </contour>
  </outline>
</glyph>
<glyph name="less" format="2">
  <advance width="540.0"/>
  <unicode hex="003C"/>
  <outline>
    <contour>
      <point x="429.00714285714287" y="111.51964285714286" type="curve" smooth="yes"/>
      <point x="440.50892857142856" y="111.51964285714286"/>
      <point x="441.5053571428571" y="129.50892857142858"/>
      <point x="441.5053571428571" y="149.16964285714286" type="curve" smooth="yes"/>
      <point x="441.5053571428571" y="157.65714285714284"/>
      <point x="440.675" y="165.81607142857143"/>
      <point x="423.02142857142854" y="174.4767857142857" type="curve" smooth="yes"/>
      <point x="150.93214285714285" y="301.6857142857143" type="line"/>
      <point x="464.67857142857144" y="433.05357142857144" type="line" smooth="yes"/>
      <point x="484.00714285714287" y="441.5517857142857"/>
      <point x="484.83392857142854" y="468.2160714285714"/>
      <point x="484.83392857142854" y="486.16964285714283" type="curve" smooth="yes"/>
      <point x="484.83392857142854" y="500.64642857142854"/>
      <point x="480.8375" y="511.97857142857146"/>
      <point x="475.17321428571427" y="511.97857142857146" type="curve" smooth="yes"/>
      <point x="470.675" y="511.97857142857146"/>
      <point x="463.1767857142857" y="510.64642857142854"/>
      <point x="449.5125" y="504.48035714285714" type="curve" smooth="yes"/>
      <point x="96.675" y="351.14464285714286" type="line" smooth="yes"/>
      <point x="82.84464285714286" y="344.8125"/>
      <point x="74.84464285714286" y="335.65"/>
      <point x="74.84464285714286" y="321.65714285714284" type="curve" smooth="yes"/>
      <point x="74.84464285714286" y="290.4982142857143"/>
      <point x="78.34285714285714" y="275.51964285714286"/>
      <point x="95.50535714285714" y="267.02142857142854" type="curve" smooth="yes"/>
      <point x="409.00714285714287" y="119.35357142857143" type="line" smooth="yes"/>
      <point x="422.00714285714287" y="113.35357142857143"/>
      <point x="425.00714285714287" y="111.51964285714286"/>
    </contour>
  </outline>
</glyph>
<glyph name="equal" format="2">
  <advance width="551.6607142857143"/>
  <unicode hex="003D"/>
  <outline>
    <contour>
      <point x="164.7785714285714" y="395.9357142857143" type="curve" smooth="yes"/>
      <point x="391.51428571428573" y="395.9357142857143" type="line" smooth="yes"/>
      <point x="402.36607142857144" y="395.9357142857143"/>
      <point x="406.0446428571429" y="411.30357142857144"/>
      <point x="406.0446428571429" y="419.8482142857143" type="curve" smooth="yes"/>
      <point x="406.0446428571429" y="420.54107142857146"/>
      <point x="404.3732142857143" y="420.7107142857143"/>
      <point x="401.8642857142857" y="420.7107142857143" type="curve" smooth="yes"/>
      <point x="175.12857142857143" y="420.7107142857143" type="line" smooth="yes"/>
      <point x="164.27678571428572" y="420.7107142857143"/>
      <point x="160.59821428571428" y="406.1767857142857"/>
      <point x="160.59821428571428" y="397.79821428571427" type="curve" smooth="yes"/>
      <point x="160.59821428571428" y="396.10535714285714"/>
      <point x="162.26964285714286" y="395.9357142857143"/>
    </contour>
    <contour>
      <point x="153.7785714285714" y="228.8125" type="curve" smooth="yes"/>
      <point x="380.51428571428573" y="228.8125" type="line" smooth="yes"/>
      <point x="391.36607142857144" y="228.8125"/>
      <point x="394.2107142857143" y="242.34642857142856"/>
      <point x="394.2107142857143" y="250.725" type="curve" smooth="yes"/>
      <point x="394.2107142857143" y="252.58392857142857"/>
      <point x="393.3732142857143" y="252.75357142857143"/>
      <point x="390.8642857142857" y="252.75357142857143" type="curve" smooth="yes"/>
      <point x="164.12857142857143" y="252.75357142857143" type="line" smooth="yes"/>
      <point x="152.44285714285715" y="252.75357142857143"/>
      <point x="149.59821428571428" y="237.21964285714284"/>
      <point x="149.59821428571428" y="229.50892857142858" type="curve" smooth="yes"/>
      <point x="149.59821428571428" y="228.81607142857143"/>
      <point x="151.26964285714286" y="228.8125"/>
    </contour>
  </outline>
</glyph>
<glyph name="greater" format="2">
  <advance width="536.6428571428571"/>
  <unicode hex="003E"/>
  <outline>
    <contour>
      <point x="76.4875" y="110.68571428571428" type="curve" smooth="yes"/>
      <point x="80.98571428571428" y="110.68571428571428"/>
      <point x="88.48392857142858" y="112.01785714285714"/>
      <point x="102.14821428571429" y="118.18392857142857" type="curve" smooth="yes"/>
      <point x="454.4875" y="271.35357142857146" type="line" smooth="yes"/>
      <point x="469.98214285714283" y="278.01785714285717"/>
      <point x="476.81607142857143" y="292.3285714285714"/>
      <point x="476.81607142857143" y="310.14464285714286" type="curve" smooth="yes"/>
      <point x="476.81607142857143" y="337.48035714285714"/>
      <point x="474.1517857142857" y="347.14464285714286"/>
      <point x="456.15535714285716" y="355.64285714285717" type="curve" smooth="yes"/>
      <point x="143.4875" y="503.3107142857143" type="line" smooth="yes"/>
      <point x="130.4875" y="509.3107142857143"/>
      <point x="126.65357142857142" y="511.14464285714286"/>
      <point x="122.65357142857142" y="511.14464285714286" type="curve" smooth="yes"/>
      <point x="111.15178571428571" y="511.14464285714286"/>
      <point x="110.15535714285714" y="493.15535714285716"/>
      <point x="110.15535714285714" y="473.4946428571429" type="curve" smooth="yes"/>
      <point x="110.15535714285714" y="465.00714285714287"/>
      <point x="110.98571428571428" y="456.8482142857143"/>
      <point x="128.6392857142857" y="449.02142857142854" type="curve" smooth="yes"/>
      <point x="400.7285714285714" y="320.97857142857146" type="line"/>
      <point x="86.98214285714286" y="189.6107142857143" type="line" smooth="yes"/>
      <point x="67.65357142857142" y="181.1125"/>
      <point x="66.82678571428572" y="151.1125"/>
      <point x="66.82678571428572" y="133.15892857142856" type="curve" smooth="yes"/>
      <point x="66.82678571428572" y="118.68214285714285"/>
      <point x="70.82321428571429" y="110.68571428571428"/>
    </contour>
  </outline>
</glyph>
<glyph name="question" format="2">
  <advance width="447.0"/>
  <unicode hex="003F"/>
  <outline>
    <contour>
      <point x="139.98928571428573" y="213.31071428571428" type="curve" smooth="yes"/>
      <point x="153.98928571428573" y="213.31071428571428"/>
      <point x="147.64285714285714" y="240.32142857142858"/>
      <point x="218.18392857142857" y="292.8517857142857" type="curve" smooth="yes"/>
      <point x="290.32142857142856" y="346.33214285714286"/>
      <point x="390.29285714285714" y="402.03214285714284"/>
      <point x="390.29285714285714" y="501.8375" type="curve" smooth="yes"/>
      <point x="390.29285714285714" y="544.0071428571429"/>
      <point x="376.4625" y="577.3392857142857"/>
      <point x="354.79821428571427" y="601.1696428571429" type="curve" smooth="yes"/>
      <point x="320.9714285714286" y="638.3285714285714"/>
      <point x="264.6535714285714" y="652.0"/>
      <point x="206.4875" y="652.0" type="curve" smooth="yes"/>
      <point x="144.1482142857143" y="652.0"/>
      <point x="76.81964285714285" y="628.8267857142857"/>
      <point x="44.830357142857146" y="586.4839285714286" type="curve" smooth="yes"/>
      <point x="39.675" y="581.8232142857142"/>
      <point x="36.675" y="575.6642857142857"/>
      <point x="36.675" y="565.8375" type="curve" smooth="yes"/>
      <point x="36.675" y="540.0214285714286"/>
      <point x="44.339285714285715" y="524.6892857142857"/>
      <point x="53.667857142857144" y="524.6892857142857" type="curve" smooth="yes"/>
      <point x="56.83392857142857" y="524.6892857142857"/>
      <point x="65.16964285714286" y="534.8625"/>
      <point x="82.00714285714285" y="552.5375" type="curve" smooth="yes"/>
      <point x="105.50178571428572" y="575.375"/>
      <point x="147.8375" y="601.7142857142857"/>
      <point x="211.85535714285714" y="601.7142857142857" type="curve" smooth="yes"/>
      <point x="272.38214285714287" y="601.7142857142857"/>
      <point x="303.8910714285714" y="556.5267857142857"/>
      <point x="303.8910714285714" y="503.0107142857143" type="curve" smooth="yes"/>
      <point x="303.8910714285714" y="431.8125"/>
      <point x="228.68214285714285" y="372.63214285714287"/>
      <point x="168.8375" y="324.4660714285714" type="curve" smooth="yes"/>
      <point x="145.84107142857144" y="305.1410714285714"/>
      <point x="125.83035714285714" y="278.975"/>
      <point x="125.83035714285714" y="248.97142857142856" type="curve" smooth="yes"/>
      <point x="125.83035714285714" y="233.97857142857143"/>
      <point x="127.98928571428571" y="213.31071428571428"/>
    </contour>
    <contour>
      <point x="150.48035714285714" y="-0.16607142857142856" type="curve" smooth="yes"/>
      <point x="181.62857142857143" y="-0.16607142857142856"/>
      <point x="205.27142857142857" y="19.664285714285715"/>
      <point x="205.27142857142857" y="48.96785714285714" type="curve" smooth="yes"/>
      <point x="205.27142857142857" y="84.29642857142858"/>
      <point x="187.61785714285713" y="107.44107142857143"/>
      <point x="166.80892857142857" y="107.44107142857143" type="curve" smooth="yes"/>
      <point x="144.99642857142857" y="107.44107142857143"/>
      <point x="110.01785714285714" y="81.11964285714285"/>
      <point x="110.01785714285714" y="43.96785714285714" type="curve" smooth="yes"/>
      <point x="110.01785714285714" y="12.826785714285714"/>
      <point x="124.32857142857142" y="-0.16607142857142856"/>
    </contour>
  </outline>
</glyph>
<glyph name="at" format="2">
  <advance width="822.6035714285714"/>
  <unicode hex="0040"/>
  <outline>
    <contour>
      <point x="134.6392857142857" y="-129.50535714285715" type="curve" smooth="yes"/>
      <point x="141.30357142857142" y="-129.50535714285715"/>
      <point x="145.8017857142857" y="-127.17321428571428"/>
      <point x="145.8017857142857" y="-122.84107142857142" type="curve" smooth="yes"/>
      <point x="145.8017857142857" y="-116.84107142857142"/>
      <point x="139.96785714285716" y="-101.67142857142858"/>
      <point x="136.6357142857143" y="-91.17678571428571" type="curve" smooth="yes"/>
      <point x="106.96428571428571" y="11.505357142857143"/>
      <point x="93.29642857142858" y="104.68214285714285"/>
      <point x="93.29642857142858" y="192.83392857142857" type="curve" smooth="yes"/>
      <point x="93.29642857142858" y="454.5267857142857"/>
      <point x="234.82321428571427" y="600.0214285714286"/>
      <point x="437.45178571428573" y="600.0214285714286" type="curve" smooth="yes"/>
      <point x="655.5821428571428" y="600.0214285714286"/>
      <point x="750.275" y="499.1875"/>
      <point x="750.275" y="354.98571428571427" type="curve" smooth="yes"/>
      <point x="750.275" y="245.7875"/>
      <point x="706.6" y="154.7732142857143"/>
      <point x="642.4089285714285" y="85.92142857142858" type="curve" smooth="yes"/>
      <point x="627.9107142857143" y="70.09464285714286"/>
      <point x="616.9142857142857" y="60.76607142857143"/>
      <point x="610.5821428571428" y="60.76607142857143" type="curve" smooth="yes"/>
      <point x="600.2464285714286" y="60.76607142857143"/>
      <point x="597.5785714285714" y="66.92857142857143"/>
      <point x="597.5785714285714" y="103.26071428571429" type="curve" smooth="yes"/>
      <point x="597.5785714285714" y="213.65"/>
      <point x="610.4160714285714" y="383.18035714285713"/>
      <point x="610.4160714285714" y="390.3464285714286" type="curve"/>
      <point x="615.25" y="390.3464285714286"/>
      <point x="621.0803571428571" y="401.8410714285714"/>
      <point x="621.0803571428571" y="418.16964285714283" type="curve" smooth="yes"/>
      <point x="621.0803571428571" y="424.16607142857146"/>
      <point x="619.7482142857143" y="425.0"/>
      <point x="616.5821428571428" y="426.0" type="curve" smooth="yes"/>
      <point x="533.6178571428571" y="440.99642857142857"/>
      <point x="446.10535714285714" y="448.4982142857143"/>
      <point x="421.80535714285713" y="448.4982142857143" type="curve" smooth="yes"/>
      <point x="360.65714285714284" y="448.4982142857143"/>
      <point x="308.32142857142856" y="414.0"/>
      <point x="265.6535714285714" y="356.33214285714286" type="curve" smooth="yes"/>
      <point x="221.65357142857144" y="297.16607142857146"/>
      <point x="218.81964285714287" y="120.16607142857143"/>
      <point x="218.81964285714287" y="59.975" type="curve" smooth="yes"/>
      <point x="218.81964285714287" y="40.971428571428575"/>
      <point x="219.81964285714287" y="29.30357142857143"/>
      <point x="222.65357142857144" y="21.975" type="curve" smooth="yes"/>
      <point x="226.9857142857143" y="7.328571428571428"/>
      <point x="265.7839285714286" y="-13.0"/>
      <point x="276.78035714285716" y="-13.0" type="curve" smooth="yes"/>
      <point x="329.45178571428573" y="-13.0"/>
      <point x="474.8017857142857" y="171.85892857142858"/>
      <point x="528.8303571428571" y="285.2339285714286" type="curve"/>
      <point x="522.6607142857143" y="215.1982142857143"/>
      <point x="518.1589285714285" y="105.4875"/>
      <point x="518.1589285714285" y="59.975" type="curve" smooth="yes"/>
      <point x="518.1589285714285" y="40.971428571428575"/>
      <point x="518.325" y="29.30357142857143"/>
      <point x="521.1589285714285" y="21.975" type="curve" smooth="yes"/>
      <point x="525.4910714285714" y="7.328571428571428"/>
      <point x="565.1232142857143" y="-13.0"/>
      <point x="575.2857142857143" y="-13.0" type="curve" smooth="yes"/>
      <point x="590.9535714285714" y="-13.0"/>
      <point x="619.6214285714286" y="4.166071428571429"/>
      <point x="649.1196428571428" y="35.16607142857143" type="curve" smooth="yes"/>
      <point x="736.5964285714285" y="127.98214285714286"/>
      <point x="797.0910714285715" y="242.80892857142857"/>
      <point x="797.0910714285715" y="359.80892857142857" type="curve" smooth="yes"/>
      <point x="797.0910714285715" y="500.6857142857143"/>
      <point x="715.8928571428571" y="652.0"/>
      <point x="436.61071428571427" y="652.0" type="curve" smooth="yes"/>
      <point x="176.32142857142858" y="652.0"/>
      <point x="38.830357142857146" y="469.3178571428571"/>
      <point x="38.830357142857146" y="211.81964285714287" type="curve" smooth="yes"/>
      <point x="38.830357142857146" y="113.81964285714285"/>
      <point x="58.660714285714285" y="6.6535714285714285"/>
      <point x="100.15535714285714" y="-106.17321428571428" type="curve" smooth="yes"/>
      <point x="105.65357142857142" y="-121.8375"/>
      <point x="120.64642857142857" y="-129.50535714285715"/>
    </contour>
    <contour>
      <point x="311.74107142857144" y="60.599999999999994" type="curve" smooth="yes"/>
      <point x="301.40535714285716" y="60.599999999999994"/>
      <point x="298.57142857142856" y="65.6"/>
      <point x="298.57142857142856" y="102.59642857142858" type="curve" smooth="yes"/>
      <point x="298.57142857142856" y="300.32142857142856"/>
      <point x="334.25" y="407.6821428571429"/>
      <point x="401.43035714285713" y="407.6821428571429" type="curve" smooth="yes"/>
      <point x="430.60714285714283" y="407.6821428571429"/>
      <point x="474.45892857142854" y="404.01428571428573"/>
      <point x="536.9928571428571" y="391.50892857142856" type="curve"/>
      <point x="506.9714285714286" y="269.8410714285714"/>
      <point x="337.58214285714286" y="60.599999999999994"/>
    </contour>
  </outline>
</glyph>
<glyph name="A" format="2">
  <advance width="640.4875"/>
  <unicode hex="0041"/>
  <anchor x="308.00357142857143" y="0.0" name="bottom"/>
  <anchor x="523.1589285714285" y="0.0" name="ogonek"/>
  <anchor x="365.3178571428571" y="652.0" name="top"/>
  <outline>
    <contour>
      <point x="50.13035714285714" y="-13.0" type="curve" smooth="yes"/>
      <point x="57.12321428571428" y="-13.0"/>
      <point x="58.957142857142856" y="-10.501785714285715"/>
      <point x="61.79107142857143" y="-3.8339285714285714" type="curve" smooth="yes"/>
      <point x="73.78392857142858" y="28.8125"/>
      <point x="159.98928571428573" y="209.88392857142858"/>
      <point x="173.49464285714285" y="231.55535714285713" type="curve"/>
      <point x="202.50535714285715" y="232.55535714285713"/>
      <point x="258.18392857142857" y="235.3892857142857"/>
      <point x="309.1875" y="235.3892857142857" type="curve" smooth="yes"/>
      <point x="364.375" y="235.3892857142857"/>
      <point x="423.0392857142857" y="233.3892857142857"/>
      <point x="445.5339285714286" y="232.05714285714285" type="curve"/>
      <point x="468.2125" y="161.52678571428572"/>
      <point x="498.23035714285714" y="59.30714285714286"/>
      <point x="504.56607142857143" y="29.639285714285712" type="curve" smooth="yes"/>
      <point x="507.4" y="16.80892857142857"/>
      <point x="510.8982142857143" y="11.8125"/>
      <point x="514.7285714285714" y="7.982142857142857" type="curve" smooth="yes"/>
      <point x="526.5482142857143" y="-3.8375000000000004"/>
      <point x="555.5089285714286" y="-13.0"/>
      <point x="587.9928571428571" y="-13.0" type="curve" smooth="yes"/>
      <point x="603.9714285714285" y="-13.0"/>
      <point x="606.1339285714286" y="-9.003571428571428"/>
      <point x="606.1339285714286" y="-1.8446428571428575" type="curve" smooth="yes"/>
      <point x="606.1339285714286" y="1.9892857142857143"/>
      <point x="605.1339285714286" y="4.819642857142857"/>
      <point x="601.9678571428572" y="15.148214285714285" type="curve" smooth="yes"/>
      <point x="574.1267857142857" y="105.15535714285714"/>
      <point x="431.7482142857143" y="540.0821428571429"/>
      <point x="408.7553571428571" y="626.3607142857143" type="curve" smooth="yes"/>
      <point x="405.925" y="638.8446428571428"/>
      <point x="370.9642857142857" y="652.0"/>
      <point x="335.3392857142857" y="652.0" type="curve" smooth="yes"/>
      <point x="322.0285714285714" y="652.0"/>
      <point x="318.3642857142857" y="650.1696428571429"/>
      <point x="315.7" y="642.6785714285714" type="curve" smooth="yes"/>
      <point x="266.50892857142856" y="540.6392857142857"/>
      <point x="54.614285714285714" y="120.03035714285714"/>
      <point x="8.155357142857142" y="36.13035714285714" type="curve" smooth="yes"/>
      <point x="5.1589285714285715" y="29.97142857142857"/>
      <point x="2.4910714285714284" y="24.30357142857143"/>
      <point x="2.4910714285714284" y="21.307142857142857" type="curve" smooth="yes"/>
      <point x="2.4910714285714284" y="-0.6785714285714288"/>
      <point x="26.642857142857142" y="-13.0"/>
    </contour>
    <contour>
      <point x="197.15178571428572" y="282.8589285714286" type="line"/>
      <point x="222.1482142857143" y="333.0107142857143"/>
      <point x="306.8375" y="509.88392857142856"/>
      <point x="340.5125" y="560.8946428571429" type="curve"/>
      <point x="355.35" y="517.0571428571428"/>
      <point x="414.0357142857143" y="342.0285714285714"/>
      <point x="430.20535714285717" y="282.8589285714286" type="curve"/>
    </contour>
  </outline>
</glyph>
<glyph name="B" format="2">
  <advance width="586.2428571428571"/>
  <unicode hex="0042"/>
  <anchor x="264.6" y="0.0" name="bottom"/>
  <anchor x="303.76964285714286" y="652.0" name="top"/>
  <outline>
    <contour>
      <point x="92.1875" y="0.0" type="curve"/>
      <point x="282.0732142857143" y="0.0" type="line" smooth="yes"/>
      <point x="432.2285714285714" y="0.0"/>
      <point x="514.8821428571429" y="99.17678571428571"/>
      <point x="514.8821428571429" y="197.49464285714285" type="curve" smooth="yes"/>
      <point x="514.8821428571429" y="275.6535714285714"/>
      <point x="463.05892857142857" y="341.16607142857146"/>
      <point x="359.88214285714287" y="350.16607142857146" type="curve"/>
      <point x="392.1928571428571" y="360.6642857142857"/>
      <point x="496.2107142857143" y="399.65714285714284"/>
      <point x="496.2107142857143" y="508.6714285714286" type="curve" smooth="yes"/>
      <point x="496.2107142857143" y="594.6607142857143"/>
      <point x="431.55357142857144" y="639.0"/>
      <point x="306.39464285714286" y="639.0" type="curve" smooth="yes"/>
      <point x="127.025" y="639.0" type="line"/>
      <point x="119.51964285714286" y="425.15535714285716"/>
      <point x="98.025" y="70.35357142857143"/>
    </contour>
    <contour>
      <point x="267.94642857142856" y="45.46964285714286" type="curve" smooth="yes"/>
      <point x="196.925" y="45.46964285714286"/>
      <point x="184.09464285714284" y="52.466071428571425"/>
      <point x="184.4267857142857" y="90.80178571428571" type="curve" smooth="yes"/>
      <point x="184.925" y="150.46964285714284"/>
      <point x="188.59285714285716" y="273.35"/>
      <point x="192.4267857142857" y="318.00714285714287" type="curve"/>
      <point x="218.10535714285714" y="318.00714285714287"/>
      <point x="243.95" y="318.00714285714287"/>
      <point x="270.29285714285714" y="317.675" type="curve" smooth="yes"/>
      <point x="332.95714285714286" y="316.01428571428573"/>
      <point x="426.98214285714283" y="298.35714285714283"/>
      <point x="426.98214285714283" y="196.675" type="curve" smooth="yes"/>
      <point x="426.98214285714283" y="99.1375"/>
      <point x="365.1303571428571" y="45.46964285714286"/>
    </contour>
    <contour>
      <point x="196.2607142857143" y="356.5017857142857" type="curve"/>
      <point x="200.09821428571428" y="447.7107142857143"/>
      <point x="207.43035714285713" y="547.3464285714285"/>
      <point x="214.09821428571428" y="588.8589285714286" type="curve"/>
      <point x="231.93571428571428" y="590.5267857142857"/>
      <point x="263.7839285714286" y="593.8625"/>
      <point x="281.62142857142857" y="593.8625" type="curve" smooth="yes"/>
      <point x="365.8017857142857" y="593.8625"/>
      <point x="409.64285714285717" y="565.8660714285714"/>
      <point x="409.64285714285717" y="497.6857142857143" type="curve" smooth="yes"/>
      <point x="409.64285714285717" y="456.84464285714284"/>
      <point x="391.1375" y="417.6714285714286"/>
      <point x="363.46964285714284" y="395.5053571428571" type="curve" smooth="yes"/>
      <point x="324.625" y="364.6642857142857"/>
      <point x="279.61785714285713" y="356.5017857142857"/>
    </contour>
  </outline>
</glyph>
<glyph name="C" format="2">
  <advance width="667.0142857142857"/>
  <unicode hex="0043"/>
  <anchor x="367.1589285714286" y="0.0" name="bottom"/>
  <anchor x="406.1589285714286" y="652.0" name="top"/>
  <outline>
    <contour>
      <point x="398.6642857142857" y="-13.0" type="curve" smooth="yes"/>
      <point x="490.1767857142857" y="-13.0"/>
      <point x="566.7035714285714" y="6.678571428571429"/>
      <point x="598.1839285714286" y="22.84464285714286" type="curve" smooth="yes"/>
      <point x="611.3392857142857" y="29.176785714285714"/>
      <point x="616.9964285714286" y="49.33571428571429"/>
      <point x="616.9964285714286" y="76.1375" type="curve" smooth="yes"/>
      <point x="616.9964285714286" y="85.13392857142857"/>
      <point x="616.6642857142857" y="91.13392857142857"/>
      <point x="612.6678571428571" y="91.13392857142857" type="curve" smooth="yes"/>
      <point x="609.3357142857143" y="91.13392857142857"/>
      <point x="602.3357142857143" y="88.3"/>
      <point x="592.3357142857143" y="83.63214285714285" type="curve" smooth="yes"/>
      <point x="555.35" y="66.3"/>
      <point x="486.1625" y="44.95357142857143"/>
      <point x="396.46964285714284" y="44.95357142857143" type="curve" smooth="yes"/>
      <point x="256.9535714285714" y="44.95357142857143"/>
      <point x="146.24285714285713" y="128.30714285714285"/>
      <point x="146.24285714285713" y="315.5017857142857" type="curve" smooth="yes"/>
      <point x="146.24285714285713" y="509.5125"/>
      <point x="260.4375" y="598.5517857142858"/>
      <point x="400.4839285714286" y="598.5517857142858" type="curve" smooth="yes"/>
      <point x="526.1625" y="598.5517857142858"/>
      <point x="586.8339285714286" y="543.5410714285714"/>
      <point x="604.6678571428571" y="543.5410714285714" type="curve" smooth="yes"/>
      <point x="615.1517857142857" y="543.5410714285714"/>
      <point x="619.8196428571429" y="576.6821428571428"/>
      <point x="619.8196428571429" y="591.8482142857143" type="curve" smooth="yes"/>
      <point x="619.8196428571429" y="601.6714285714286"/>
      <point x="620.8232142857142" y="610.4982142857143"/>
      <point x="599.4910714285714" y="620.1660714285714" type="curve" smooth="yes"/>
      <point x="554.8375" y="640.4982142857143"/>
      <point x="489.6714285714286" y="652.0"/>
      <point x="389.3142857142857" y="652.0" type="curve" smooth="yes"/>
      <point x="157.6357142857143" y="652.0"/>
      <point x="57.50892857142857" y="495.5964285714286"/>
      <point x="57.50892857142857" y="305.85535714285714" type="curve" smooth="yes"/>
      <point x="57.50892857142857" y="58.830357142857146"/>
      <point x="229.04285714285714" y="-13.0"/>
    </contour>
  </outline>
</glyph>
<glyph name="D" format="2">
  <advance width="740.4696428571428"/>
  <unicode hex="0044"/>
  <anchor x="338.9714285714286" y="0.0" name="bottom"/>
  <anchor x="372.3285714285714" y="326.0" name="center"/>
  <anchor x="382.1267857142857" y="652.0" name="top"/>
  <outline>
    <contour>
      <point x="92.1875" y="0.0" type="curve"/>
      <point x="302.41964285714283" y="0.0" type="line" smooth="yes"/>
      <point x="564.9714285714285" y="0.0"/>
      <point x="690.4482142857142" y="144.2125"/>
      <point x="690.4482142857142" y="364.83392857142854" type="curve" smooth="yes"/>
      <point x="690.4482142857142" y="563.7910714285714"/>
      <point x="567.8089285714286" y="639.0"/>
      <point x="374.28214285714284" y="639.0" type="curve" smooth="yes"/>
      <point x="127.025" y="639.0" type="line"/>
      <point x="119.51964285714286" y="425.15535714285716"/>
      <point x="94.68928571428572" y="37.830357142857146"/>
    </contour>
    <contour>
      <point x="273.4267857142857" y="46.13392857142857" type="curve" smooth="yes"/>
      <point x="196.4267857142857" y="46.13392857142857"/>
      <point x="184.59285714285716" y="52.13392857142857"/>
      <point x="184.59285714285716" y="91.13392857142857" type="curve" smooth="yes"/>
      <point x="184.59285714285716" y="272.79464285714283"/>
      <point x="203.4267857142857" y="468.1303571428571"/>
      <point x="213.76607142857142" y="587.0321428571428" type="curve"/>
      <point x="255.44821428571427" y="591.7"/>
      <point x="294.45892857142854" y="593.7"/>
      <point x="334.62142857142857" y="593.7" type="curve" smooth="yes"/>
      <point x="511.35357142857146" y="593.7"/>
      <point x="595.8767857142857" y="530.1910714285714"/>
      <point x="595.8767857142857" y="351.49107142857144" type="curve" smooth="yes"/>
      <point x="595.8767857142857" y="122.83392857142857"/>
      <point x="467.6642857142857" y="46.13392857142857"/>
    </contour>
  </outline>
</glyph>
<glyph name="E" format="2">
  <advance width="553.0"/>
  <unicode hex="0045"/>
  <anchor x="280.3285714285714" y="0.0" name="bottom"/>
  <anchor x="420.3285714285714" y="0.0" name="ogonek"/>
  <anchor x="308.83392857142854" y="652.0" name="top"/>
  <anchor x="23.32857142857143" y="652.0" name="topleft"/>
  <outline>
    <contour>
      <point x="92.1875" y="0.0" type="curve"/>
      <point x="485.98571428571427" y="0.0" type="line" smooth="yes"/>
      <point x="496.63928571428573" y="0.0"/>
      <point x="505.975" y="32.808928571428574"/>
      <point x="505.975" y="50.975" type="curve" smooth="yes"/>
      <point x="505.975" y="61.964285714285715"/>
      <point x="505.975" y="68.13035714285715"/>
      <point x="500.64285714285717" y="68.13035714285715" type="curve" smooth="yes"/>
      <point x="493.14464285714286" y="68.13035714285715"/>
      <point x="437.8232142857143" y="48.45892857142857"/>
      <point x="274.2607142857143" y="48.45892857142857" type="curve" smooth="yes"/>
      <point x="197.2607142857143" y="48.45892857142857"/>
      <point x="185.4267857142857" y="54.957142857142856"/>
      <point x="185.4267857142857" y="92.62857142857143" type="curve" smooth="yes"/>
      <point x="185.4267857142857" y="155.80892857142857"/>
      <point x="187.925" y="233.97857142857143"/>
      <point x="192.09464285714284" y="306.1875" type="curve"/>
      <point x="229.10535714285714" y="306.1875" type="line" smooth="yes"/>
      <point x="359.80892857142857" y="306.1875"/>
      <point x="428.80535714285713" y="298.6857142857143"/>
      <point x="433.6357142857143" y="298.6857142857143" type="curve" smooth="yes"/>
      <point x="438.63214285714287" y="298.6857142857143"/>
      <point x="444.63214285714287" y="323.8410714285714"/>
      <point x="444.63214285714287" y="341.16607142857146" type="curve" smooth="yes"/>
      <point x="444.63214285714287" y="351.9892857142857"/>
      <point x="441.3" y="358.15535714285716"/>
      <point x="436.975" y="358.15535714285716" type="curve" smooth="yes"/>
      <point x="194.2607142857143" y="358.15535714285716" type="line"/>
      <point x="200.09821428571428" y="451.35714285714283"/>
      <point x="207.93214285714285" y="547.35"/>
      <point x="214.6" y="586.8660714285714" type="curve"/>
      <point x="245.60357142857143" y="586.8660714285714" type="line" smooth="yes"/>
      <point x="373.4839285714286" y="586.8660714285714"/>
      <point x="444.80892857142857" y="578.6964285714286"/>
      <point x="448.80535714285713" y="578.6964285714286" type="curve" smooth="yes"/>
      <point x="453.8017857142857" y="578.6964285714286"/>
      <point x="459.8017857142857" y="604.5196428571429"/>
      <point x="459.8017857142857" y="621.8446428571428" type="curve" smooth="yes"/>
      <point x="459.8017857142857" y="632.6678571428571"/>
      <point x="457.30357142857144" y="639.0"/>
      <point x="452.14464285714286" y="639.0" type="curve" smooth="yes"/>
      <point x="127.85892857142858" y="639.0" type="line"/>
      <point x="120.35357142857143" y="425.15535714285716"/>
      <point x="98.85892857142858" y="70.35357142857143"/>
    </contour>
  </outline>
</glyph>
<glyph name="F" format="2">
  <advance width="504.99642857142857"/>
  <unicode hex="0046"/>
  <anchor x="125.32857142857142" y="0.0" name="bottom"/>
  <anchor x="289.3285714285714" y="652.0" name="top"/>
  <outline>
    <contour>
      <point x="164.78392857142856" y="-13.0" type="curve" smooth="yes"/>
      <point x="178.7625" y="-13.0"/>
      <point x="181.2607142857143" y="-9.003571428571428"/>
      <point x="181.2607142857143" y="-0.6821428571428569" type="curve" smooth="yes"/>
      <point x="181.2607142857143" y="70.65357142857142"/>
      <point x="185.92857142857142" y="221.86964285714285"/>
      <point x="188.2607142857143" y="285.5232142857143" type="curve"/>
      <point x="225.7732142857143" y="285.5232142857143" type="line" smooth="yes"/>
      <point x="356.4767857142857" y="285.5232142857143"/>
      <point x="425.4732142857143" y="277.35357142857146"/>
      <point x="429.46964285714284" y="277.35357142857146" type="curve" smooth="yes"/>
      <point x="434.4660714285714" y="277.35357142857146"/>
      <point x="440.4660714285714" y="303.0107142857143"/>
      <point x="440.4660714285714" y="320.3357142857143" type="curve" smooth="yes"/>
      <point x="440.4660714285714" y="331.325"/>
      <point x="437.96785714285716" y="337.49107142857144"/>
      <point x="432.80892857142857" y="337.49107142857144" type="curve" smooth="yes"/>
      <point x="191.59285714285716" y="337.49107142857144" type="line"/>
      <point x="197.43035714285713" y="442.55535714285713"/>
      <point x="206.2642857142857" y="547.35"/>
      <point x="211.6" y="586.8660714285714" type="curve"/>
      <point x="243.76964285714286" y="586.8660714285714" type="line" smooth="yes"/>
      <point x="371.65" y="586.8660714285714"/>
      <point x="441.4767857142857" y="578.8625"/>
      <point x="446.3071428571429" y="578.8625" type="curve" smooth="yes"/>
      <point x="451.30357142857144" y="578.8625"/>
      <point x="457.30357142857144" y="604.5196428571429"/>
      <point x="457.30357142857144" y="621.8446428571428" type="curve" smooth="yes"/>
      <point x="457.30357142857144" y="632.6678571428571"/>
      <point x="454.80535714285713" y="639.0"/>
      <point x="449.64642857142854" y="639.0" type="curve" smooth="yes"/>
      <point x="125.36071428571428" y="639.0" type="line"/>
      <point x="125.36071428571428" y="548.8696428571428"/>
      <point x="111.19464285714285" y="247.68928571428572"/>
      <point x="100.52321428571429" y="118.8125" type="curve" smooth="yes"/>
      <point x="97.52321428571429" y="83.82321428571429"/>
      <point x="92.1875" y="24.805357142857144"/>
      <point x="92.1875" y="21.473214285714285" type="curve" smooth="yes"/>
      <point x="92.1875" y="-1.8410714285714285"/>
      <point x="134.975" y="-13.0"/>
    </contour>
  </outline>
</glyph>
<glyph name="G" format="2">
  <advance width="720.4910714285714"/>
  <unicode hex="0047"/>
  <anchor x="358.1589285714286" y="0.0" name="bottom"/>
  <anchor x="392.1589285714286" y="652.0" name="top"/>
  <outline>
    <contour>
      <point x="381.1517857142857" y="-13.0" type="curve" smooth="yes"/>
      <point x="491.975" y="-13.0"/>
      <point x="577.4517857142857" y="1.9928571428571429"/>
      <point x="635.9642857142857" y="23.99642857142857" type="curve"/>
      <point x="641.2964285714286" y="123.30714285714285"/>
      <point x="647.4625" y="223.44821428571427"/>
      <point x="652.1303571428572" y="307.97857142857146" type="curve"/>
      <point x="442.3357142857143" y="307.97857142857146" type="line" smooth="yes"/>
      <point x="433.3392857142857" y="307.97857142857146"/>
      <point x="425.0107142857143" y="289.3071428571429"/>
      <point x="425.0107142857143" y="268.1517857142857" type="curve" smooth="yes"/>
      <point x="425.0107142857143" y="259.1625"/>
      <point x="427.84464285714284" y="252.1732142857143"/>
      <point x="433.34285714285716" y="252.1732142857143" type="curve" smooth="yes"/>
      <point x="438.8410714285714" y="252.1732142857143"/>
      <point x="463.66785714285714" y="256.50892857142856"/>
      <point x="569.2196428571428" y="256.50892857142856" type="curve"/>
      <point x="567.5517857142858" y="186.5125"/>
      <point x="560.05" y="79.46964285714286"/>
      <point x="558.2160714285715" y="59.64285714285714" type="curve"/>
      <point x="532.2089285714286" y="50.46964285714286"/>
      <point x="472.67857142857144" y="41.29642857142857"/>
      <point x="398.9714285714286" y="41.29642857142857" type="curve" smooth="yes"/>
      <point x="270.1017857142857" y="41.29642857142857"/>
      <point x="146.24285714285713" y="111.64285714285714"/>
      <point x="146.24285714285713" y="317.00714285714287" type="curve" smooth="yes"/>
      <point x="146.24285714285713" y="506.7"/>
      <point x="257.78035714285716" y="600.2196428571428"/>
      <point x="402.14464285714286" y="600.2196428571428" type="curve" smooth="yes"/>
      <point x="478.64285714285717" y="600.2196428571428"/>
      <point x="550.3214285714286" y="574.0464285714286"/>
      <point x="584.1553571428572" y="553.8732142857143" type="curve" smooth="yes"/>
      <point x="604.9892857142858" y="541.0357142857143"/>
      <point x="614.6535714285715" y="536.8696428571428"/>
      <point x="622.3214285714286" y="536.8696428571428" type="curve" smooth="yes"/>
      <point x="633.6392857142857" y="536.8696428571428"/>
      <point x="638.3071428571428" y="565.8410714285715"/>
      <point x="638.3071428571428" y="585.3428571428572" type="curve" smooth="yes"/>
      <point x="638.3071428571428" y="597.3321428571429"/>
      <point x="633.8089285714286" y="603.9928571428571"/>
      <point x="626.3178571428572" y="608.4910714285714" type="curve" smooth="yes"/>
      <point x="605.4982142857143" y="622.4910714285714"/>
      <point x="530.8482142857143" y="652.0"/>
      <point x="389.3142857142857" y="652.0" type="curve" smooth="yes"/>
      <point x="157.6357142857143" y="652.0"/>
      <point x="57.50892857142857" y="495.5964285714286"/>
      <point x="57.50892857142857" y="305.85535714285714" type="curve" smooth="yes"/>
      <point x="57.50892857142857" y="110.53392857142858"/>
      <point x="175.67142857142858" y="-13.0"/>
    </contour>
  </outline>
</glyph>
<glyph name="H" format="2">
  <advance width="791.1482142857143"/>
  <unicode hex="0048"/>
  <anchor x="379.3285714285714" y="0.0" name="bottom"/>
  <anchor x="399.3285714285714" y="326.0" name="center"/>
  <anchor x="424.3285714285714" y="652.0" name="top"/>
  <anchor x="23.32857142857143" y="652.0" name="topleft"/>
  <outline>
    <contour>
      <point x="164.78392857142856" y="-13.0" type="curve" smooth="yes"/>
      <point x="178.7625" y="-13.0"/>
      <point x="181.2607142857143" y="-9.003571428571428"/>
      <point x="181.2607142857143" y="-0.6821428571428569" type="curve" smooth="yes"/>
      <point x="181.2607142857143" y="103.34642857142858"/>
      <point x="184.2607142857143" y="206.85892857142858"/>
      <point x="190.7625" y="300.1982142857143" type="curve"/>
      <point x="264.2785714285714" y="304.53035714285716"/>
      <point x="337.4625" y="306.69642857142856"/>
      <point x="409.48035714285714" y="306.69642857142856" type="curve" smooth="yes"/>
      <point x="476.16607142857146" y="306.69642857142856"/>
      <point x="542.6857142857143" y="304.69642857142856"/>
      <point x="606.8732142857143" y="301.53035714285716" type="curve"/>
      <point x="598.3714285714286" y="158.67142857142858"/>
      <point x="588.3678571428571" y="27.805357142857144"/>
      <point x="588.3678571428571" y="21.473214285714285" type="curve" smooth="yes"/>
      <point x="588.3678571428571" y="-1.8410714285714285"/>
      <point x="631.1553571428572" y="-13.0"/>
      <point x="660.9642857142857" y="-13.0" type="curve" smooth="yes"/>
      <point x="674.9428571428572" y="-13.0"/>
      <point x="678.275" y="-9.003571428571428"/>
      <point x="678.275" y="-0.6821428571428569" type="curve" smooth="yes"/>
      <point x="678.275" y="297.4035714285714"/>
      <point x="711.4482142857142" y="603.6964285714286"/>
      <point x="711.4482142857142" y="618.3607142857143" type="curve" smooth="yes"/>
      <point x="711.4482142857142" y="641.675"/>
      <point x="667.8267857142857" y="652.0"/>
      <point x="638.0178571428571" y="652.0" type="curve" smooth="yes"/>
      <point x="623.2053571428571" y="652.0"/>
      <point x="621.5410714285714" y="648.8375"/>
      <point x="621.5410714285714" y="640.5160714285714" type="curve" smooth="yes"/>
      <point x="620.7071428571429" y="589.6928571428572"/>
      <point x="616.0392857142857" y="474.17321428571427"/>
      <point x="609.5375" y="357.3178571428571" type="curve"/>
      <point x="193.4267857142857" y="357.3178571428571" type="line"/>
      <point x="202.7625" y="505.3464285714286"/>
      <point x="214.43392857142857" y="610.3607142857143"/>
      <point x="214.43392857142857" y="618.3607142857143" type="curve" smooth="yes"/>
      <point x="214.43392857142857" y="641.675"/>
      <point x="171.64642857142857" y="652.0"/>
      <point x="141.8375" y="652.0" type="curve" smooth="yes"/>
      <point x="127.025" y="652.0"/>
      <point x="125.36071428571428" y="648.8375"/>
      <point x="125.36071428571428" y="640.5160714285714" type="curve" smooth="yes"/>
      <point x="122.85892857142858" y="520.8910714285714"/>
      <point x="92.1875" y="34.46964285714286"/>
      <point x="92.1875" y="21.473214285714285" type="curve" smooth="yes"/>
      <point x="92.1875" y="-1.8410714285714285"/>
      <point x="134.975" y="-13.0"/>
    </contour>
  </outline>
</glyph>
<glyph name="I" format="2">
  <advance width="298.96785714285716"/>
  <unicode hex="0049"/>
  <anchor x="136.14107142857142" y="0.0" name="bottom"/>
  <anchor x="268.83035714285717" y="10.0" name="ogonek"/>
  <anchor x="186.81964285714287" y="652.0" name="top"/>
  <anchor x="27.830357142857142" y="652.0" name="topleft"/>
  <outline>
    <contour>
      <point x="169.28571428571428" y="-13.0" type="curve" smooth="yes"/>
      <point x="183.2642857142857" y="-13.0"/>
      <point x="185.7625" y="-9.003571428571428"/>
      <point x="185.7625" y="-0.6821428571428569" type="curve" smooth="yes"/>
      <point x="185.7625" y="297.4035714285714"/>
      <point x="218.93571428571428" y="603.6964285714286"/>
      <point x="218.93571428571428" y="618.1946428571429" type="curve" smooth="yes"/>
      <point x="218.93571428571428" y="641.675"/>
      <point x="176.1482142857143" y="652.0"/>
      <point x="146.33928571428572" y="652.0" type="curve" smooth="yes"/>
      <point x="131.52678571428572" y="652.0"/>
      <point x="129.8625" y="648.8375"/>
      <point x="129.8625" y="640.5160714285714" type="curve" smooth="yes"/>
      <point x="127.36071428571428" y="520.8910714285714"/>
      <point x="96.68928571428572" y="34.46964285714286"/>
      <point x="96.68928571428572" y="21.473214285714285" type="curve" smooth="yes"/>
      <point x="96.68928571428572" y="-1.8410714285714285"/>
      <point x="139.4767857142857" y="-13.0"/>
    </contour>
  </outline>
</glyph>
<glyph name="J" format="2">
  <advance width="390.8517857142857"/>
  <unicode hex="004A"/>
  <anchor x="212.87678571428572" y="0.0" name="bottom"/>
  <anchor x="274.5267857142857" y="652.0" name="top"/>
  <outline>
    <contour>
      <point x="120.83392857142857" y="-13.0" type="curve" smooth="yes"/>
      <point x="187.9857142857143" y="-13.0"/>
      <point x="243.98214285714286" y="24.498214285714287"/>
      <point x="272.81964285714287" y="112.01071428571429" type="curve" smooth="yes"/>
      <point x="301.81607142857143" y="200.0"/>
      <point x="310.81607142857143" y="536.3571428571429"/>
      <point x="310.81607142857143" y="618.3607142857143" type="curve" smooth="yes"/>
      <point x="310.81607142857143" y="641.675"/>
      <point x="268.0285714285714" y="652.0"/>
      <point x="238.21964285714284" y="652.0" type="curve" smooth="yes"/>
      <point x="223.40714285714284" y="652.0"/>
      <point x="221.74285714285713" y="648.8375"/>
      <point x="221.74285714285713" y="640.5160714285714" type="curve" smooth="yes"/>
      <point x="221.74285714285713" y="278.7375"/>
      <point x="205.56964285714287" y="87.97857142857143"/>
      <point x="169.55892857142857" y="55.14107142857143" type="curve" smooth="yes"/>
      <point x="154.8875" y="41.63928571428571"/>
      <point x="138.21607142857144" y="34.46964285714286"/>
      <point x="117.54464285714286" y="34.46964285714286" type="curve" smooth="yes"/>
      <point x="80.025" y="34.46964285714286"/>
      <point x="39.50178571428572" y="53.982142857142854"/>
      <point x="29.498214285714287" y="53.982142857142854" type="curve" smooth="yes"/>
      <point x="24.166071428571428" y="53.982142857142854"/>
      <point x="20.0" y="45.15535714285714"/>
      <point x="20.0" y="33.989285714285714" type="curve" smooth="yes"/>
      <point x="20.0" y="15.321428571428571"/>
      <point x="23.498214285714287" y="4.667857142857143"/>
      <point x="35.16607142857143" y="-1.0" type="curve"/>
      <point x="53.16607142857143" y="-9.833928571428572"/>
      <point x="81.15892857142858" y="-13.0"/>
    </contour>
  </outline>
</glyph>
<glyph name="K" format="2">
  <advance width="641.2964285714286"/>
  <unicode hex="004B"/>
  <anchor x="289.3285714285714" y="0.0" name="bottom"/>
  <anchor x="333.3285714285714" y="652.0" name="top"/>
  <outline>
    <contour>
      <point x="164.78392857142856" y="-13.0" type="curve" smooth="yes"/>
      <point x="178.7625" y="-13.0"/>
      <point x="181.2607142857143" y="-9.003571428571428"/>
      <point x="181.2607142857143" y="-0.6821428571428569" type="curve" smooth="yes"/>
      <point x="181.2607142857143" y="107.18035714285715"/>
      <point x="185.92857142857142" y="215.85535714285714"/>
      <point x="190.7625" y="309.35714285714283" type="curve"/>
      <point x="197.59642857142856" y="303.0285714285714"/>
      <point x="209.25357142857143" y="293.53035714285716"/>
      <point x="222.75178571428572" y="284.36071428571427" type="curve" smooth="yes"/>
      <point x="294.2714285714286" y="218.03571428571428"/>
      <point x="445.6821428571429" y="72.32142857142857"/>
      <point x="527.2089285714286" y="-4.3464285714285715" type="curve" smooth="yes"/>
      <point x="532.0357142857143" y="-10.833928571428572"/>
      <point x="537.0321428571428" y="-13.0"/>
      <point x="548.1910714285714" y="-13.0" type="curve" smooth="yes"/>
      <point x="564.8303571428571" y="-13.0"/>
      <point x="587.8053571428571" y="1.1553571428571425"/>
      <point x="603.1196428571428" y="13.80892857142857" type="curve" smooth="yes"/>
      <point x="609.95" y="20.14107142857143"/>
      <point x="615.4482142857142" y="25.473214285714285"/>
      <point x="615.4482142857142" y="28.30357142857143" type="curve" smooth="yes"/>
      <point x="615.4482142857142" y="31.96785714285714"/>
      <point x="614.2821428571428" y="33.79821428571429"/>
      <point x="607.1196428571428" y="40.957142857142856" type="curve" smooth="yes"/>
      <point x="486.2285714285714" y="137.81964285714287"/>
      <point x="318.1857142857143" y="304.80535714285713"/>
      <point x="284.34464285714284" y="339.8017857142857" type="curve"/>
      <point x="336.9982142857143" y="390.9392857142857"/>
      <point x="520.4232142857143" y="553.8446428571428"/>
      <point x="593.2892857142857" y="622.5375" type="curve" smooth="yes"/>
      <point x="600.1196428571428" y="629.7"/>
      <point x="602.6178571428571" y="632.5303571428572"/>
      <point x="602.6178571428571" y="636.0285714285715" type="curve" smooth="yes"/>
      <point x="602.6178571428571" y="643.1875"/>
      <point x="584.2964285714286" y="652.0"/>
      <point x="563.9821428571429" y="652.0" type="curve" smooth="yes"/>
      <point x="544.1553571428572" y="652.0"/>
      <point x="536.1553571428572" y="648.0071428571429"/>
      <point x="524.325" y="636.5125" type="curve" smooth="yes"/>
      <point x="389.5892857142857" y="512.1232142857143"/>
      <point x="238.41607142857143" y="364.1482142857143"/>
      <point x="191.09464285714284" y="320.17321428571427" type="curve"/>
      <point x="200.59642857142856" y="484.5267857142857"/>
      <point x="214.43392857142857" y="609.1946428571429"/>
      <point x="214.43392857142857" y="618.3607142857143" type="curve" smooth="yes"/>
      <point x="214.43392857142857" y="641.675"/>
      <point x="171.64642857142857" y="652.0"/>
      <point x="141.8375" y="652.0" type="curve" smooth="yes"/>
      <point x="127.025" y="652.0"/>
      <point x="125.36071428571428" y="648.8375"/>
      <point x="125.36071428571428" y="640.5160714285714" type="curve" smooth="yes"/>
      <point x="122.85892857142858" y="520.8910714285714"/>
      <point x="92.1875" y="34.46964285714286"/>
      <point x="92.1875" y="21.473214285714285" type="curve" smooth="yes"/>
      <point x="92.1875" y="-1.8410714285714285"/>
      <point x="134.975" y="-13.0"/>
    </contour>
  </outline>
</glyph>
<glyph name="L" format="2">
  <advance width="486.6535714285714"/>
  <unicode hex="004C"/>
  <anchor x="279.4982142857143" y="0.0" name="bottom"/>
  <anchor x="236.49821428571428" y="326.0" name="center"/>
  <anchor x="243.49821428571428" y="648.6785714285714" name="top"/>
  <anchor x="416.4982142857143" y="524.0" name="topright"/>
  <outline>
    <contour>
      <point x="92.1875" y="0.0" type="curve"/>
      <point x="443.1517857142857" y="0.0" type="line" smooth="yes"/>
      <point x="454.63928571428573" y="0.0"/>
      <point x="464.1410714285714" y="31.978571428571428"/>
      <point x="464.1410714285714" y="50.144642857142856" type="curve" smooth="yes"/>
      <point x="464.1410714285714" y="61.13392857142857"/>
      <point x="464.1410714285714" y="67.13392857142857"/>
      <point x="460.3107142857143" y="67.13392857142857" type="curve" smooth="yes"/>
      <point x="456.98214285714283" y="67.13392857142857"/>
      <point x="372.9607142857143" y="48.45892857142857"/>
      <point x="273.4267857142857" y="48.45892857142857" type="curve" smooth="yes"/>
      <point x="196.4267857142857" y="48.45892857142857"/>
      <point x="184.59285714285716" y="54.957142857142856"/>
      <point x="184.59285714285716" y="92.62857142857143" type="curve" smooth="yes"/>
      <point x="184.59285714285716" y="303.8982142857143"/>
      <point x="215.76607142857142" y="610.8660714285714"/>
      <point x="215.76607142857142" y="618.3607142857143" type="curve" smooth="yes"/>
      <point x="215.76607142857142" y="641.675"/>
      <point x="172.97857142857143" y="652.0"/>
      <point x="143.16964285714286" y="652.0" type="curve" smooth="yes"/>
      <point x="129.19107142857143" y="652.0"/>
      <point x="126.69285714285715" y="648.8375"/>
      <point x="126.69285714285715" y="640.5160714285714" type="curve" smooth="yes"/>
      <point x="120.85535714285714" y="428.6642857142857"/>
      <point x="98.025" y="68.02857142857142"/>
    </contour>
  </outline>
</glyph>
<glyph name="M" format="2">
  <advance width="985.3107142857143"/>
  <unicode hex="004D"/>
  <anchor x="466.67857142857144" y="0.0" name="bottom"/>
  <anchor x="507.32142857142856" y="652.0" name="top"/>
  <outline>
    <contour>
      <point x="136.50178571428572" y="-13.0" type="curve" smooth="yes"/>
      <point x="145.1625" y="-13.0"/>
      <point x="146.99285714285713" y="-9.501785714285715"/>
      <point x="147.15892857142856" y="-3.505357142857143" type="curve" smooth="yes"/>
      <point x="148.4875" y="52.32142857142857"/>
      <point x="191.15535714285716" y="384.48035714285714"/>
      <point x="214.32857142857142" y="546.7214285714285" type="curve"/>
      <point x="254.00714285714287" y="451.88392857142856"/>
      <point x="378.5517857142857" y="131.50892857142858"/>
      <point x="425.2446428571429" y="13.967857142857142" type="curve" smooth="yes"/>
      <point x="429.74285714285713" y="-0.5125000000000002"/>
      <point x="452.7" y="-13.0"/>
      <point x="479.9892857142857" y="-13.0" type="curve" smooth="yes"/>
      <point x="490.46964285714284" y="-13.0"/>
      <point x="495.13392857142856" y="-8.0"/>
      <point x="497.9642857142857" y="-1.0107142857142857" type="curve" smooth="yes"/>
      <point x="590.0035714285714" y="174.03214285714284"/>
      <point x="744.0428571428571" y="454.08214285714286"/>
      <point x="799.7071428571429" y="559.0607142857143" type="curve"/>
      <point x="800.0392857142857" y="534.2553571428572"/>
      <point x="803.7071428571429" y="411.7214285714286"/>
      <point x="802.8732142857143" y="278.50892857142856" type="curve" smooth="yes"/>
      <point x="802.2053571428571" y="189.68214285714285"/>
      <point x="798.8696428571428" y="83.0"/>
      <point x="798.8696428571428" y="21.805357142857144" type="curve" smooth="yes"/>
      <point x="798.8696428571428" y="-1.342857142857143"/>
      <point x="839.6607142857143" y="-13.0"/>
      <point x="869.4625" y="-13.0" type="curve" smooth="yes"/>
      <point x="882.1125" y="-13.0"/>
      <point x="886.1053571428571" y="-9.501785714285715"/>
      <point x="886.1053571428571" y="-0.010714285714285676" type="curve" smooth="yes"/>
      <point x="886.1053571428571" y="182.26607142857142"/>
      <point x="880.6142857142858" y="429.76964285714286"/>
      <point x="878.9464285714286" y="617.3607142857143" type="curve" smooth="yes"/>
      <point x="878.9464285714286" y="642.5089285714286"/>
      <point x="828.0" y="652.0"/>
      <point x="798.1982142857142" y="652.0" type="curve" smooth="yes"/>
      <point x="784.2160714285715" y="652.0"/>
      <point x="780.3892857142857" y="650.5017857142857"/>
      <point x="776.2232142857143" y="642.3392857142857" type="curve" smooth="yes"/>
      <point x="737.5446428571429" y="567.4982142857143"/>
      <point x="579.3642857142858" y="263.4946428571429"/>
      <point x="486.32142857142856" y="97.25714285714285" type="curve"/>
      <point x="438.13392857142856" y="203.7875"/>
      <point x="339.7732142857143" y="455.7875"/>
      <point x="276.57142857142856" y="620.1946428571429" type="curve" smooth="yes"/>
      <point x="269.74107142857144" y="641.3428571428572"/>
      <point x="229.4625" y="652.0"/>
      <point x="190.32857142857142" y="652.0" type="curve" smooth="yes"/>
      <point x="172.1875" y="652.0"/>
      <point x="169.85535714285714" y="649.6678571428571"/>
      <point x="168.35714285714286" y="633.8446428571428" type="curve" smooth="yes"/>
      <point x="149.0142857142857" y="452.4160714285714"/>
      <point x="83.025" y="38.614285714285714"/>
      <point x="83.025" y="21.473214285714285" type="curve" smooth="yes"/>
      <point x="83.025" y="-1.8410714285714285"/>
      <point x="114.50892857142857" y="-13.0"/>
    </contour>
  </outline>
</glyph>
<glyph name="N" format="2">
  <advance width="835.7321428571429"/>
  <unicode hex="004E"/>
  <anchor x="409.8625" y="0.0" name="bottom"/>
  <anchor x="445.5232142857143" y="645.3357142857143" name="top"/>
  <outline>
    <contour>
      <point x="147.49464285714285" y="-13.0" type="curve" smooth="yes"/>
      <point x="157.9857142857143" y="-13.0"/>
      <point x="160.15178571428572" y="-9.8375"/>
      <point x="160.15178571428572" y="0.9857142857142858" type="curve" smooth="yes"/>
      <point x="160.15178571428572" y="152.02857142857144"/>
      <point x="177.15892857142856" y="506.3017857142857"/>
      <point x="178.65714285714284" y="529.4535714285714" type="curve"/>
      <point x="210.65" y="484.95178571428573"/>
      <point x="554.8517857142857" y="103.90178571428572"/>
      <point x="652.75" y="-0.8339285714285715" type="curve" smooth="yes"/>
      <point x="658.0821428571429" y="-6.498214285714286"/>
      <point x="664.7464285714286" y="-13.0"/>
      <point x="669.7428571428571" y="-13.0" type="curve" smooth="yes"/>
      <point x="680.8946428571429" y="-13.0"/>
      <point x="724.025" y="17.14107142857143"/>
      <point x="724.025" y="30.126785714285713" type="curve" smooth="yes"/>
      <point x="724.025" y="135.9857142857143"/>
      <point x="756.0321428571428" y="601.8732142857143"/>
      <point x="756.0321428571428" y="618.3607142857143" type="curve" smooth="yes"/>
      <point x="756.0321428571428" y="641.675"/>
      <point x="724.8839285714286" y="652.0"/>
      <point x="700.0571428571428" y="652.0" type="curve" smooth="yes"/>
      <point x="688.5660714285714" y="652.0"/>
      <point x="687.2339285714286" y="649.6714285714286"/>
      <point x="687.2339285714286" y="638.0142857142857" type="curve" smooth="yes"/>
      <point x="687.2339285714286" y="329.3589285714286"/>
      <point x="669.3928571428571" y="121.02321428571429"/>
      <point x="667.8946428571429" y="110.7125" type="curve"/>
      <point x="595.8732142857143" y="179.73392857142858"/>
      <point x="243.33214285714286" y="575.1267857142857"/>
      <point x="195.46964285714284" y="640.6678571428571" type="curve" smooth="yes"/>
      <point x="190.97142857142856" y="646.3321428571429"/>
      <point x="183.47321428571428" y="652.0"/>
      <point x="178.4767857142857" y="652.0" type="curve" smooth="yes"/>
      <point x="164.82321428571427" y="652.0"/>
      <point x="124.19464285714285" y="622.6928571428572"/>
      <point x="124.19464285714285" y="609.7071428571429" type="curve" smooth="yes"/>
      <point x="124.19464285714285" y="503.8482142857143"/>
      <point x="92.1875" y="37.12678571428572"/>
      <point x="92.1875" y="21.473214285714285" type="curve" smooth="yes"/>
      <point x="92.1875" y="-1.8410714285714285"/>
      <point x="122.50178571428572" y="-13.0"/>
    </contour>
  </outline>
</glyph>
<glyph name="O" format="2">
  <advance width="751.325"/>
  <unicode hex="004F"/>
  <anchor x="365.82678571428573" y="0.0" name="bottom"/>
  <anchor x="382.82678571428573" y="326.0" name="center"/>
  <anchor x="433.82678571428573" y="10.0" name="ogonek"/>
  <anchor x="399.82678571428573" y="652.0" name="top"/>
  <anchor x="45.82678571428571" y="652.0" name="topleft"/>
  <anchor x="566.3142857142857" y="602.9964285714286" name="topright"/>
  <outline>
    <contour>
      <point x="373.00357142857143" y="-13.0" type="curve" smooth="yes"/>
      <point x="588.6714285714286" y="-13.0"/>
      <point x="697.1375" y="119.21964285714286"/>
      <point x="697.1375" y="351.65714285714284" type="curve" smooth="yes"/>
      <point x="697.1375" y="545.7696428571428"/>
      <point x="596.1803571428571" y="652.0"/>
      <point x="388.4767857142857" y="652.0" type="curve" smooth="yes"/>
      <point x="172.64285714285714" y="652.0"/>
      <point x="64.17678571428571" y="520.6142857142858"/>
      <point x="64.17678571428571" y="288.34285714285716" type="curve" smooth="yes"/>
      <point x="64.17678571428571" y="94.23035714285714"/>
      <point x="165.13392857142858" y="-13.0"/>
    </contour>
    <contour>
      <point x="381.64285714285717" y="31.307142857142857" type="curve" smooth="yes"/>
      <point x="221.58928571428572" y="31.307142857142857"/>
      <point x="152.91071428571428" y="133.33928571428572"/>
      <point x="152.91071428571428" y="291.50892857142856" type="curve" smooth="yes"/>
      <point x="152.91071428571428" y="471.05"/>
      <point x="222.44821428571427" y="609.1875"/>
      <point x="379.6714285714286" y="609.1875" type="curve" smooth="yes"/>
      <point x="539.725" y="609.1875"/>
      <point x="608.4035714285715" y="507.8232142857143"/>
      <point x="608.4035714285715" y="349.98571428571427" type="curve" smooth="yes"/>
      <point x="608.4035714285715" y="169.27857142857144"/>
      <point x="539.0321428571428" y="31.307142857142857"/>
    </contour>
  </outline>
</glyph>
<glyph name="P" format="2">
  <advance width="554.0875"/>
  <unicode hex="0050"/>
  <anchor x="258.3285714285714" y="0.0" name="bottom"/>
  <anchor x="292.3285714285714" y="652.0" name="top"/>
  <outline>
    <contour>
      <point x="164.78392857142856" y="-13.0" type="curve" smooth="yes"/>
      <point x="178.7625" y="-13.0"/>
      <point x="181.09464285714284" y="-9.003571428571428"/>
      <point x="181.09464285714284" y="-0.6821428571428569" type="curve" smooth="yes"/>
      <point x="181.09464285714284" y="84.8375"/>
      <point x="183.2607142857143" y="170.67857142857142"/>
      <point x="187.09464285714284" y="247.67857142857142" type="curve"/>
      <point x="192.92857142857142" y="241.34642857142856"/>
      <point x="208.0875" y="237.35714285714286"/>
      <point x="241.43035714285713" y="237.35714285714286" type="curve" smooth="yes"/>
      <point x="411.4089285714286" y="237.35714285714286"/>
      <point x="523.2285714285714" y="340.6821428571429"/>
      <point x="523.2285714285714" y="468.17321428571427" type="curve" smooth="yes"/>
      <point x="523.2285714285714" y="574.3357142857143"/>
      <point x="450.05892857142857" y="639.0"/>
      <point x="299.2214285714286" y="639.0" type="curve" smooth="yes"/>
      <point x="125.36071428571428" y="639.0" type="line"/>
      <point x="122.025" y="506.8910714285714"/>
      <point x="92.1875" y="34.46964285714286"/>
      <point x="92.1875" y="21.473214285714285" type="curve" smooth="yes"/>
      <point x="92.1875" y="-1.8410714285714285"/>
      <point x="134.975" y="-13.0"/>
    </contour>
    <contour>
      <point x="188.09464285714284" y="276.16964285714283" type="curve"/>
      <point x="195.6" y="407.91964285714283"/>
      <point x="208.93214285714285" y="546.8375"/>
      <point x="211.6" y="588.8589285714286" type="curve"/>
      <point x="227.27142857142857" y="590.5267857142857"/>
      <point x="242.10892857142858" y="593.8625"/>
      <point x="267.6142857142857" y="593.8625" type="curve" smooth="yes"/>
      <point x="396.65714285714284" y="593.8625"/>
      <point x="435.4946428571429" y="532.1910714285714"/>
      <point x="435.4946428571429" y="453.67857142857144" type="curve" smooth="yes"/>
      <point x="435.4946428571429" y="399.17321428571427"/>
      <point x="414.65714285714284" y="357.1767857142857"/>
      <point x="382.325" y="327.67857142857144" type="curve" smooth="yes"/>
      <point x="320.4732142857143" y="271.3285714285714"/>
      <point x="230.76964285714286" y="269.4982142857143"/>
    </contour>
  </outline>
</glyph>
<glyph name="Q" format="2">
  <advance width="751.325"/>
  <unicode hex="0051"/>
  <outline>
    <contour>
      <point x="694.0535714285714" y="-96.12678571428572" type="curve" smooth="yes"/>
      <point x="723.0285714285715" y="-96.12678571428572"/>
      <point x="745.6571428571428" y="-58.660714285714285"/>
      <point x="745.6571428571428" y="-37.35" type="curve" smooth="yes"/>
      <point x="745.6571428571428" y="-33.1875"/>
      <point x="744.325" y="-29.519642857142856"/>
      <point x="737.1589285714285" y="-29.1875" type="curve" smooth="yes"/>
      <point x="665.9714285714285" y="-27.85892857142857"/>
      <point x="567.9571428571429" y="-7.530357142857143"/>
      <point x="480.08392857142854" y="6.299999999999999" type="curve"/>
      <point x="612.625" y="40.628571428571426"/>
      <point x="697.1375" y="170.81607142857143"/>
      <point x="697.1375" y="351.65714285714284" type="curve" smooth="yes"/>
      <point x="697.1375" y="545.7696428571428"/>
      <point x="596.1803571428571" y="652.0"/>
      <point x="388.4767857142857" y="652.0" type="curve" smooth="yes"/>
      <point x="172.64285714285714" y="652.0"/>
      <point x="64.17678571428571" y="520.6142857142858"/>
      <point x="64.17678571428571" y="288.34285714285716" type="curve" smooth="yes"/>
      <point x="64.17678571428571" y="133.68571428571428"/>
      <point x="130.8375" y="31.332142857142856"/>
      <point x="279.5160714285714" y="-3.335714285714286" type="curve" smooth="yes"/>
      <point x="378.5625" y="-26.34642857142857"/>
      <point x="566.7071428571429" y="-77.63571428571429"/>
      <point x="644.7214285714285" y="-89.96428571428571" type="curve" smooth="yes"/>
      <point x="669.5589285714286" y="-93.4625"/>
      <point x="683.3928571428571" y="-96.12678571428572"/>
    </contour>
    <contour>
      <point x="381.64285714285717" y="28.317857142857143" type="curve" smooth="yes"/>
      <point x="221.58928571428572" y="28.317857142857143"/>
      <point x="152.91071428571428" y="130.68214285714285"/>
      <point x="152.91071428571428" y="289.8482142857143" type="curve" smooth="yes"/>
      <point x="152.91071428571428" y="470.05357142857144"/>
      <point x="222.44821428571427" y="609.1875"/>
      <point x="379.6714285714286" y="609.1875" type="curve" smooth="yes"/>
      <point x="539.725" y="609.1875"/>
      <point x="608.4035714285715" y="507.49107142857144"/>
      <point x="608.4035714285715" y="348.8232142857143" type="curve" smooth="yes"/>
      <point x="608.4035714285715" y="167.28571428571428"/>
      <point x="539.0321428571428" y="28.317857142857143"/>
    </contour>
  </outline>
</glyph>
<glyph name="R" format="2">
  <advance width="587.0910714285715"/>
  <unicode hex="0052"/>
  <anchor x="289.29285714285714" y="0.0" name="bottom"/>
  <anchor x="323.29285714285714" y="652.0" name="top"/>
  <outline>
    <contour>
      <point x="164.78392857142856" y="-13.0" type="curve" smooth="yes"/>
      <point x="178.7625" y="-13.0"/>
      <point x="181.2607142857143" y="-9.003571428571428"/>
      <point x="181.2607142857143" y="-0.6821428571428569" type="curve" smooth="yes"/>
      <point x="181.2607142857143" y="108.01428571428572"/>
      <point x="184.4267857142857" y="210.02857142857144"/>
      <point x="190.09464285714284" y="299.36071428571427" type="curve"/>
      <point x="197.59285714285716" y="290.0285714285714"/>
      <point x="217.75535714285715" y="286.5339285714286"/>
      <point x="225.92142857142858" y="284.03214285714284" type="curve"/>
      <point x="277.4160714285714" y="231.74285714285713"/>
      <point x="395.62857142857143" y="108.22678571428571"/>
      <point x="486.8517857142857" y="7.833928571428571" type="curve" smooth="yes"/>
      <point x="498.01785714285717" y="-4.996428571428572"/>
      <point x="508.35" y="-13.0"/>
      <point x="520.8410714285715" y="-13.0" type="curve" smooth="yes"/>
      <point x="543.6535714285715" y="-13.0"/>
      <point x="584.6" y="11.982142857142858"/>
      <point x="584.6" y="22.635714285714286" type="curve" smooth="yes"/>
      <point x="584.6" y="26.632142857142856"/>
      <point x="582.9357142857143" y="30.798214285714288"/>
      <point x="574.7732142857143" y="39.7875" type="curve" smooth="yes"/>
      <point x="556.4482142857142" y="59.26428571428571"/>
      <point x="361.35535714285714" y="263.82678571428573"/>
      <point x="323.1714285714286" y="304.6714285714286" type="curve"/>
      <point x="438.3767857142857" y="316.1589285714286"/>
      <point x="514.2214285714285" y="404.8410714285714"/>
      <point x="514.2214285714285" y="488.8410714285714" type="curve" smooth="yes"/>
      <point x="514.2214285714285" y="571.1482142857143"/>
      <point x="453.2285714285714" y="639.0"/>
      <point x="310.89642857142854" y="639.0" type="curve" smooth="yes"/>
      <point x="127.8625" y="639.0" type="line"/>
      <point x="122.85892857142858" y="511.89464285714286"/>
      <point x="92.1875" y="34.46964285714286"/>
      <point x="92.1875" y="21.473214285714285" type="curve" smooth="yes"/>
      <point x="92.1875" y="-1.8410714285714285"/>
      <point x="134.975" y="-13.0"/>
    </contour>
    <contour>
      <point x="191.92857142857142" y="326.5160714285714" type="curve"/>
      <point x="198.76607142857142" y="457.5982142857143"/>
      <point x="209.76607142857142" y="553.0214285714286"/>
      <point x="213.43392857142857" y="589.6928571428572" type="curve"/>
      <point x="228.76964285714286" y="592.1946428571429"/>
      <point x="243.10535714285714" y="593.8625"/>
      <point x="265.94642857142856" y="593.8625" type="curve" smooth="yes"/>
      <point x="388.1517857142857" y="593.8625"/>
      <point x="426.4875" y="545.8625"/>
      <point x="426.4875" y="475.18392857142857" type="curve" smooth="yes"/>
      <point x="426.4875" y="435.18392857142857"/>
      <point x="410.98571428571427" y="404.6892857142857"/>
      <point x="386.15535714285716" y="380.6928571428571" type="curve" smooth="yes"/>
      <point x="334.97857142857146" y="332.01785714285717"/>
      <point x="248.28571428571428" y="320.67857142857144"/>
    </contour>
  </outline>
</glyph>
<glyph name="S" format="2">
  <advance width="525.6321428571429"/>
  <unicode hex="0053"/>
  <anchor x="238.97857142857143" y="0.0" name="bottom"/>
  <anchor x="298.3285714285714" y="652.0" name="top"/>
  <outline>
    <contour>
      <point x="248.31071428571428" y="-13.0" type="curve" smooth="yes"/>
      <point x="342.2857142857143" y="-13.0"/>
      <point x="449.4482142857143" y="60.82678571428571"/>
      <point x="449.4482142857143" y="179.15178571428572" type="curve" smooth="yes"/>
      <point x="449.4482142857143" y="221.65357142857144"/>
      <point x="433.44107142857143" y="256.64642857142854"/>
      <point x="400.2785714285714" y="289.3071428571429" type="curve" smooth="yes"/>
      <point x="363.79464285714283" y="325.45535714285717"/>
      <point x="266.11607142857144" y="382.4732142857143"/>
      <point x="231.4517857142857" y="416.63928571428573" type="curve" smooth="yes"/>
      <point x="203.60714285714286" y="444.3178571428571"/>
      <point x="190.26785714285714" y="472.33214285714286"/>
      <point x="190.26785714285714" y="506.5125" type="curve" smooth="yes"/>
      <point x="190.26785714285714" y="576.0392857142857"/>
      <point x="241.61785714285713" y="598.5517857142858"/>
      <point x="276.62142857142857" y="598.5517857142858" type="curve" smooth="yes"/>
      <point x="347.63214285714287" y="598.5517857142858"/>
      <point x="387.9642857142857" y="562.8732142857143"/>
      <point x="412.9607142857143" y="540.3678571428571" type="curve" smooth="yes"/>
      <point x="424.9607142857143" y="529.3642857142858"/>
      <point x="432.7910714285714" y="521.3607142857143"/>
      <point x="439.45535714285717" y="521.3607142857143" type="curve" smooth="yes"/>
      <point x="450.2857142857143" y="521.3607142857143"/>
      <point x="455.95" y="538.5196428571429"/>
      <point x="455.95" y="568.5125" type="curve" smooth="yes"/>
      <point x="455.95" y="577.6678571428571"/>
      <point x="453.61785714285713" y="587.8303571428571"/>
      <point x="444.62857142857143" y="595.4910714285714" type="curve" smooth="yes"/>
      <point x="405.4732142857143" y="634.1589285714285"/>
      <point x="343.4839285714286" y="652.0"/>
      <point x="290.325" y="652.0" type="curve" smooth="yes"/>
      <point x="163.0" y="652.0"/>
      <point x="105.85892857142858" y="567.5053571428572"/>
      <point x="105.85892857142858" y="478.69642857142856" type="curve" smooth="yes"/>
      <point x="105.85892857142858" y="427.025"/>
      <point x="126.86607142857143" y="387.86607142857144"/>
      <point x="162.35357142857143" y="354.7107142857143" type="curve" smooth="yes"/>
      <point x="209.1875" y="311.04285714285714"/>
      <point x="295.20178571428573" y="264.19464285714287"/>
      <point x="330.03214285714284" y="226.8625" type="curve" smooth="yes"/>
      <point x="352.7035714285714" y="202.5232142857143"/>
      <point x="366.8767857142857" y="176.34642857142856"/>
      <point x="366.8767857142857" y="141.83035714285714" type="curve" smooth="yes"/>
      <point x="366.8767857142857" y="71.4625"/>
      <point x="300.01428571428573" y="42.783928571428575"/>
      <point x="260.18035714285713" y="42.783928571428575" type="curve" smooth="yes"/>
      <point x="193.83392857142857" y="42.783928571428575"/>
      <point x="142.6642857142857" y="74.12678571428572"/>
      <point x="113.49464285714286" y="97.63571428571429" type="curve" smooth="yes"/>
      <point x="94.99642857142857" y="112.47321428571429"/>
      <point x="85.66785714285714" y="123.31071428571428"/>
      <point x="80.67142857142858" y="123.31071428571428" type="curve" smooth="yes"/>
      <point x="68.84107142857142" y="123.31071428571428"/>
      <point x="63.84464285714286" y="85.30357142857143"/>
      <point x="63.84464285714286" y="71.15535714285714" type="curve" smooth="yes"/>
      <point x="63.84464285714286" y="62.169642857142854"/>
      <point x="65.50892857142857" y="50.17321428571429"/>
      <point x="77.49107142857143" y="41.346428571428575" type="curve" smooth="yes"/>
      <point x="111.64642857142857" y="12.342857142857143"/>
      <point x="164.8125" y="-13.0"/>
    </contour>
  </outline>
</glyph>
<glyph name="U" format="2">
  <advance width="706.6714285714286"/>
  <unicode hex="0055"/>
  <anchor x="352.3178571428571" y="0.0" name="bottom"/>
  <anchor x="423.5285714285714" y="1.6607142857142856" name="ogonek"/>
  <anchor x="387.98571428571427" y="652.0" name="top"/>
  <anchor x="639.6535714285715" y="608.0" name="topright"/>
  <outline>
    <contour>
      <point x="341.3285714285714" y="-13.0" type="curve" smooth="yes"/>
      <point x="426.3142857142857" y="-13.0"/>
      <point x="490.63928571428573" y="7.1625"/>
      <point x="537.9678571428572" y="50.65714285714286" type="curve" smooth="yes"/>
      <point x="633.1339285714286" y="138.32142857142858"/>
      <point x="662.1339285714286" y="318.6607142857143"/>
      <point x="662.1339285714286" y="618.3607142857143" type="curve" smooth="yes"/>
      <point x="662.1339285714286" y="641.675"/>
      <point x="632.8267857142857" y="652.0"/>
      <point x="608.8375" y="652.0" type="curve" smooth="yes"/>
      <point x="596.8482142857143" y="652.0"/>
      <point x="595.5160714285714" y="648.8375"/>
      <point x="595.5160714285714" y="640.5160714285714" type="curve" smooth="yes"/>
      <point x="595.5160714285714" y="301.30357142857144"/>
      <point x="563.8446428571428" y="153.46607142857144"/>
      <point x="501.83035714285717" y="89.96071428571429" type="curve" smooth="yes"/>
      <point x="468.9892857142857" y="56.79107142857143"/>
      <point x="414.975" y="38.957142857142856"/>
      <point x="369.1303571428571" y="38.957142857142856" type="curve" smooth="yes"/>
      <point x="312.28214285714284" y="38.957142857142856"/>
      <point x="260.76964285714286" y="53.625"/>
      <point x="227.09464285714284" y="90.96071428571429" type="curve" smooth="yes"/>
      <point x="186.91785714285714" y="135.13035714285715"/>
      <point x="172.4125" y="220.6357142857143"/>
      <point x="172.4125" y="313.64285714285717" type="curve" smooth="yes"/>
      <point x="172.4125" y="412.4946428571429"/>
      <point x="189.9142857142857" y="585.6785714285714"/>
      <point x="189.9142857142857" y="618.3607142857143" type="curve" smooth="yes"/>
      <point x="189.9142857142857" y="641.675"/>
      <point x="147.12678571428572" y="652.0"/>
      <point x="117.31785714285715" y="652.0" type="curve" smooth="yes"/>
      <point x="102.50535714285714" y="652.0"/>
      <point x="101.33928571428571" y="648.8375"/>
      <point x="100.84107142857142" y="640.5160714285714" type="curve" smooth="yes"/>
      <point x="100.675" y="630.5160714285714"/>
      <point x="84.84107142857142" y="454.5053571428571"/>
      <point x="84.50892857142857" y="298.0" type="curve" smooth="yes"/>
      <point x="84.34285714285714" y="195.0"/>
      <point x="98.17678571428571" y="104.16607142857143"/>
      <point x="149.00714285714287" y="53.332142857142856" type="curve" smooth="yes"/>
      <point x="192.00357142857143" y="10.332142857142857"/>
      <point x="266.83392857142854" y="-13.0"/>
    </contour>
  </outline>
</glyph>
<glyph name="V" format="2">
  <advance width="619.3285714285714"/>
  <unicode hex="0056"/>
  <anchor x="283.6535714285714" y="0.0" name="bottom"/>
  <anchor x="342.97857142857146" y="652.0" name="top"/>
  <outline>
    <contour>
      <point x="301.63214285714287" y="-13.0" type="curve" smooth="yes"/>
      <point x="314.11607142857144" y="-13.0"/>
      <point x="317.2785714285714" y="-10.169642857142858"/>
      <point x="320.7767857142857" y="-3.6750000000000003" type="curve" smooth="yes"/>
      <point x="374.13392857142856" y="99.02857142857142"/>
      <point x="575.3607142857143" y="519.6375"/>
      <point x="612.1517857142857" y="600.8767857142857" type="curve" smooth="yes"/>
      <point x="615.1482142857143" y="607.0357142857143"/>
      <point x="618.4803571428571" y="614.0321428571428"/>
      <point x="618.4803571428571" y="618.1946428571429" type="curve" smooth="yes"/>
      <point x="618.4803571428571" y="639.1732142857143"/>
      <point x="590.6642857142857" y="652.0"/>
      <point x="567.8375" y="652.0" type="curve" smooth="yes"/>
      <point x="561.675" y="652.0"/>
      <point x="558.1767857142858" y="650.6678571428571"/>
      <point x="556.0107142857142" y="643.5017857142857" type="curve" smooth="yes"/>
      <point x="523.5160714285714" y="545.3428571428572"/>
      <point x="337.95714285714286" y="145.24642857142857"/>
      <point x="300.62857142857143" y="84.09464285714286" type="curve"/>
      <point x="265.11607142857144" y="167.10892857142858"/>
      <point x="144.56071428571428" y="585.0285714285715"/>
      <point x="134.05535714285713" y="619.8625" type="curve" smooth="yes"/>
      <point x="130.8892857142857" y="635.0071428571429"/>
      <point x="100.94285714285715" y="652.0"/>
      <point x="53.80535714285714" y="652.0" type="curve" smooth="yes"/>
      <point x="39.15535714285714" y="652.0"/>
      <point x="35.830357142857146" y="649.3357142857143"/>
      <point x="35.830357142857146" y="642.8410714285715" type="curve" smooth="yes"/>
      <point x="35.830357142857146" y="638.5089285714286"/>
      <point x="37.1625" y="635.5125"/>
      <point x="40.1625" y="626.1803571428571" type="curve" smooth="yes"/>
      <point x="63.176785714285714" y="547.6321428571429"/>
      <point x="205.8875" y="103.40535714285714"/>
      <point x="231.38214285714287" y="15.964285714285714" type="curve" smooth="yes"/>
      <point x="235.54464285714286" y="-0.010714285714285676"/>
      <point x="266.5053571428571" y="-13.0"/>
    </contour>
  </outline>
</glyph>
<glyph name="W" format="2">
  <advance width="967.7982142857143"/>
  <unicode hex="0057"/>
  <anchor x="477.1517857142857" y="0.0" name="bottom"/>
  <anchor x="519.4553571428571" y="652.0" name="top"/>
  <outline>
    <contour>
      <point x="218.60714285714286" y="-13.0" type="curve" smooth="yes"/>
      <point x="230.59285714285716" y="-13.0"/>
      <point x="234.25714285714287" y="-11.501785714285715"/>
      <point x="238.75535714285715" y="-1.5089285714285716" type="curve" smooth="yes"/>
      <point x="249.25" y="22.30357142857143"/>
      <point x="404.7767857142857" y="339.6714285714286"/>
      <point x="488.4732142857143" y="528.7428571428571" type="curve"/>
      <point x="531.6535714285715" y="406.05"/>
      <point x="670.5482142857143" y="61.45892857142857"/>
      <point x="681.8803571428572" y="18.97142857142857" type="curve" smooth="yes"/>
      <point x="686.8767857142857" y="-1.0107142857142857"/>
      <point x="724.6678571428571" y="-13.0"/>
      <point x="761.8089285714286" y="-13.0" type="curve" smooth="yes"/>
      <point x="775.4625" y="-13.0"/>
      <point x="783.1125" y="-9.667857142857143"/>
      <point x="784.7767857142857" y="4.992857142857143" type="curve" smooth="yes"/>
      <point x="793.9285714285714" y="66.93928571428572"/>
      <point x="948.6107142857143" y="602.2160714285715"/>
      <point x="948.6107142857143" y="618.3607142857143" type="curve" smooth="yes"/>
      <point x="948.6107142857143" y="641.675"/>
      <point x="917.1267857142857" y="652.0"/>
      <point x="894.9678571428572" y="652.0" type="curve" smooth="yes"/>
      <point x="886.1375" y="652.0"/>
      <point x="884.6428571428571" y="650.0"/>
      <point x="884.3107142857143" y="641.8446428571428" type="curve" smooth="yes"/>
      <point x="883.4803571428571" y="587.0142857142857"/>
      <point x="789.3142857142857" y="248.49821428571428"/>
      <point x="746.4625" y="89.59285714285714" type="curve"/>
      <point x="692.6071428571429" y="208.6142857142857"/>
      <point x="588.9071428571428" y="508.1589285714286"/>
      <point x="542.0482142857143" y="627.0285714285715" type="curve" smooth="yes"/>
      <point x="537.7160714285715" y="641.0107142857142"/>
      <point x="512.7589285714286" y="652.0"/>
      <point x="487.9607142857143" y="652.0" type="curve" smooth="yes"/>
      <point x="478.64285714285717" y="652.0"/>
      <point x="473.97857142857146" y="647.4982142857143"/>
      <point x="471.81607142857143" y="641.1767857142858" type="curve" smooth="yes"/>
      <point x="411.95714285714286" y="489.2857142857143"/>
      <point x="307.6535714285714" y="249.35714285714286"/>
      <point x="220.59642857142856" y="89.75892857142857" type="curve"/>
      <point x="191.7625" y="232.73035714285714"/>
      <point x="148.74464285714285" y="599.3785714285714"/>
      <point x="148.4125" y="617.1982142857142" type="curve" smooth="yes"/>
      <point x="147.9142857142857" y="640.1803571428571"/>
      <point x="102.96071428571429" y="652.0"/>
      <point x="75.65357142857142" y="652.0" type="curve" smooth="yes"/>
      <point x="62.83392857142857" y="652.0"/>
      <point x="56.67857142857143" y="649.6678571428571"/>
      <point x="56.67857142857143" y="640.5053571428572" type="curve" smooth="yes"/>
      <point x="56.67857142857143" y="636.3392857142857"/>
      <point x="57.176785714285714" y="628.1767857142858"/>
      <point x="58.34285714285714" y="619.5125" type="curve" smooth="yes"/>
      <point x="67.67857142857143" y="535.9785714285714"/>
      <point x="122.67142857142858" y="194.55535714285713"/>
      <point x="142.68214285714285" y="22.307142857142857" type="curve" smooth="yes"/>
      <point x="145.0142857142857" y="-2.6750000000000003"/>
      <point x="188.47321428571428" y="-13.0"/>
    </contour>
  </outline>
</glyph>
<glyph name="X" format="2">
  <advance width="597.1696428571429"/>
  <unicode hex="0058"/>
  <anchor x="281.36785714285713" y="0.0" name="bottom"/>
  <anchor x="342.9714285714286" y="645.1660714285714" name="top"/>
  <outline>
    <contour>
      <point x="55.31428571428572" y="-13.0" type="curve" smooth="yes"/>
      <point x="59.480357142857144" y="-13.0"/>
      <point x="62.144642857142856" y="-12.169642857142858"/>
      <point x="73.14107142857142" y="3.3249999999999997" type="curve" smooth="yes"/>
      <point x="127.99642857142857" y="79.85535714285714"/>
      <point x="203.15535714285716" y="172.67142857142858"/>
      <point x="291.8625" y="281.38928571428573" type="curve"/>
      <point x="341.3642857142857" y="203.7392857142857"/>
      <point x="454.91607142857146" y="26.007142857142856"/>
      <point x="474.7607142857143" y="1.3285714285714285" type="curve" smooth="yes"/>
      <point x="482.7607142857143" y="-9.501785714285715"/>
      <point x="487.5839285714286" y="-13.0"/>
      <point x="497.075" y="-13.0" type="curve" smooth="yes"/>
      <point x="514.2232142857143" y="-13.0"/>
      <point x="540.3678571428571" y="-2.1732142857142858"/>
      <point x="556.3535714285714" y="9.4875" type="curve" smooth="yes"/>
      <point x="564.675" y="15.148214285714285"/>
      <point x="567.0035714285714" y="18.978571428571428"/>
      <point x="567.0035714285714" y="21.639285714285712" type="curve" smooth="yes"/>
      <point x="567.0035714285714" y="23.46964285714286"/>
      <point x="563.0035714285714" y="29.46964285714286"/>
      <point x="556.5017857142857" y="39.1375" type="curve" smooth="yes"/>
      <point x="524.0035714285714" y="86.79107142857143"/>
      <point x="436.975" y="206.975"/>
      <point x="359.61785714285713" y="331.33214285714286" type="curve"/>
      <point x="424.60714285714283" y="411.49107142857144"/>
      <point x="478.2785714285714" y="481.50892857142856"/>
      <point x="536.4732142857143" y="565.7071428571429" type="curve" smooth="yes"/>
      <point x="541.6392857142857" y="574.5375"/>
      <point x="543.8053571428571" y="580.8660714285714"/>
      <point x="543.8053571428571" y="589.5303571428572" type="curve" smooth="yes"/>
      <point x="543.8053571428571" y="617.35"/>
      <point x="525.325" y="652.0"/>
      <point x="512.6571428571428" y="652.0" type="curve" smooth="yes"/>
      <point x="509.325" y="652.0"/>
      <point x="507.4946428571429" y="649.5017857142857"/>
      <point x="502.3357142857143" y="640.6785714285714" type="curve" smooth="yes"/>
      <point x="480.00357142857143" y="591.6678571428571"/>
      <point x="399.3357142857143" y="467.65714285714284"/>
      <point x="330.64285714285717" y="378.9535714285714" type="curve"/>
      <point x="259.7910714285714" y="484.9607142857143"/>
      <point x="197.60714285714286" y="587.975"/>
      <point x="163.5857142857143" y="642.5089285714286" type="curve" smooth="yes"/>
      <point x="158.75535714285715" y="650.1696428571429"/>
      <point x="151.43035714285713" y="652.0"/>
      <point x="140.10535714285714" y="652.0" type="curve" smooth="yes"/>
      <point x="114.45535714285714" y="652.0"/>
      <point x="73.01071428571429" y="632.0142857142857"/>
      <point x="73.01071428571429" y="619.8625" type="curve" smooth="yes"/>
      <point x="73.01071428571429" y="616.3642857142858"/>
      <point x="74.34285714285714" y="613.5339285714285"/>
      <point x="80.01071428571429" y="604.7" type="curve" smooth="yes"/>
      <point x="103.33571428571429" y="568.2196428571428"/>
      <point x="169.8517857142857" y="477.2232142857143"/>
      <point x="262.21964285714284" y="330.3464285714286" type="curve"/>
      <point x="186.55892857142857" y="238.68214285714285"/>
      <point x="114.54464285714286" y="157.15892857142856"/>
      <point x="33.83392857142857" y="64.12321428571428" type="curve" smooth="yes"/>
      <point x="28.0" y="57.292857142857144"/>
      <point x="25.833928571428572" y="52.79821428571429"/>
      <point x="25.833928571428572" y="46.801785714285714" type="curve" smooth="yes"/>
      <point x="25.833928571428572" y="22.65714285714286"/>
      <point x="41.808928571428574" y="-13.0"/>
    </contour>
  </outline>
</glyph>
<glyph name="Y" format="2">
  <advance width="561.6821428571428"/>
  <unicode hex="0059"/>
  <anchor x="274.6821428571429" y="0.0" name="bottom"/>
  <anchor x="312.00357142857143" y="642.0" name="top"/>
  <anchor x="90.68214285714285" y="652.0" name="topleft"/>
  <outline>
    <contour>
      <point x="303.9892857142857" y="-13.0" type="curve" smooth="yes"/>
      <point x="318.8017857142857" y="-13.0"/>
      <point x="320.4660714285714" y="-9.003571428571428"/>
      <point x="320.4660714285714" y="-0.6821428571428569" type="curve" smooth="yes"/>
      <point x="322.96785714285716" y="84.33571428571429"/>
      <point x="325.96785714285716" y="169.84821428571428"/>
      <point x="328.96785714285716" y="258.6857142857143" type="curve"/>
      <point x="379.4839285714286" y="348.71785714285716"/>
      <point x="491.1517857142857" y="518.0464285714286"/>
      <point x="522.6607142857143" y="572.2303571428572" type="curve" smooth="yes"/>
      <point x="531.8232142857142" y="587.725"/>
      <point x="534.6535714285715" y="597.5446428571429"/>
      <point x="534.6535714285715" y="604.8660714285714" type="curve" smooth="yes"/>
      <point x="534.6535714285715" y="623.3428571428572"/>
      <point x="518.0071428571429" y="652.0"/>
      <point x="503.8410714285714" y="652.0" type="curve" smooth="yes"/>
      <point x="498.84464285714284" y="652.0"/>
      <point x="495.5125" y="648.6714285714286"/>
      <point x="491.35357142857146" y="640.6857142857143" type="curve" smooth="yes"/>
      <point x="476.5267857142857" y="612.1982142857142"/>
      <point x="365.325" y="422.81607142857143"/>
      <point x="306.48035714285714" y="330.1303571428571" type="curve"/>
      <point x="274.80535714285713" y="389.29285714285714"/>
      <point x="219.44464285714287" y="504.83035714285717"/>
      <point x="149.7375" y="621.0321428571428" type="curve" smooth="yes"/>
      <point x="137.06964285714287" y="648.0107142857142"/>
      <point x="89.11964285714285" y="652.0"/>
      <point x="64.49107142857143" y="652.0" type="curve" smooth="yes"/>
      <point x="45.010714285714286" y="652.0"/>
      <point x="40.68214285714286" y="648.5053571428572"/>
      <point x="40.68214285714286" y="640.1767857142858" type="curve" smooth="yes"/>
      <point x="40.68214285714286" y="635.3428571428572"/>
      <point x="47.519642857142856" y="624.6714285714286"/>
      <point x="52.02142857142857" y="617.1696428571429" type="curve" smooth="yes"/>
      <point x="74.675" y="580.0357142857143"/>
      <point x="142.675" y="474.4321428571429"/>
      <point x="248.23035714285714" y="272.675" type="curve"/>
      <point x="241.39642857142857" y="182.1875"/>
      <point x="231.39285714285714" y="32.14107142857143"/>
      <point x="231.39285714285714" y="21.473214285714285" type="curve" smooth="yes"/>
      <point x="231.39285714285714" y="-1.8410714285714285"/>
      <point x="274.18035714285713" y="-13.0"/>
    </contour>
  </outline>
</glyph>
<glyph name="Z" format="2">
  <advance width="545.6428571428571"/>
  <unicode hex="005A"/>
  <anchor x="288.66785714285714" y="0.0" name="bottom"/>
  <anchor x="270.6857142857143" y="326.0" name="center"/>
  <anchor x="311.00714285714287" y="652.0" name="top"/>
  <outline>
    <contour>
      <point x="132.24464285714285" y="106.11964285714285" type="curve" smooth="yes"/>
      <point x="419.5642857142857" y="106.11964285714285" type="line" smooth="yes"/>
      <point x="422.24285714285713" y="106.11964285714285"/>
      <point x="428.09464285714284" y="122.47678571428571"/>
      <point x="428.09464285714284" y="129.02499999999998" type="curve" smooth="yes"/>
      <point x="428.09464285714284" y="131.21964285714284"/>
      <point x="426.75892857142856" y="134.90178571428572"/>
      <point x="423.7517857142857" y="134.90178571428572" type="curve" smooth="yes"/>
      <point x="419.24285714285713" y="134.90178571428572"/>
      <point x="412.3410714285714" y="124.55178571428571"/>
      <point x="208.98928571428573" y="124.55178571428571" type="curve" smooth="yes"/>
      <point x="144.21785714285716" y="124.55178571428571" type="line"/>
      <point x="150.40892857142856" y="139.25892857142856"/>
      <point x="403.0732142857143" y="489.3875"/>
      <point x="416.43035714285713" y="506.5892857142857" type="curve" smooth="yes"/>
      <point x="421.9392857142857" y="512.9357142857143"/>
      <point x="422.7732142857143" y="519.9464285714286"/>
      <point x="422.7732142857143" y="523.7910714285714" type="curve" smooth="yes"/>
      <point x="422.7732142857143" y="531.9785714285714"/>
      <point x="420.7482142857143" y="532.8803571428572"/>
      <point x="418.3910714285714" y="532.8803571428572" type="curve" smooth="yes"/>
      <point x="175.9267857142857" y="532.8803571428572" type="line" smooth="yes"/>
      <point x="170.74642857142857" y="532.8803571428572"/>
      <point x="166.5625" y="517.0214285714286"/>
      <point x="166.5625" y="507.4767857142857" type="curve" smooth="yes"/>
      <point x="166.5625" y="506.1125"/>
      <point x="167.06428571428572" y="504.0982142857143"/>
      <point x="170.07142857142856" y="504.0982142857143" type="curve" smooth="yes"/>
      <point x="179.58392857142857" y="504.0982142857143"/>
      <point x="174.81071428571428" y="515.2821428571428"/>
      <point x="345.63928571428573" y="515.2821428571428" type="curve" smooth="yes"/>
      <point x="406.75357142857143" y="515.2821428571428" type="line"/>
      <point x="355.54464285714283" y="425.2035714285714"/>
      <point x="206.77142857142857" y="225.66607142857143"/>
      <point x="134.0392857142857" y="129.9089285714286" type="curve" smooth="yes"/>
      <point x="128.69642857142856" y="123.5625"/>
      <point x="128.69642857142856" y="121.55535714285713"/>
      <point x="128.69642857142856" y="118.54464285714285" type="curve" smooth="yes"/>
      <point x="128.69642857142856" y="110.35714285714285"/>
      <point x="129.8875" y="106.11964285714285"/>
    </contour>
  </outline>
</glyph>
<glyph name="bracketleft" format="2">
  <advance width="325.78035714285716"/>
  <unicode hex="005B"/>
  <outline>
    <contour>
      <point x="80.01428571428572" y="-244.0" type="curve"/>
      <point x="270.9642857142857" y="-244.0" type="line" smooth="yes"/>
      <point x="287.62857142857143" y="-244.0"/>
      <point x="293.2964285714286" y="-223.01785714285714"/>
      <point x="293.2964285714286" y="-201.67857142857142" type="curve" smooth="yes"/>
      <point x="293.2964285714286" y="-193.68571428571428"/>
      <point x="292.4625" y="-190.35357142857143"/>
      <point x="287.4625" y="-190.35357142857143" type="curve" smooth="yes"/>
      <point x="283.1303571428571" y="-190.35357142857143"/>
      <point x="260.80535714285713" y="-195.01785714285714"/>
      <point x="159.7625" y="-197.51964285714286" type="curve"/>
      <point x="159.92857142857142" y="106.27678571428571"/>
      <point x="201.09464285714284" y="643.6607142857143"/>
      <point x="206.43035714285713" y="708.6821428571428" type="curve"/>
      <point x="289.63214285714287" y="707.8482142857143"/>
      <point x="321.63214285714287" y="704.0142857142857"/>
      <point x="326.1303571428571" y="704.0142857142857" type="curve" smooth="yes"/>
      <point x="331.4625" y="704.0142857142857"/>
      <point x="337.1303571428571" y="724.675"/>
      <point x="337.1303571428571" y="740.5053571428572" type="curve" smooth="yes"/>
      <point x="337.1303571428571" y="753.3357142857143"/>
      <point x="334.9642857142857" y="756.0"/>
      <point x="327.3" y="756.0" type="curve" smooth="yes"/>
      <point x="130.0142857142857" y="756.0" type="line"/>
      <point x="123.01428571428572" y="550.0"/>
      <point x="80.01428571428572" y="-189.0"/>
    </contour>
  </outline>
</glyph>
<glyph name="backslash" format="2">
  <advance width="517.0357142857143"/>
  <unicode hex="005C"/>
  <outline>
    <contour>
      <point x="393.4107142857143" y="-34.16607142857143" type="curve" smooth="yes"/>
      <point x="410.8982142857143" y="-34.16607142857143"/>
      <point x="446.01428571428573" y="-20.67857142857143"/>
      <point x="446.01428571428573" y="-6.858928571428572" type="curve" smooth="yes"/>
      <point x="446.01428571428573" y="-2.696428571428571"/>
      <point x="442.51964285714286" y="6.7875"/>
      <point x="439.85535714285714" y="13.946428571428571" type="curve" smooth="yes"/>
      <point x="353.96785714285716" y="201.725"/>
      <point x="249.4767857142857" y="456.7625"/>
      <point x="160.59285714285716" y="651.0178571428571" type="curve" smooth="yes"/>
      <point x="152.7625" y="671.3321428571429"/>
      <point x="144.93928571428572" y="675.0"/>
      <point x="131.44821428571427" y="675.0" type="curve" smooth="yes"/>
      <point x="106.30357142857143" y="675.0"/>
      <point x="78.84464285714286" y="661.0142857142857"/>
      <point x="78.84464285714286" y="647.5267857142857" type="curve" smooth="yes"/>
      <point x="78.84464285714286" y="643.5303571428572"/>
      <point x="82.33928571428571" y="634.0464285714286"/>
      <point x="85.00357142857143" y="626.8875" type="curve" smooth="yes"/>
      <point x="120.85535714285714" y="550.0214285714286"/>
      <point x="311.56607142857143" y="121.5625"/>
      <point x="364.2660714285714" y="-10.183928571428572" type="curve" smooth="yes"/>
      <point x="371.59464285714284" y="-30.332142857142856"/>
      <point x="379.91964285714283" y="-34.16607142857143"/>
    </contour>
  </outline>
</glyph>
<glyph name="bracketright" format="2">
  <advance width="345.78035714285716"/>
  <unicode hex="005D"/>
  <outline>
    <contour>
      <point x="1.8017857142857139" y="-244.0" type="curve" smooth="yes"/>
      <point x="199.92142857142858" y="-244.0" type="line"/>
      <point x="205.25357142857143" y="-50.50892857142857"/>
      <point x="249.92142857142858" y="739.3607142857143"/>
      <point x="249.92142857142858" y="756.0" type="curve"/>
      <point x="59.80535714285714" y="756.0" type="line" smooth="yes"/>
      <point x="42.30714285714286" y="756.0"/>
      <point x="36.63928571428571" y="735.0178571428571"/>
      <point x="36.63928571428571" y="713.6785714285714" type="curve" smooth="yes"/>
      <point x="36.63928571428571" y="705.6857142857143"/>
      <point x="37.473214285714285" y="702.3535714285714"/>
      <point x="42.473214285714285" y="702.3535714285714" type="curve" smooth="yes"/>
      <point x="46.80535714285714" y="702.3535714285714"/>
      <point x="69.13035714285715" y="707.0178571428571"/>
      <point x="171.00714285714287" y="708.6857142857143" type="curve"/>
      <point x="168.33928571428572" y="393.2142857142857"/>
      <point x="126.33928571428571" y="-144.16964285714286"/>
      <point x="122.67142857142858" y="-197.51607142857142" type="curve"/>
      <point x="39.46964285714286" y="-195.84821428571428"/>
      <point x="8.303571428571429" y="-192.0142857142857"/>
      <point x="3.805357142857143" y="-192.0142857142857" type="curve" smooth="yes"/>
      <point x="-1.5267857142857144" y="-192.0142857142857"/>
      <point x="-7.194642857142857" y="-212.675"/>
      <point x="-7.194642857142857" y="-228.50535714285715" type="curve" smooth="yes"/>
      <point x="-7.194642857142857" y="-241.3357142857143"/>
      <point x="-5.0285714285714285" y="-244.0"/>
    </contour>
  </outline>
</glyph>
<glyph name="asciicircum" format="2">
  <advance width="538.3392857142857"/>
  <unicode hex="005E"/>
  <outline>
    <contour>
      <point x="104.48035714285714" y="378.5053571428571" type="curve"/>
      <point x="122.47678571428571" y="402.17321428571427"/>
      <point x="234.66071428571428" y="509.37142857142857"/>
      <point x="303.17321428571427" y="563.8875" type="curve"/>
      <point x="346.50892857142856" y="513.2089285714286"/>
      <point x="427.5160714285714" y="400.675"/>
      <point x="439.3464285714286" y="378.5053571428571" type="curve"/>
      <point x="448.1589285714286" y="385.81964285714287"/>
      <point x="468.83392857142854" y="403.97857142857146"/>
      <point x="468.83392857142854" y="417.80892857142857" type="curve" smooth="yes"/>
      <point x="468.83392857142854" y="428.1410714285714"/>
      <point x="463.6642857142857" y="443.97857142857146"/>
      <point x="458.6642857142857" y="452.64285714285717" type="curve" smooth="yes"/>
      <point x="433.98571428571427" y="493.65714285714284"/>
      <point x="364.8125" y="595.5053571428572"/>
      <point x="326.6535714285714" y="642.8410714285715" type="curve" smooth="yes"/>
      <point x="319.6607142857143" y="650.5017857142857"/>
      <point x="313.4946428571429" y="652.0"/>
      <point x="307.66785714285714" y="652.0" type="curve" smooth="yes"/>
      <point x="301.50892857142856" y="652.0"/>
      <point x="296.0107142857143" y="650.3357142857143"/>
      <point x="287.6857142857143" y="642.8410714285715" type="curve" smooth="yes"/>
      <point x="259.8732142857143" y="620.1875"/>
      <point x="105.15178571428571" y="470.8017857142857"/>
      <point x="89.65357142857142" y="445.8017857142857" type="curve" smooth="yes"/>
      <point x="84.15892857142858" y="436.975"/>
      <point x="82.325" y="429.3107142857143"/>
      <point x="82.325" y="421.4839285714286" type="curve" smooth="yes"/>
      <point x="82.325" y="403.98214285714283"/>
      <point x="95.99642857142857" y="387.4875"/>
    </contour>
  </outline>
</glyph>
<glyph name="underscore" format="2">
  <advance width="500.0"/>
  <unicode hex="005F"/>
  <outline>
    <contour>
      <point x="-17.34285714285714" y="-140.0" type="curve" smooth="yes"/>
      <point x="496.65714285714284" y="-140.0" type="line" smooth="yes"/>
      <point x="513.6571428571428" y="-140.0"/>
      <point x="519.6571428571428" y="-119.0"/>
      <point x="519.6571428571428" y="-101.0" type="curve" smooth="yes"/>
      <point x="519.6571428571428" y="-95.0"/>
      <point x="516.6571428571428" y="-93.0"/>
      <point x="511.65714285714284" y="-93.0" type="curve" smooth="yes"/>
      <point x="-2.342857142857143" y="-93.0" type="line" smooth="yes"/>
      <point x="-19.34285714285714" y="-93.0"/>
      <point x="-25.34285714285714" y="-115.0"/>
      <point x="-25.34285714285714" y="-133.0" type="curve" smooth="yes"/>
      <point x="-25.34285714285714" y="-139.0"/>
      <point x="-22.34285714285714" y="-140.0"/>
    </contour>
  </outline>
</glyph>
<glyph name="a" format="2">
  <advance width="651.8089285714286"/>
  <unicode hex="0061"/>
  <anchor x="303.0" y="0.0" name="bottom"/>
  <anchor x="532.4875" y="10.0" name="ogonek"/>
  <anchor x="344.1482142857143" y="524.0" name="top"/>
  <outline>
    <contour>
      <point x="147.48035714285714" y="-13.0" type="curve" smooth="yes"/>
      <point x="208.81964285714287" y="-13.0"/>
      <point x="377.5053571428571" y="201.69642857142858"/>
      <point x="440.20535714285717" y="333.2446428571429" type="curve"/>
      <point x="434.8696428571429" y="251.70357142857142"/>
      <point x="428.5339285714286" y="124.81964285714285"/>
      <point x="428.5339285714286" y="71.1375" type="curve" smooth="yes"/>
      <point x="428.5339285714286" y="49.466071428571425"/>
      <point x="428.7" y="35.63214285714285"/>
      <point x="431.5339285714286" y="28.1375" type="curve" smooth="yes"/>
      <point x="436.86607142857144" y="10.494642857142857"/>
      <point x="482.325" y="-13.0"/>
      <point x="494.4875" y="-13.0" type="curve" smooth="yes"/>
      <point x="536.8196428571429" y="-13.0"/>
      <point x="623.8125" y="90.65714285714286"/>
      <point x="654.9857142857143" y="131.99642857142857" type="curve" smooth="yes"/>
      <point x="657.8160714285714" y="135.325"/>
      <point x="659.3142857142857" y="140.32142857142858"/>
      <point x="659.3142857142857" y="145.31785714285715" type="curve" smooth="yes"/>
      <point x="659.3142857142857" y="159.48035714285714"/>
      <point x="648.1517857142857" y="176.80892857142857"/>
      <point x="642.9892857142858" y="176.80892857142857" type="curve" smooth="yes"/>
      <point x="639.8232142857142" y="176.80892857142857"/>
      <point x="638.6571428571428" y="173.975"/>
      <point x="635.1589285714285" y="170.14464285714286" type="curve"/>
      <point x="616.4839285714286" y="145.3"/>
      <point x="544.9464285714286" y="62.091071428571425"/>
      <point x="527.7732142857143" y="62.091071428571425" type="curve" smooth="yes"/>
      <point x="516.4375" y="62.091071428571425"/>
      <point x="512.6035714285714" y="68.75892857142857"/>
      <point x="512.6035714285714" y="111.75178571428572" type="curve" smooth="yes"/>
      <point x="512.6035714285714" y="241.31785714285715"/>
      <point x="527.6071428571429" y="446.5160714285714"/>
      <point x="527.6071428571429" y="455.5160714285714" type="curve"/>
      <point x="532.7732142857143" y="455.5160714285714"/>
      <point x="540.4375" y="469.1767857142857"/>
      <point x="540.4375" y="488.6714285714286" type="curve" smooth="yes"/>
      <point x="540.4375" y="494.83392857142854"/>
      <point x="537.4375" y="495.83392857142854"/>
      <point x="535.7732142857143" y="496.0" type="curve" smooth="yes"/>
      <point x="445.98571428571427" y="513.9964285714286"/>
      <point x="345.80535714285713" y="524.0"/>
      <point x="317.0107142857143" y="524.0" type="curve" smooth="yes"/>
      <point x="244.3642857142857" y="524.0"/>
      <point x="183.52678571428572" y="483.66785714285714"/>
      <point x="134.69285714285715" y="417.0" type="curve" smooth="yes"/>
      <point x="83.69285714285715" y="348.0"/>
      <point x="80.69285714285715" y="141.16607142857143"/>
      <point x="80.69285714285715" y="71.1375" type="curve" smooth="yes"/>
      <point x="80.69285714285715" y="49.466071428571425"/>
      <point x="81.69285714285715" y="35.63214285714285"/>
      <point x="84.52678571428571" y="28.1375" type="curve" smooth="yes"/>
      <point x="89.85892857142858" y="10.494642857142857"/>
      <point x="135.31785714285715" y="-13.0"/>
    </contour>
    <contour>
      <point x="179.93214285714285" y="61.925" type="curve" smooth="yes"/>
      <point x="168.59642857142856" y="61.925"/>
      <point x="164.7625" y="68.59285714285714"/>
      <point x="164.7625" y="111.41964285714286" type="curve" smooth="yes"/>
      <point x="164.7625" y="343.81607142857143"/>
      <point x="213.44821428571427" y="476.5160714285714"/>
      <point x="291.79821428571427" y="476.5160714285714" type="curve" smooth="yes"/>
      <point x="326.3107142857143" y="476.5160714285714"/>
      <point x="377.16607142857146" y="472.01428571428573"/>
      <point x="449.20535714285717" y="457.675" type="curve"/>
      <point x="414.18035714285713" y="315.3464285714286"/>
      <point x="210.275" y="61.925"/>
    </contour>
  </outline>
</glyph>
<glyph name="b" format="2">
  <advance width="593.9571428571429"/>
  <unicode hex="0062"/>
  <anchor x="303.9892857142857" y="0.0" name="bottom"/>
  <anchor x="208.83035714285714" y="639.0" name="cross"/>
  <anchor x="427.46964285714284" y="524.0" name="top"/>
  <outline>
    <contour>
      <point x="316.79821428571427" y="-13.0" type="curve" smooth="yes"/>
      <point x="389.1125" y="-13.0"/>
      <point x="447.95" y="26.007142857142856"/>
      <point x="496.1089285714286" y="94.0" type="curve" smooth="yes"/>
      <point x="530.5964285714285" y="142.9857142857143"/>
      <point x="536.4375" y="273.9321428571429"/>
      <point x="536.4375" y="343.79464285714283" type="curve" smooth="yes"/>
      <point x="536.4375" y="434.01428571428573"/>
      <point x="533.7696428571428" y="472.03214285714284"/>
      <point x="528.4339285714286" y="482.8625" type="curve" smooth="yes"/>
      <point x="521.4339285714286" y="501.3392857142857"/>
      <point x="476.80892857142857" y="524.0"/>
      <point x="463.8125" y="524.0" type="curve" smooth="yes"/>
      <point x="402.4732142857143" y="524.0"/>
      <point x="242.6357142857143" y="315.81607142857143"/>
      <point x="187.26785714285714" y="184.1017857142857" type="curve"/>
      <point x="194.7732142857143" y="286.81607142857143"/>
      <point x="224.10535714285714" y="682.0214285714286"/>
      <point x="224.93928571428572" y="718.3714285714286" type="curve" smooth="yes"/>
      <point x="224.93928571428572" y="743.5125"/>
      <point x="184.48392857142858" y="756.0"/>
      <point x="153.51964285714286" y="756.0" type="curve" smooth="yes"/>
      <point x="142.53035714285716" y="756.0"/>
      <point x="140.53392857142856" y="752.1696428571429"/>
      <point x="140.53392857142856" y="744.8446428571428" type="curve" smooth="yes"/>
      <point x="137.1982142857143" y="613.7589285714286"/>
      <point x="109.37142857142857" y="197.69285714285715"/>
      <point x="101.03214285714286" y="56.31785714285714" type="curve"/>
      <point x="96.03214285714286" y="56.31785714285714"/>
      <point x="88.36785714285715" y="41.823214285714286"/>
      <point x="88.36785714285715" y="22.32857142857143" type="curve" smooth="yes"/>
      <point x="88.36785714285715" y="16.166071428571428"/>
      <point x="91.36785714285715" y="15.166071428571428"/>
      <point x="93.03214285714286" y="15.0" type="curve" smooth="yes"/>
      <point x="181.9857142857143" y="-2.1624999999999996"/>
      <point x="280.4982142857143" y="-13.0"/>
    </contour>
    <contour>
      <point x="340.34285714285716" y="34.151785714285715" type="curve" smooth="yes"/>
      <point x="305.83035714285717" y="34.151785714285715"/>
      <point x="254.975" y="38.653571428571425"/>
      <point x="182.1017857142857" y="53.82678571428571" type="curve"/>
      <point x="211.2892857142857" y="196.15535714285716"/>
      <point x="403.51964285714286" y="448.74285714285713"/>
      <point x="433.8625" y="448.74285714285713" type="curve" smooth="yes"/>
      <point x="451.8696428571429" y="448.74285714285713"/>
      <point x="453.20178571428573" y="421.2267857142857"/>
      <point x="453.20178571428573" y="331.7" type="curve" smooth="yes"/>
      <point x="453.20178571428573" y="141.83392857142857"/>
      <point x="411.1875" y="34.151785714285715"/>
    </contour>
  </outline>
</glyph>
<glyph name="c" format="2">
  <advance width="445.675"/>
  <unicode hex="0063"/>
  <anchor x="231.1625" y="0.0" name="bottom"/>
  <anchor x="285.6642857142857" y="524.0" name="top"/>
  <outline>
    <contour>
      <point x="241.98214285714286" y="-13.0" type="curve" smooth="yes"/>
      <point x="310.83392857142854" y="-13.0"/>
      <point x="367.66785714285714" y="14.339285714285715"/>
      <point x="409.8375" y="58.5125" type="curve" smooth="yes"/>
      <point x="416.3357142857143" y="64.84464285714286"/>
      <point x="417.66785714285714" y="68.34285714285714"/>
      <point x="417.66785714285714" y="75.33928571428571" type="curve" smooth="yes"/>
      <point x="417.66785714285714" y="88.33571428571429"/>
      <point x="412.0" y="103.33214285714286"/>
      <point x="405.5017857142857" y="103.33214285714286" type="curve" smooth="yes"/>
      <point x="401.5017857142857" y="103.33214285714286"/>
      <point x="399.16964285714283" y="100.49821428571428"/>
      <point x="386.5017857142857" y="89.82678571428572" type="curve" smooth="yes"/>
      <point x="366.83035714285717" y="73.15178571428571"/>
      <point x="321.8232142857143" y="39.466071428571425"/>
      <point x="267.63214285714287" y="39.466071428571425" type="curve" smooth="yes"/>
      <point x="183.6107142857143" y="39.466071428571425"/>
      <point x="143.6" y="111.50178571428572"/>
      <point x="143.6" y="223.84464285714284" type="curve" smooth="yes"/>
      <point x="143.6" y="383.5125"/>
      <point x="201.4517857142857" y="479.20178571428573"/>
      <point x="265.1410714285714" y="479.20178571428573" type="curve" smooth="yes"/>
      <point x="306.3142857142857" y="479.20178571428573"/>
      <point x="335.81607142857143" y="466.54107142857146"/>
      <point x="367.15535714285716" y="433.025" type="curve" smooth="yes"/>
      <point x="375.8232142857143" y="424.1875"/>
      <point x="380.32142857142856" y="420.51964285714286"/>
      <point x="388.15535714285716" y="420.51964285714286" type="curve" smooth="yes"/>
      <point x="398.81607142857143" y="420.51964285714286"/>
      <point x="406.4839285714286" y="447.5017857142857"/>
      <point x="406.4839285714286" y="464.0" type="curve" smooth="yes"/>
      <point x="406.4839285714286" y="473.3285714285714"/>
      <point x="402.4839285714286" y="482.1589285714286"/>
      <point x="391.32142857142856" y="490.82678571428573" type="curve" smooth="yes"/>
      <point x="362.9892857142857" y="513.6678571428571"/>
      <point x="331.4982142857143" y="524.0"/>
      <point x="270.99642857142857" y="524.0" type="curve" smooth="yes"/>
      <point x="171.02857142857144" y="524.0"/>
      <point x="58.35" y="448.5053571428571"/>
      <point x="58.35" y="221.50178571428572" type="curve" smooth="yes"/>
      <point x="58.35" y="45.526785714285715"/>
      <point x="140.32857142857142" y="-13.0"/>
    </contour>
  </outline>
</glyph>
<glyph name="d" format="2">
  <advance width="652.6392857142857"/>
  <unicode hex="0064"/>
  <anchor x="303.0" y="0.0" name="bottom"/>
  <anchor x="323.0" y="262.0" name="center"/>
  <anchor x="482.65714285714284" y="639.0" name="cross"/>
  <anchor x="241.54107142857143" y="529.4803571428571" name="top"/>
  <anchor x="640.1589285714285" y="623.5232142857143" name="topright"/>
  <outline>
    <contour>
      <point x="147.48035714285714" y="-13.0" type="curve" smooth="yes"/>
      <point x="208.81964285714287" y="-13.0"/>
      <point x="377.5053571428571" y="201.69642857142858"/>
      <point x="440.20535714285717" y="333.2446428571429" type="curve"/>
      <point x="434.8696428571429" y="251.70357142857142"/>
      <point x="428.5339285714286" y="124.81964285714285"/>
      <point x="428.5339285714286" y="71.1375" type="curve" smooth="yes"/>
      <point x="428.5339285714286" y="49.466071428571425"/>
      <point x="428.7" y="35.63214285714285"/>
      <point x="431.5339285714286" y="28.1375" type="curve" smooth="yes"/>
      <point x="436.86607142857144" y="10.494642857142857"/>
      <point x="482.325" y="-13.0"/>
      <point x="494.4875" y="-13.0" type="curve" smooth="yes"/>
      <point x="536.8196428571429" y="-13.0"/>
      <point x="623.8125" y="90.65714285714286"/>
      <point x="654.9857142857143" y="131.99642857142857" type="curve" smooth="yes"/>
      <point x="657.8160714285714" y="135.325"/>
      <point x="659.3142857142857" y="139.4875"/>
      <point x="659.3142857142857" y="145.31785714285715" type="curve" smooth="yes"/>
      <point x="659.3142857142857" y="159.48035714285714"/>
      <point x="648.1517857142857" y="176.80892857142857"/>
      <point x="643.8232142857142" y="176.80892857142857" type="curve" smooth="yes"/>
      <point x="639.8232142857142" y="176.80892857142857"/>
      <point x="638.6571428571428" y="173.975"/>
      <point x="635.1589285714285" y="170.14464285714286" type="curve"/>
      <point x="616.4839285714286" y="145.3"/>
      <point x="544.9464285714286" y="62.925"/>
      <point x="527.7732142857143" y="62.925" type="curve" smooth="yes"/>
      <point x="516.4375" y="62.925"/>
      <point x="512.6035714285714" y="68.75892857142857"/>
      <point x="512.6035714285714" y="111.75178571428572" type="curve" smooth="yes"/>
      <point x="512.6035714285714" y="241.31785714285715"/>
      <point x="527.6071428571429" y="446.5160714285714"/>
      <point x="527.6071428571429" y="455.5160714285714" type="curve"/>
      <point x="532.7732142857143" y="455.5160714285714"/>
      <point x="540.4375" y="469.1767857142857"/>
      <point x="540.4375" y="488.6714285714286" type="curve" smooth="yes"/>
      <point x="540.4375" y="494.83392857142854"/>
      <point x="538.2714285714286" y="496.83392857142854"/>
      <point x="535.7732142857143" y="496.83392857142854" type="curve" smooth="yes"/>
      <point x="531.7732142857143" y="496.83392857142854" type="line"/>
      <point x="539.2785714285715" y="610.7428571428571"/>
      <point x="546.4410714285714" y="700.6964285714286"/>
      <point x="546.4410714285714" y="718.3714285714286" type="curve" smooth="yes"/>
      <point x="546.4410714285714" y="743.5125"/>
      <point x="506.81964285714287" y="756.0"/>
      <point x="475.1875" y="756.0" type="curve" smooth="yes"/>
      <point x="464.86607142857144" y="756.0"/>
      <point x="462.20178571428573" y="752.1696428571429"/>
      <point x="462.20178571428573" y="744.8446428571428" type="curve" smooth="yes"/>
      <point x="461.36785714285713" y="666.4589285714286"/>
      <point x="459.0357142857143" y="610.4696428571428"/>
      <point x="451.5375" y="510.1589285714286" type="curve"/>
      <point x="392.35" y="518.6642857142857"/>
      <point x="334.83035714285717" y="524.0"/>
      <point x="317.0107142857143" y="524.0" type="curve" smooth="yes"/>
      <point x="244.3642857142857" y="524.0"/>
      <point x="183.52678571428572" y="483.66785714285714"/>
      <point x="134.69285714285715" y="417.0" type="curve" smooth="yes"/>
      <point x="83.69285714285715" y="348.0"/>
      <point x="80.69285714285715" y="141.16607142857143"/>
      <point x="80.69285714285715" y="71.1375" type="curve" smooth="yes"/>
      <point x="80.69285714285715" y="49.466071428571425"/>
      <point x="81.69285714285715" y="35.63214285714285"/>
      <point x="84.52678571428571" y="28.1375" type="curve" smooth="yes"/>
      <point x="89.85892857142858" y="10.494642857142857"/>
      <point x="135.31785714285715" y="-13.0"/>
    </contour>
    <contour>
      <point x="179.93214285714285" y="62.75892857142857" type="curve" smooth="yes"/>
      <point x="168.59642857142856" y="62.75892857142857"/>
      <point x="164.7625" y="68.59285714285714"/>
      <point x="164.7625" y="111.41964285714286" type="curve" smooth="yes"/>
      <point x="164.7625" y="343.81607142857143"/>
      <point x="213.44821428571427" y="476.5160714285714"/>
      <point x="291.79821428571427" y="476.5160714285714" type="curve" smooth="yes"/>
      <point x="326.3107142857143" y="476.5160714285714"/>
      <point x="377.16607142857146" y="472.01428571428573"/>
      <point x="449.20535714285717" y="457.675" type="curve"/>
      <point x="414.18035714285713" y="315.3464285714286"/>
      <point x="210.275" y="62.75892857142857"/>
    </contour>
  </outline>
</glyph>
<glyph name="e" format="2">
  <advance width="470.1482142857143"/>
  <unicode hex="0065"/>
  <anchor x="233.50178571428572" y="0.0" name="bottom"/>
  <anchor x="370.5017857142857" y="0.0" name="ogonek"/>
  <anchor x="298.5017857142857" y="524.0" name="top"/>
  <outline>
    <contour>
      <point x="244.48392857142858" y="-13.0" type="curve" smooth="yes"/>
      <point x="316.325" y="-13.0"/>
      <point x="375.65" y="16.0"/>
      <point x="418.81607142857143" y="61.667857142857144" type="curve" smooth="yes"/>
      <point x="425.8125" y="68.66428571428571"/>
      <point x="427.14464285714286" y="72.82678571428572"/>
      <point x="427.14464285714286" y="78.82678571428572" type="curve" smooth="yes"/>
      <point x="427.14464285714286" y="92.65357142857142"/>
      <point x="421.4767857142857" y="107.31785714285715"/>
      <point x="414.97857142857146" y="107.31785714285715" type="curve" smooth="yes"/>
      <point x="410.97857142857146" y="107.31785714285715"/>
      <point x="408.1482142857143" y="104.15178571428571"/>
      <point x="395.64642857142854" y="93.14821428571429" type="curve" smooth="yes"/>
      <point x="373.98214285714283" y="74.8125"/>
      <point x="324.3071428571429" y="39.466071428571425"/>
      <point x="268.7875" y="39.466071428571425" type="curve" smooth="yes"/>
      <point x="182.76964285714286" y="39.466071428571425"/>
      <point x="144.43392857142857" y="110.50535714285714"/>
      <point x="144.43392857142857" y="223.67857142857142" type="curve" smooth="yes"/>
      <point x="144.43392857142857" y="241.18392857142857"/>
      <point x="144.43392857142857" y="267.19464285714287"/>
      <point x="146.1017857142857" y="274.8589285714286" type="curve"/>
      <point x="169.44464285714287" y="269.85535714285714"/>
      <point x="204.4625" y="265.6857142857143"/>
      <point x="241.1482142857143" y="265.6857142857143" type="curve" smooth="yes"/>
      <point x="326.6357142857143" y="265.6857142857143"/>
      <point x="430.95714285714286" y="306.6821428571429"/>
      <point x="430.95714285714286" y="409.67857142857144" type="curve" smooth="yes"/>
      <point x="430.95714285714286" y="474.49107142857144"/>
      <point x="388.4732142857143" y="524.0"/>
      <point x="281.8375" y="524.0" type="curve" smooth="yes"/>
      <point x="164.5232142857143" y="524.0"/>
      <point x="60.85178571428571" y="448.5053571428571"/>
      <point x="60.85178571428571" y="221.50178571428572" type="curve" smooth="yes"/>
      <point x="60.85178571428571" y="44.69642857142857"/>
      <point x="143.66071428571428" y="-13.0"/>
    </contour>
    <contour>
      <point x="238.98214285714286" y="306.84464285714284" type="curve" smooth="yes"/>
      <point x="198.13035714285715" y="306.5125"/>
      <point x="160.10892857142858" y="319.02142857142854"/>
      <point x="155.44107142857143" y="325.6928571428571" type="curve"/>
      <point x="172.11607142857142" y="438.34285714285716"/>
      <point x="220.96428571428572" y="485.6892857142857"/>
      <point x="275.1482142857143" y="485.6892857142857" type="curve" smooth="yes"/>
      <point x="327.5053571428571" y="485.6892857142857"/>
      <point x="350.84464285714284" y="452.3464285714286"/>
      <point x="350.84464285714284" y="413.50892857142856" type="curve" smooth="yes"/>
      <point x="350.84464285714284" y="342.51964285714286"/>
      <point x="309.17321428571427" y="307.675"/>
    </contour>
  </outline>
</glyph>
<glyph name="f" format="2">
  <advance width="319.11607142857144"/>
  <unicode hex="0066"/>
  <anchor x="153.0" y="0.0" name="bottom"/>
  <anchor x="192.35714285714286" y="657.6464285714286" name="top"/>
  <outline>
    <contour>
      <point x="25.65" y="-244.0" type="curve" smooth="yes"/>
      <point x="61.473214285714285" y="-244.0"/>
      <point x="106.3" y="-225.6642857142857"/>
      <point x="145.12678571428572" y="-189.16964285714286" type="curve" smooth="yes"/>
      <point x="184.28571428571428" y="-152.34285714285716"/>
      <point x="214.1125" y="-92.68928571428572"/>
      <point x="214.77678571428572" y="-12.555357142857144" type="curve" smooth="yes"/>
      <point x="216.60357142857143" y="446.6892857142857" type="line"/>
      <point x="395.675" y="446.6892857142857" type="line" smooth="yes"/>
      <point x="411.50892857142856" y="446.6892857142857"/>
      <point x="419.17321428571427" y="467.85535714285714"/>
      <point x="419.17321428571427" y="488.0107142857143" type="curve" smooth="yes"/>
      <point x="419.17321428571427" y="496.83392857142854"/>
      <point x="416.17321428571427" y="499.0"/>
      <point x="410.34285714285716" y="499.0" type="curve" smooth="yes"/>
      <point x="216.4375" y="499.0" type="line"/>
      <point x="218.93928571428572" y="565.1875" type="line" smooth="yes"/>
      <point x="222.275" y="664.0142857142857"/>
      <point x="253.78035714285716" y="696.8589285714286"/>
      <point x="301.7910714285714" y="696.8589285714286" type="curve" smooth="yes"/>
      <point x="355.81964285714287" y="696.8589285714286"/>
      <point x="398.34285714285716" y="682.5160714285714"/>
      <point x="405.00714285714287" y="680.6821428571428" type="curve" smooth="yes"/>
      <point x="408.8375" y="679.6821428571428"/>
      <point x="420.34285714285716" y="674.5125"/>
      <point x="425.0107142857143" y="674.5125" type="curve" smooth="yes"/>
      <point x="431.675" y="674.5125"/>
      <point x="436.3392857142857" y="688.1767857142858"/>
      <point x="436.3392857142857" y="700.8410714285715" type="curve" smooth="yes"/>
      <point x="436.3392857142857" y="709.6642857142857"/>
      <point x="434.8410714285714" y="715.8232142857142"/>
      <point x="428.18035714285713" y="720.4875" type="curve" smooth="yes"/>
      <point x="404.8410714285714" y="735.9928571428571"/>
      <point x="355.5017857142857" y="756.0"/>
      <point x="312.6714285714286" y="756.0" type="curve" smooth="yes"/>
      <point x="270.34285714285716" y="756.0"/>
      <point x="228.025" y="738.4910714285714"/>
      <point x="190.03571428571428" y="703.1660714285714" type="curve" smooth="yes"/>
      <point x="144.70714285714286" y="661.3357142857143"/>
      <point x="126.03214285714286" y="603.8410714285715"/>
      <point x="126.03214285714286" y="508.98214285714283" type="curve" smooth="yes"/>
      <point x="126.03214285714286" y="499.0" type="line"/>
      <point x="57.5125" y="499.0" type="line" smooth="yes"/>
      <point x="41.67857142857143" y="499.0"/>
      <point x="34.848214285714285" y="477.83392857142854"/>
      <point x="34.848214285714285" y="457.67857142857144" type="curve" smooth="yes"/>
      <point x="34.848214285714285" y="448.02142857142854"/>
      <point x="37.01428571428571" y="446.6892857142857"/>
      <point x="42.84464285714286" y="446.6892857142857" type="curve" smooth="yes"/>
      <point x="131.03214285714284" y="446.6892857142857" type="line"/>
      <point x="131.03214285714284" y="57.60357142857143" type="line" smooth="yes"/>
      <point x="131.03214285714284" y="-155.88035714285715"/>
      <point x="101.34642857142858" y="-186.025"/>
      <point x="21.34285714285714" y="-186.025" type="curve" smooth="yes"/>
      <point x="-38.526785714285715" y="-186.025"/>
      <point x="-115.07142857142857" y="-159.00714285714287"/>
      <point x="-144.41785714285714" y="-147.0" type="curve" smooth="yes"/>
      <point x="-150.58392857142857" y="-145.16607142857143"/>
      <point x="-157.25178571428572" y="-141.6642857142857"/>
      <point x="-159.41785714285714" y="-141.6642857142857" type="curve" smooth="yes"/>
      <point x="-163.58035714285714" y="-141.6642857142857"/>
      <point x="-168.24464285714285" y="-148.325"/>
      <point x="-168.24464285714285" y="-166.98928571428573" type="curve" smooth="yes"/>
      <point x="-168.24464285714285" y="-178.81607142857143"/>
      <point x="-164.41071428571428" y="-191.14464285714286"/>
      <point x="-155.91964285714286" y="-195.975" type="curve" smooth="yes"/>
      <point x="-142.25892857142858" y="-204.975"/>
      <point x="-53.385714285714286" y="-244.0"/>
    </contour>
  </outline>
</glyph>
